<svg width="1403" height="306" viewBox="0 0 1403 306" fill="none" xmlns="http://www.w3.org/2000/svg">
<path opacity="0.1" d="M1313.64 103.574C1308.74 100.438 1308.23 97.6624 1312.48 93.6751C1317.2 89.1316 1322.47 85.0498 1326.63 80.0447C1334.95 70.0346 1341.65 59.1486 1344.28 45.8182C1345.99 36.4224 1349.59 28.1334 1358.06 22.4722C1362.17 19.7807 1366.38 18.1068 1371.38 19.4389C1372.16 19.6225 1373.64 18.9718 1374.61 18.3685C1379.19 15.1208 1384 11.5951 1390.25 12.5546C1391.08 13.247 1391.68 14.2174 1392.74 14.6318C1392.05 15.466 1391.4 16.809 1390.43 17.4124C1387.75 18.9444 1385.02 19.9676 1382.57 21.2216C1381.83 21.547 1381 23.6769 1381.56 24.1385C1384.56 28.9908 1381.51 32.0967 1379.57 36.1259C1376.75 41.7761 1374.44 47.379 1371.62 53.0292C1366.4 63.2647 1361.78 74.4706 1352.21 82.0309C1345.09 88.3372 1337.74 94.9216 1329.88 101.553C1324.89 105.866 1318.55 106.711 1313.64 103.574ZM1368.88 25.8288C1366.85 26.0178 1364.63 26.9937 1362.78 26.3959C1360.42 25.8452 1359.45 26.4486 1358.01 27.6081C1351.26 32.3406 1349.65 39.9317 1347.98 47.014C1344.2 64.557 1334.96 78.5017 1322.19 90.4637C1319.56 92.5046 1317.2 94.7764 1314.57 96.8173C1313.18 98.4856 1313.04 99.7814 1315.4 100.332C1317.76 100.883 1320.91 101.617 1323.17 101.15C1325.67 100.405 1328.07 98.6418 1329.97 96.9262C1338.98 88.9043 1348.56 81.3439 1356.74 72.6296C1363.77 65.3056 1367.79 55.9516 1370.74 46.1832C1371.9 41.9706 1375.41 38.3085 1373.93 33.3144C1369.53 32.9528 1368.7 32.2604 1368.88 25.8288Z" fill="#020202"/>
<g opacity="0.1">
<path d="M1254.99 218.576C1253.51 216.6 1251.35 216.015 1248.9 215.724C1247.32 215.7 1245.92 216.189 1244.58 216.849C1243.25 217.508 1242.61 218.497 1241.8 219.547C1241.16 220.536 1240.35 221.586 1239.95 222.684C1239.49 224.186 1239.04 225.687 1239.57 227.224C1239.75 227.737 1239.81 228.481 1239.99 228.994L1239.82 229.055C1238.93 227.64 1237.35 227.042 1236.47 225.627C1235.58 224.212 1234.17 222.98 1232.07 222.566C1229.9 221.408 1227.57 222.032 1225.36 222.997C1222.1 224.329 1218.72 225.892 1216.28 228.469C1215.41 229.348 1214.95 230.275 1214.55 231.374C1214.33 232.411 1213.86 233.339 1213.99 234.254C1214.05 234.425 1213.82 234.889 1213.93 235.231L1213.82 235.463C1213.59 235.353 1213.24 235.475 1213.12 235.133C1212.47 234.402 1212.06 233.779 1211.41 233.047C1210.53 232.206 1209.53 231.596 1208.54 230.987C1205.78 229.841 1203.32 228.402 1200.57 227.256C1199.87 226.927 1199.23 226.769 1198.41 226.671C1197.77 226.513 1196.55 227.514 1196.2 228.21C1195.33 229.663 1195.11 231.274 1194.3 232.897C1193.67 233.886 1193.85 234.972 1193.68 236.181C1193.58 238.133 1193.24 239.976 1193.37 242.039C1193.5 244.101 1193.4 246.054 1193.87 247.994C1193.93 248.165 1194.05 248.506 1194.11 248.677C1194.47 249.702 1194.35 249.934 1193.25 250.13C1191.96 250.387 1190.74 250.814 1189.52 251.242C1186.2 252.403 1182.88 253.564 1179.38 254.786C1178.16 255.214 1176.93 255.642 1175.65 255.899C1174.89 255.972 1174.49 256.497 1173.79 256.742C1171.75 257.646 1169.48 258.44 1167.38 259.173C1167.03 259.296 1166.74 259.589 1166.39 259.137C1166.33 258.967 1166.16 259.028 1165.98 259.089C1165.17 259.565 1164.71 261.066 1165.01 261.921C1165.24 262.604 1165.6 263.055 1166.01 263.677C1166.13 264.019 1166.3 263.958 1166.65 263.836C1167.58 263.127 1168.52 262.993 1169.62 262.797C1170.73 262.601 1172.02 262.344 1173.06 261.977C1173.41 261.855 1173.76 261.733 1174.23 261.379C1174.46 260.915 1175.22 260.841 1175.63 260.89C1176.5 261.158 1177.32 260.682 1178.02 260.437C1180.64 259.521 1183.37 258.372 1185.88 257.114C1188.9 255.672 1192.05 255.146 1195.14 253.875C1195.49 253.753 1195.72 253.863 1195.78 254.034C1195.9 254.375 1196.19 254.656 1196.43 254.766C1196.49 254.936 1196.66 254.875 1196.55 255.107C1195.91 256.096 1196.79 256.938 1197.21 257.56C1198.56 259.768 1199.86 261.805 1201.33 263.782C1202.16 265.026 1203.39 265.745 1204.73 266.233C1206.78 267.049 1208.95 267.634 1211.11 268.219C1211.75 268.377 1212.1 268.255 1212.45 267.559C1213.2 265.765 1214.35 264.019 1215.33 262.335C1215.68 261.639 1215.85 261.004 1216.2 260.308C1216.71 258.978 1217.35 257.989 1218.04 256.597C1218.39 255.902 1218.91 255.145 1218.61 254.291C1218.55 254.12 1218.73 254.059 1218.55 254.12C1217.79 253.62 1217.9 252.814 1218.01 252.009C1218.31 252.289 1218.54 252.399 1218.66 252.741C1220.02 254.949 1222.12 255.363 1224.57 255.081C1225.5 254.946 1226.67 254.921 1227.6 254.786C1231.05 254.541 1234.43 254.124 1237.81 253.707C1238.75 253.573 1239.74 253.035 1240.61 252.73C1240.79 252.669 1241.08 252.376 1241.02 252.205C1240.96 252.034 1240.9 251.863 1241.13 251.973C1242.12 252.009 1242.24 251.203 1242.64 250.678C1244.32 248.176 1245.41 246.259 1245.46 243.562C1248.39 245.794 1251.78 246.525 1255.51 244.839C1259.29 243.323 1261.26 240.528 1262.11 236.781C1262.88 237.854 1263.29 239.05 1263.82 240.014C1264 240.526 1264.18 241.039 1264.71 241.429C1265.3 241.99 1266.11 242.087 1267.05 241.953C1270.6 240.901 1274.27 240.192 1277.77 238.97C1278.47 238.725 1278.93 238.371 1279.46 238.188C1280.27 237.711 1281.44 237.686 1281.85 237.161C1282.54 236.343 1283.59 235.403 1283.17 234.207C1283.11 234.037 1283.05 233.866 1282.93 233.524C1283.99 234.878 1284.88 236.293 1286.05 237.416C1286.99 238.428 1288.4 239.086 1289.51 240.038C1289.75 240.147 1289.98 240.257 1290.27 240.538C1291.16 241.953 1293.14 242.025 1295.01 241.756C1296.35 241.669 1297.4 240.729 1298.27 239.85C1298.67 239.325 1298.67 238.752 1298.67 238.178C1298.19 236.238 1297.82 234.066 1297.34 232.126C1296.98 230.527 1296.45 228.99 1296.26 227.33C1296.2 226.586 1296.19 226.012 1296.13 225.268C1296.12 223.547 1296.11 221.826 1296.39 219.813C1297.21 221.057 1298.04 222.301 1298.98 223.314C1300.86 225.339 1303.09 226.668 1305.89 227.411C1306.54 227.569 1306.72 228.081 1307.36 228.24C1309.23 228.544 1311.16 228.445 1313.08 228.347C1315.53 228.065 1318.1 228.125 1320.61 227.44C1322 226.951 1323.47 227.207 1324.8 226.547C1325.44 226.132 1326.14 225.887 1326.9 225.814C1327.49 225.801 1327.71 224.764 1327.71 224.19C1327.41 222.762 1326.18 222.043 1325.59 220.908C1323.99 218.017 1321.41 215.663 1320.28 212.417C1320.1 211.905 1319.63 211.685 1319.28 211.234C1318.92 210.783 1318.8 210.441 1319.62 209.965C1320.49 209.659 1321.43 209.524 1322.12 208.706C1322.59 208.352 1323.17 208.34 1323.69 208.156C1324.92 207.729 1326.08 207.704 1327.13 207.337C1329.87 206.189 1332.55 204.869 1335.46 204.233C1337.27 203.793 1338.25 202.682 1339.41 201.51C1339.59 201.449 1339.7 201.217 1339.82 200.985C1340.23 200.46 1340.22 199.886 1339.46 199.96C1338 199.704 1336.54 199.449 1335.02 199.596C1334.44 199.608 1334.27 200.243 1333.74 200.426C1330.48 201.758 1327.28 202.687 1324.08 204.19C1323.03 204.557 1321.75 204.814 1320.7 205.18C1319.65 205.547 1318.72 205.682 1317.73 206.219C1316.45 207.05 1315.8 206.891 1315.1 205.988C1312.74 203.171 1310.04 200.475 1307.98 197.364C1307.57 196.742 1307.04 196.352 1306.51 195.961C1305.04 194.559 1303.75 193.095 1302.57 191.399C1302.22 190.948 1301.69 190.557 1301.22 190.338C1300.69 189.948 1300.58 190.18 1300.35 190.644C1299.14 193.939 1297.29 197.076 1296.73 200.53C1296.68 200.933 1296.62 201.336 1295.86 200.836C1294.33 199.836 1292.75 199.239 1290.94 199.105C1290.36 199.118 1290.7 198.422 1290.82 198.19C1291.17 197.494 1291.34 196.86 1291.27 196.115C1291.38 195.31 1291.09 194.456 1290.79 193.602C1290.67 193.26 1290.61 193.089 1290.03 193.102C1289.44 193.114 1288.8 192.956 1288.28 193.139C1287.75 193.323 1287.4 193.445 1287.64 194.128C1287.94 194.982 1288.06 195.897 1288.18 196.813C1288.3 197.154 1288.25 197.557 1288.19 197.96C1288.2 199.107 1287.68 199.864 1286.28 200.353C1283.02 201.111 1280.64 203.284 1278.61 205.909C1278.09 206.666 1277.51 207.252 1277.22 208.119C1276.99 208.583 1276.99 208.583 1276.52 208.363C1274.47 206.973 1272.13 206.449 1269.73 205.755C1269.32 205.706 1268.8 205.89 1268.39 205.841C1267.63 205.915 1266.64 205.879 1265.94 206.123C1264.48 206.441 1263.32 207.04 1261.86 207.358C1260.23 207.737 1258.72 208.458 1257.32 208.946C1255.69 209.326 1255.29 210.424 1254.77 211.755C1254.43 213.024 1254.26 214.232 1254.5 215.489C1254.62 215.831 1254.74 216.172 1254.86 216.514C1254.86 217.088 1254.75 217.893 1254.99 218.576ZM1303.07 197.354C1302.96 197.586 1303.02 197.757 1302.9 197.989C1302.86 200.112 1302.58 202.126 1302.71 204.189C1302.66 206.312 1302.74 208.204 1303.04 210.205C1303.16 210.546 1303.57 211.169 1303.11 211.523C1302.64 211.877 1303.05 211.926 1303.17 212.267C1303.23 212.438 1303.4 212.377 1303.52 212.719C1303.71 213.805 1304.41 214.707 1305.12 215.61C1305.58 215.256 1305.46 214.914 1305 214.695C1304.76 214.585 1304.7 214.414 1304.64 214.243C1303.64 212.487 1303.57 210.595 1303.32 208.765C1302.96 206.593 1303.12 204.237 1303.16 202.114C1303.21 199.99 1303.25 197.867 1304.18 196.011C1304.41 196.121 1304.47 196.292 1304.35 196.524C1304.07 197.39 1303.78 198.257 1303.73 199.233C1303.62 200.039 1303.91 200.893 1303.8 201.698C1303.7 204.225 1304.36 206.677 1304.61 209.081C1304.91 211.083 1305.86 212.669 1306.8 214.255C1307.22 214.877 1307.57 215.328 1308.16 215.889C1309.56 217.121 1311.32 217.657 1313.07 218.193C1315.71 218.997 1318.51 219.167 1321.31 219.336C1322.13 219.433 1322.95 219.531 1323.48 220.495C1322.84 220.336 1322.73 221.142 1322.14 221.154C1320.98 221.179 1319.87 221.375 1318.87 221.339C1317.06 221.206 1315.13 220.731 1313.26 220.426C1311.39 220.122 1309.58 219.415 1308.06 218.415C1307.23 217.745 1306.47 217.245 1305.65 216.574C1305.71 217.318 1306.01 217.599 1306.36 218.05C1307.88 219.05 1309.29 220.282 1311.05 220.818C1312.33 221.135 1313.8 221.39 1315.08 221.707C1317.89 222.45 1320.75 222.217 1323.61 221.983C1324.19 221.971 1324.37 221.91 1324.37 222.483C1324.08 222.776 1323.85 222.667 1323.5 222.789C1318.36 223.817 1313.17 224.1 1308.14 222.601C1305.74 221.907 1304.1 220.565 1302.86 218.699C1301.62 216.832 1301.02 214.55 1300.66 212.378C1300.36 210.951 1300.41 209.401 1300.69 207.961C1300.85 206.179 1301.43 204.445 1301.77 202.603C1302.11 201.333 1302.22 199.954 1302.73 198.624C1302.78 197.647 1302.9 197.415 1303.07 197.354C1303.01 197.183 1302.96 197.013 1303.13 196.952C1303.24 196.146 1303.41 195.511 1303.52 194.706C1304.05 195.096 1304.17 195.438 1303.71 195.792C1303.42 196.085 1303.36 196.488 1303.13 196.952C1303.19 197.122 1303.01 197.183 1303.07 197.354ZM1272.2 207.767C1272.2 207.767 1272.14 207.597 1272.2 207.767C1272.14 207.597 1272.14 207.597 1272.2 207.767C1274.01 207.901 1275.24 208.62 1275.66 210.389C1275.84 210.902 1275.61 211.366 1275.55 211.769C1275.56 212.916 1274.98 214.075 1274.82 215.284C1274.4 213.514 1273.39 211.757 1272.97 209.988C1272.85 209.073 1272.61 208.39 1272.2 207.767ZM1215.67 250.912C1216.49 251.009 1216.67 251.521 1217.19 251.912C1217.72 252.302 1217.03 253.12 1217.61 253.681C1216.09 253.255 1215.97 252.913 1215.91 251.595C1215.61 251.314 1215.73 251.082 1215.67 250.912C1215.03 251.327 1215.44 251.949 1215.27 252.584C1214.63 252.425 1214.22 251.803 1213.86 251.352C1213.51 250.901 1212.75 250.974 1212.57 250.462C1211.98 249.327 1210.98 248.144 1210.68 246.716C1210.5 246.204 1210.5 245.63 1210.55 245.227C1210.72 243.445 1210.77 241.896 1211.16 240.223C1211.62 238.722 1212.02 237.05 1212.24 235.439C1213.47 236.158 1213.95 236.951 1213.43 238.282C1213.31 238.514 1213.26 238.917 1213.2 239.319C1213.03 239.954 1213.03 240.528 1211.98 240.321C1211.75 240.211 1211.57 240.272 1211.63 240.443C1211.52 240.675 1211.69 240.614 1211.93 240.723C1212.92 240.76 1212.86 241.162 1212.75 241.968C1212.64 242.2 1212.7 242.371 1212.76 242.541C1212.93 243.054 1212.64 243.347 1212.12 243.53C1211.77 243.652 1211.54 243.543 1211.31 244.007C1211.02 245.447 1210.91 246.826 1211.91 248.009C1212.21 248.29 1212.27 248.46 1212.56 248.167C1213.2 247.752 1213.49 248.033 1213.67 248.545C1213.73 248.716 1214.02 248.997 1214.08 249.167C1214.49 249.79 1215.37 250.058 1215.67 250.912ZM1211.55 263.85C1211.78 263.386 1212.19 262.861 1212.36 262.226C1212.99 260.664 1213.68 259.272 1214.67 258.161C1215.25 257.575 1215.53 256.709 1215.88 256.013C1215.99 255.781 1216.11 255.549 1215.87 255.439C1215.64 255.329 1215.52 255.561 1215.35 255.622C1213.9 256.514 1212.97 257.796 1212.04 259.078C1210.48 260.775 1209.38 262.691 1207.82 264.389C1207.53 264.682 1207.59 264.852 1208.05 265.072C1208.93 265.34 1209.69 265.84 1210.69 265.876C1210.46 266.34 1210.34 266.572 1210.28 266.975C1210.17 267.206 1210.05 267.438 1209.82 267.329C1208.94 267.061 1208.07 266.793 1207.19 266.525C1207.24 266.122 1207.59 266 1207.47 265.658C1207.3 265.719 1207.12 265.78 1206.95 265.841C1206.78 266.476 1206.31 266.256 1205.9 266.208C1204.96 265.769 1204.49 264.976 1203.73 264.476C1203.5 264.366 1203.79 264.073 1203.96 264.012C1204.37 263.487 1204.83 263.133 1205.3 262.779C1205.47 262.718 1205.41 262.547 1205.35 262.376C1205.29 262.205 1204.94 262.328 1205 262.498C1204.54 262.853 1203.96 263.439 1203.49 263.793C1203.2 264.086 1203.03 264.147 1202.73 263.866C1201.44 262.976 1200.56 261.561 1199.73 260.317C1199.61 259.975 1199.5 259.633 1200.25 259.56C1200.19 259.389 1200.25 258.986 1199.79 259.34C1199.44 259.462 1199.2 259.353 1199.08 259.011C1198.61 257.645 1198.13 256.278 1197.48 254.972C1197.3 254.46 1197.48 254.399 1198 254.216C1198.53 254.032 1199.05 253.849 1199.57 253.666C1199.75 253.604 1199.92 253.543 1199.8 253.202C1199.75 253.031 1199.57 253.092 1199.4 253.153C1198.87 253.336 1198.11 253.41 1197.65 253.764C1197.3 253.886 1197.3 253.886 1197 253.606C1195.89 252.081 1195.82 250.189 1194.81 248.433C1194.69 248.091 1194.87 248.03 1195.1 248.14C1196.03 248.005 1197.08 247.638 1198.02 247.503C1198.19 247.442 1198.43 247.552 1198.48 247.149C1198.36 246.808 1198.25 247.04 1198.01 246.93C1197.49 247.113 1196.9 247.126 1196.38 247.309C1194.75 247.688 1194.75 247.688 1194.62 246.199C1194.56 246.029 1194.68 245.797 1194.62 245.626C1194.56 244.881 1194.9 244.759 1195.49 244.747C1196.83 244.661 1198 244.636 1199.34 244.55C1199.52 244.488 1199.75 244.598 1199.69 244.427C1199.81 244.195 1199.57 244.086 1199.4 244.147C1199.22 244.208 1198.99 244.098 1198.81 244.159C1197.47 244.245 1196.13 244.331 1195.02 244.527C1194.85 244.588 1194.5 244.711 1194.55 244.308C1194.55 243.734 1194.31 243.051 1194.48 242.416C1194.77 241.55 1194.88 240.744 1194.93 239.768C1194.99 239.365 1195.16 239.304 1195.57 239.353C1196.56 239.389 1197.56 239.425 1198.72 239.4C1199.89 239.375 1201.12 239.521 1202.34 239.666C1202.58 239.776 1203.05 239.996 1203.16 239.764C1203.22 239.361 1202.64 239.373 1202.4 239.264C1202.17 239.154 1201.99 239.215 1201.76 239.105C1200.12 238.911 1198.55 238.887 1196.91 238.693C1196.33 238.705 1195.8 238.315 1195.16 238.73C1195.33 237.522 1195.32 236.375 1195.49 235.167C1195.54 234.764 1195.6 234.361 1195.65 233.959C1195.71 233.556 1195.82 233.324 1196.29 233.543C1197 233.872 1197.64 234.031 1198.11 234.25C1198.34 234.36 1198.58 234.47 1198.69 234.238C1198.81 234.006 1198.57 233.896 1198.34 233.786C1197.69 233.628 1197.17 233.238 1196.35 233.141C1195.94 233.092 1195.65 232.811 1195.94 232.518C1196.34 231.993 1196.34 231.42 1196.16 230.907C1195.86 230.053 1196.5 229.638 1196.67 229.003C1197.02 228.307 1198.07 227.941 1198.88 228.038C1200.93 228.281 1202.45 229.281 1204.09 230.049C1205.5 230.707 1207.25 231.243 1208.43 232.366C1209.31 233.207 1210.31 233.817 1211.19 234.659L1211.25 234.829C1211.07 234.89 1211.07 234.89 1211.01 234.72C1210.43 234.732 1210.08 234.281 1209.26 234.184C1209.5 234.867 1210.2 235.196 1210.78 235.183C1211.37 235.171 1211.48 235.513 1211.43 235.915C1211.26 237.124 1211.26 237.124 1209.97 236.807C1209.74 236.697 1209.51 236.588 1209.33 236.649C1208.05 236.332 1206.7 235.845 1205.18 235.992C1205.01 236.053 1204.77 235.943 1204.83 236.114C1204.72 236.346 1205.13 236.394 1205.3 236.333C1205.71 236.382 1206.29 236.369 1206.53 236.479C1207.76 237.199 1209.34 237.222 1210.45 237.6C1211.09 237.758 1210.97 237.99 1210.98 238.564C1210.64 240.407 1209.72 242.262 1209.61 244.215C1209.56 244.618 1209.38 244.679 1209.21 244.74C1208.45 244.813 1207.75 245.058 1206.88 245.363C1206.7 245.424 1206.41 245.144 1206.35 245.547C1206.47 245.888 1206.82 245.766 1207 245.705C1207.69 245.461 1208.45 245.387 1208.98 245.204C1209.68 244.959 1209.56 245.191 1209.74 245.704C1209.8 246.448 1209.93 247.363 1210.16 248.047C1210.34 248.559 1210.64 248.84 1209.82 249.316C1210.41 249.303 1210.64 249.413 1210.99 249.864C1211.52 250.828 1212.23 251.731 1213.05 252.402C1213.64 252.963 1213.41 253.427 1212.94 253.781C1212.83 254.013 1212.48 254.135 1212.3 254.196C1212.19 254.428 1211.84 254.55 1211.96 254.892C1212.77 254.416 1213.41 254 1213.87 253.073C1214.4 253.463 1214.64 254.146 1215.63 254.182C1216.22 254.17 1216.74 254.56 1217.39 254.718C1218.03 254.877 1218.15 255.218 1217.98 255.853C1217.92 256.256 1217.63 256.549 1217.58 256.952C1217.12 257.879 1216.48 258.868 1216.08 259.967C1215.28 262.737 1213.19 265.191 1211.98 267.913C1211.75 268.377 1211.46 268.097 1211.05 268.048C1210.64 267.999 1210.76 267.768 1210.87 267.536C1211.33 266.608 1211.79 265.68 1212.08 264.814C1212.2 264.582 1212.31 264.35 1212.08 264.24C1211.84 263.557 1211.72 263.789 1211.55 263.85C1211.61 264.021 1211.55 263.85 1211.55 263.85C1211.55 263.85 1211.37 263.911 1211.55 263.85ZM1215.11 244.786C1214.99 244.444 1214.81 243.932 1214.86 243.529C1215.2 241.686 1214.9 239.685 1215.24 237.842C1215.4 236.633 1215.22 235.547 1214.98 234.29C1214.79 232.631 1215.43 231.068 1216.12 229.677C1216.23 229.445 1216.41 229.384 1216.58 229.323C1217.98 228.26 1219.61 227.308 1221 226.245C1222.86 224.829 1225.13 224.034 1227.34 223.069C1227.87 222.886 1228.57 222.641 1229.15 222.629C1230.61 222.311 1231.66 223.091 1233.01 223.579C1234.41 224.237 1235.7 225.127 1236.59 226.542C1236.94 226.994 1236.6 227.69 1237.07 227.909C1238.24 228.458 1238.59 229.483 1239.24 230.214C1240.12 231.056 1240.48 232.081 1240.49 233.228C1240.43 234.204 1240.79 235.229 1241.44 235.961C1242.5 237.315 1242.68 238.975 1243.22 240.512C1244.17 242.672 1244.01 245.027 1244.02 247.322C1243.96 247.724 1244.14 248.237 1243.85 248.53C1242.75 249.873 1241.59 251.045 1240.43 252.217C1239.68 252.864 1238.86 253.341 1237.93 253.475C1236.47 253.793 1235.19 253.477 1233.73 253.795C1230.93 254.199 1228.01 254.261 1225.27 254.836C1222.7 255.35 1220.83 254.473 1219.36 252.496C1217.3 249.959 1216.35 247.226 1215.11 244.786ZM1279.61 225.679C1279.02 225.118 1279.14 224.312 1278.55 223.751C1277.78 222.678 1277.13 221.372 1276.54 220.237C1275.65 218.249 1276.28 216.113 1276.33 213.989C1276.32 213.416 1276.49 212.781 1276.66 212.146C1277.87 209.424 1279.26 206.641 1281.34 204.187C1282.15 203.137 1283.31 201.965 1284.89 202.562L1285.07 202.501C1286.47 202.586 1287.4 201.878 1288.56 201.279C1289.9 200.619 1291.3 200.13 1292.82 200.557C1293.23 200.605 1293.46 200.715 1293.93 200.935C1294.81 201.203 1295.75 202.789 1295.41 203.484C1294.83 204.644 1294.66 205.852 1294.5 207.061C1294.05 210.283 1293.84 213.614 1294.97 216.86C1295.15 217.372 1295.15 217.946 1295.27 218.288C1295.28 219.435 1295.05 220.472 1295.23 221.558C1295.48 223.389 1294.96 225.293 1294.97 227.013C1293.92 226.233 1292.91 224.476 1292.67 223.219C1292.55 222.878 1292.78 222.414 1292.2 222.426C1291.62 222.439 1291.97 222.89 1291.91 223.293C1292.22 224.721 1292.93 226.197 1293.46 227.734C1294.17 229.784 1296.23 231.174 1296.07 233.53C1296.13 233.701 1296.13 233.701 1296.19 233.871C1296.72 235.409 1297.67 236.995 1297.68 238.716C1297.74 239.46 1297.51 239.924 1296.64 240.229C1294.65 240.731 1292.61 240.488 1290.62 239.842C1287.05 238.599 1284.93 235.891 1283.16 233.06C1282.87 232.78 1282.86 232.206 1282.75 231.864C1282.56 230.205 1281.79 228.558 1281.25 227.02C1280.49 225.373 1280.24 223.543 1280.34 221.59C1280.39 220.04 1280.09 218.613 1279.56 217.075C1279.5 216.904 1279.44 216.733 1279.2 216.624C1279.03 216.685 1278.91 216.917 1278.91 216.917C1279.21 217.771 1278.75 218.699 1279.05 219.553C1279.41 221.151 1279.18 222.762 1279.54 224.361C1279.55 224.934 1279.73 225.447 1279.61 225.679ZM1246.45 216.579C1247.85 216.664 1249.13 216.407 1250.6 216.663C1252.29 217.028 1253.35 218.382 1254.64 219.272C1255.46 219.943 1255.93 220.736 1256.12 221.822C1256.3 222.908 1256.6 223.762 1256.95 224.787C1257.43 225.58 1258.07 226.312 1258.2 227.227C1258.62 228.997 1259.5 230.412 1260.09 232.12C1260.33 232.803 1260.22 233.609 1260.63 234.231C1261.17 235.195 1261.29 236.11 1260.89 237.209C1260.14 239.003 1259.86 241.017 1257.77 242.323C1256.66 243.093 1255.62 244.033 1254.28 244.693C1251.54 245.841 1247.63 245.294 1245.57 243.33C1245.04 242.94 1244.63 242.318 1244.69 241.915C1244.74 241.512 1244.8 241.11 1244.56 241C1243.8 239.926 1243.38 238.731 1242.62 237.657C1241.62 236.474 1241.25 234.875 1241.19 233.557C1241.06 232.069 1240.41 230.763 1240.28 229.274C1240.16 228.359 1239.98 227.273 1239.8 226.187C1239.56 225.504 1240.2 225.088 1240.14 224.344C1240.24 222.391 1241.4 220.646 1242.85 219.18C1243.31 218.826 1243.84 218.643 1244.24 218.118C1245.17 217.41 1245.81 216.994 1246.45 216.579ZM1302 193.706C1302.82 194.377 1302.88 195.121 1302.6 195.988C1301.51 199.051 1301.06 202.273 1300.38 205.386C1299.98 207.058 1299.65 208.901 1299.89 210.731C1300.2 212.732 1300.91 214.782 1301.56 216.661C1302.4 219.053 1304.16 220.736 1306.62 221.601C1309.84 222.967 1313.52 223.404 1317.13 223.097C1319.47 223.047 1321.86 222.594 1324.25 222.142C1324.95 221.897 1324.89 222.3 1325.07 222.812C1325.25 223.325 1324.84 223.276 1324.49 223.399C1323.97 223.582 1323.21 223.655 1322.63 223.668C1322.04 223.68 1321.46 223.693 1320.87 223.705C1318.37 224.39 1315.86 224.501 1313.41 224.783C1311.54 225.053 1309.62 225.151 1307.98 224.383C1305.28 223.408 1302.88 222.14 1301.47 219.761C1300.52 218.175 1299.46 216.821 1298.98 214.881C1298.62 213.282 1298.03 211.574 1298.25 209.963C1298.36 208.011 1298.46 206.058 1298.91 203.983C1299.31 202.311 1299.07 200.48 1299.87 198.857C1300.91 197.343 1301.25 195.5 1302 193.706ZM1300.53 191.73C1301.41 192.571 1301.53 193.486 1301.07 194.414C1300.96 194.646 1301.01 194.817 1300.84 194.878C1300.04 197.649 1298.54 200.09 1298.38 203.019C1298.17 206.351 1297.37 209.695 1297.92 212.953C1298.71 217.468 1300.66 221.385 1304.82 223.762C1305.82 224.372 1307.05 225.091 1308.27 225.237C1311.14 225.577 1314.17 225.283 1317.2 224.989C1318.9 224.78 1320.47 224.23 1322.22 224.193C1323.04 224.29 1323.8 224.217 1324.67 223.911C1325.37 223.667 1325.55 224.179 1325.67 224.521C1325.85 225.033 1325.26 225.046 1325.09 225.107C1324.91 225.168 1324.74 225.229 1324.56 225.29C1322.87 225.498 1321.12 225.536 1319.61 226.257C1319.43 226.318 1319.08 226.44 1318.91 226.501C1315.93 226.966 1312.9 227.261 1309.92 226.579C1309.04 226.311 1308.05 226.275 1307.23 226.177C1305.36 225.873 1304.12 224.58 1302.49 223.812C1301.25 223.093 1300.02 222.373 1299.43 221.239C1298.9 220.275 1298.54 219.25 1297.84 218.347C1297.78 218.177 1297.78 218.177 1297.72 218.006C1297.18 216.468 1297.06 214.98 1297.11 213.43C1297.04 212.685 1297.33 211.819 1297.09 211.135C1296.79 209.134 1297.12 207.291 1297.23 205.338C1297.51 203.325 1297.73 201.14 1298.24 199.236C1298.87 196.527 1299.78 194.098 1300.53 191.73ZM1194.55 252.741C1193.85 252.985 1192.97 253.291 1192.33 253.706C1191.7 254.121 1191 254.366 1190.47 254.549C1188.26 254.94 1186.28 256.015 1184.18 256.749C1182.02 257.311 1180.17 258.728 1177.83 259.351C1175.21 260.268 1172.65 260.782 1170.09 261.869C1169.04 262.236 1167.93 262.432 1166.88 262.798C1166.01 263.104 1166.12 262.298 1165.76 261.847C1165.59 261.334 1166.17 261.322 1166.35 261.261C1167.98 260.882 1169.72 260.271 1171.3 259.721C1171.65 259.598 1171.82 259.537 1171.7 259.196C1171.58 258.854 1171.23 258.976 1171.06 259.037C1169.26 260.051 1167.39 260.321 1165.47 260.993C1165.29 260.48 1165.81 260.297 1166.16 260.175C1166.92 260.101 1167.8 259.796 1168.49 259.551C1171.06 258.464 1173.62 257.95 1176.18 256.863C1178.75 255.775 1181.43 255.029 1184.05 254.113C1184.22 254.052 1184.34 253.82 1184.63 254.1C1184.28 254.222 1183.93 254.345 1184.05 254.686C1184.11 254.857 1184.34 254.967 1184.63 254.674C1185.91 253.843 1187.43 253.696 1188.77 253.036C1190.11 252.377 1191.27 251.778 1192.67 251.289C1192.84 251.228 1193.49 251.387 1193.08 250.764C1193.08 250.764 1194.41 250.105 1194.47 250.276C1194.71 250.385 1194.66 251.935 1194.48 251.996C1193.55 252.705 1194.49 252.57 1194.55 252.741ZM1322.01 218.518C1321.19 218.421 1320.37 218.324 1319.56 218.227C1316.34 218.009 1313.25 217.559 1310.38 216.071C1309.67 215.742 1308.91 215.242 1308.26 214.51C1306.73 212.363 1305.37 210.155 1305.18 207.348C1305.06 205.859 1304.52 204.322 1304.57 202.772C1304.61 200.648 1304.07 198.538 1305.05 196.279C1305.58 196.67 1305.82 197.353 1305.88 198.097C1306.07 200.33 1306.32 202.734 1306.16 205.09C1306.06 207.043 1306.71 208.922 1307.71 210.678C1309.6 213.85 1312.71 215.448 1316.51 216.227C1317.56 216.434 1318.67 216.238 1319.83 216.213C1320.24 216.261 1320.59 216.139 1320.71 216.481C1321.18 217.274 1321.54 217.725 1322.01 218.518ZM1262.02 222.441C1261.55 221.648 1262.01 220.721 1262.35 220.025C1262.87 219.268 1263.33 218.34 1264.09 217.693C1265.19 216.924 1266.01 217.021 1266.43 218.217C1266.67 218.9 1266.96 219.754 1267.49 220.144C1268.14 220.876 1267.91 221.34 1267.56 222.036C1267.22 222.732 1267.04 223.366 1266.87 224.001C1266.93 224.172 1266.82 224.404 1266.99 224.343C1267.23 224.452 1267.34 224.22 1267.28 224.05C1267.27 222.903 1267.8 223.293 1268.51 223.622C1268.97 223.841 1269.44 224.061 1269.97 223.877C1270.38 223.926 1270.9 223.743 1271.25 223.621C1271.77 223.437 1272.07 223.718 1272.07 224.291C1271.96 225.097 1272.02 225.841 1271.91 226.647C1271.69 228.258 1271.69 228.258 1270.05 228.063C1269.82 227.954 1269.35 228.308 1269.23 227.966C1269.05 226.88 1267.88 226.331 1267.35 225.368C1266.76 224.233 1265.82 223.794 1264.48 223.88C1263.61 224.186 1262.37 223.466 1262.02 222.441ZM1268.68 233.141C1268.27 233.092 1267.98 232.812 1267.75 232.702C1267.04 232.373 1266.63 231.751 1265.76 232.056C1264.71 232.423 1263.43 232.68 1262.5 233.388C1262.21 233.681 1262.09 233.339 1262.03 233.169C1261.15 232.327 1261.08 231.009 1260.55 230.045L1260.49 229.874C1260.66 229.24 1262.93 228.445 1263.23 228.726C1263.75 229.116 1264.1 228.994 1264.69 228.981C1265.45 228.908 1266.32 228.602 1267.14 228.699C1267.55 228.748 1268.01 228.967 1268.07 228.565C1268.13 228.162 1267.43 228.406 1267.19 228.297C1266.32 228.029 1265.39 228.737 1264.57 228.64C1263.81 228.713 1263.34 228.494 1263.34 227.92C1263.16 226.834 1263.15 225.687 1263.2 224.711C1263.32 224.479 1263.32 224.479 1263.49 224.418C1264.07 224.405 1264.89 224.502 1265.48 224.49C1266.23 224.416 1266.53 224.697 1266.94 225.319C1267.35 225.941 1267.82 226.734 1268.59 227.234C1268.94 227.686 1269.06 228.027 1269.06 228.601C1268.84 229.638 1268.43 230.737 1268.68 231.994C1268.56 232.226 1268.68 232.567 1268.68 233.141ZM1277.82 237.42C1276.48 238.079 1275.26 238.507 1273.86 238.996C1273.51 239.118 1273.16 239.24 1273.22 238.838C1273.39 238.203 1272.86 237.813 1273.38 237.056C1273.49 236.824 1272.9 235.689 1272.49 235.641C1271.56 235.775 1271.56 235.202 1271.38 234.689C1271.26 234.348 1271.08 233.835 1270.79 233.555C1270.49 233.274 1270.67 233.213 1270.78 232.981C1271.54 231.76 1272.76 231.333 1273.92 230.734C1274.27 230.612 1274.8 230.428 1275.03 231.112C1275.27 231.795 1276.27 232.405 1277.2 232.27C1277.38 232.209 1277.61 232.319 1277.84 232.428C1279.6 232.964 1280.08 234.331 1280.73 235.636C1280.84 235.978 1280.73 236.21 1280.38 236.332C1279.16 236.76 1278.05 237.529 1276.76 236.639C1276.76 236.639 1276.76 236.639 1276.53 236.529C1275.36 236.554 1274.89 235.761 1274.42 234.968C1274.24 234.456 1273.36 234.188 1272.9 234.542C1272.72 234.603 1272.55 234.664 1272.61 234.835C1272.67 235.006 1272.84 234.945 1273.01 234.884C1273.54 234.7 1274.01 234.92 1274.19 235.432C1274.72 236.396 1275.48 237.47 1277 237.322C1277.35 237.2 1277.76 237.249 1277.82 237.42ZM1307.11 198.817C1307.7 199.378 1308.11 200 1308.7 200.561C1308.76 200.732 1308.82 200.903 1308.82 200.903C1308.65 201.537 1308.71 202.282 1308.71 202.855C1308.91 205.662 1309.45 208.347 1311.51 210.31C1312.15 211.042 1312.97 211.713 1313.91 212.152C1315.55 212.92 1317.6 213.163 1319.35 213.699C1319.76 213.748 1320.47 214.65 1320.41 215.053C1320.3 215.285 1320.12 215.346 1320.06 215.175C1316.67 215.018 1313.46 214.8 1310.82 212.276C1309 210.422 1307.46 208.274 1307.33 205.638C1307.26 203.747 1307.19 201.855 1307.12 199.964C1307.06 199.793 1307.12 199.39 1307.11 198.817ZM1259.15 211.948C1259.85 211.703 1261.72 212.581 1261.9 213.093C1261.96 213.264 1261.96 213.264 1261.78 213.325C1261.26 214.082 1262.09 214.753 1262.32 214.863C1263.43 215.24 1263.44 216.388 1264.2 216.888C1264.43 216.997 1264.32 217.229 1264.14 217.29C1263.16 217.828 1262.58 218.987 1261.94 219.976C1261.65 220.269 1261.48 220.33 1261.18 220.05C1260.72 219.83 1260.19 219.44 1259.95 219.33C1258.9 219.124 1257.97 218.685 1258.02 217.708C1258.07 216.732 1257.6 216.513 1256.78 216.415C1256.2 216.428 1255.97 216.318 1256.31 215.622C1256.6 215.329 1256.31 215.049 1256.01 214.768C1255.78 214.659 1255.66 214.317 1256.01 214.195C1257.11 213.425 1258.22 212.656 1259.15 211.948ZM1318.76 213.138C1312.34 212.128 1309.04 208.872 1309.17 201.354C1309.35 201.293 1309.41 201.464 1309.47 201.635C1310.76 203.098 1312.05 204.562 1313.17 206.087C1313.88 206.99 1314.47 208.124 1315.29 208.795C1317.05 209.905 1318.17 211.43 1318.76 213.138ZM1316.34 207.855C1317.79 207.537 1319.01 206.536 1320.7 206.327C1322.34 205.948 1324.03 205.74 1325.54 205.019C1325.89 204.897 1326.48 204.884 1326.53 204.482C1326.7 203.847 1327.11 203.896 1327.7 203.883C1328.04 203.761 1328.28 203.871 1328.63 203.748C1330.26 202.796 1332.06 202.355 1333.58 201.635C1334.8 201.207 1336.02 200.779 1337.48 201.035C1335.5 201.536 1333.93 202.66 1332.07 202.929C1331.54 203.112 1330.96 203.125 1330.55 203.65C1330.38 203.711 1330.26 203.943 1330.32 204.114C1330.38 204.284 1330.56 204.223 1330.67 203.991C1331.14 203.637 1331.84 203.393 1332.42 203.38C1334.23 202.94 1335.74 202.219 1337.25 201.499C1337.78 201.315 1338.3 201.132 1338.83 201.522C1337.9 202.23 1337.09 202.707 1335.98 202.903C1335.05 203.037 1334.35 203.282 1333.59 203.929C1332.31 204.759 1330.74 205.309 1329.23 206.03C1327.54 206.812 1325.79 207.997 1323.69 207.583C1323.28 207.534 1322.93 207.656 1322.58 207.779C1324.33 207.168 1326.08 206.557 1327.71 205.604C1327.88 205.543 1328.29 205.591 1328.17 205.25C1328.05 204.908 1327.7 205.03 1327.53 205.091C1327.35 205.152 1327.18 205.214 1327.18 205.214C1325.14 206.118 1323.22 206.79 1321.06 207.352C1320.89 207.413 1320.36 207.597 1320.36 207.597C1320.19 208.231 1319.61 208.244 1319.26 208.366C1318.91 208.488 1318.56 208.611 1318.21 208.733C1317.57 209.148 1316.99 209.161 1316.69 208.306C1317.33 207.891 1318.09 207.818 1318.73 207.402C1317.97 207.476 1317.15 207.952 1316.34 207.855ZM1265.78 216.911C1267 217.057 1267.52 216.3 1267.81 215.434C1267.87 215.031 1268.16 214.738 1268.45 214.445C1268.56 214.213 1268.68 213.981 1269.21 214.371C1269.79 214.932 1270.38 214.92 1270.96 214.334C1271.25 214.041 1271.71 213.686 1272 213.393C1273.11 212.624 1273.34 212.734 1273.41 214.052C1273.47 214.796 1273.59 215.711 1274.01 216.334C1274.36 216.785 1274.71 217.236 1273.66 217.029C1273.43 216.92 1273.31 217.152 1273.02 217.445C1272.44 218.031 1271.68 218.678 1271.34 219.374C1270.7 220.362 1269.77 220.497 1268.84 220.632C1267.84 220.596 1267.78 219.851 1267.43 219.4C1267.07 218.375 1266.89 217.289 1265.78 216.911ZM1276.44 222.764C1276.5 222.934 1276.62 223.276 1276.44 223.337C1276.1 224.033 1274.23 224.302 1273.64 223.741C1273.35 223.461 1272.88 223.241 1272.47 223.193C1271.65 223.096 1270.78 223.401 1270.02 223.475C1269.09 223.609 1268.33 223.109 1267.8 222.719C1267.56 222.609 1268.32 221.962 1268.32 221.389C1268.37 220.986 1268.49 220.754 1269.07 220.742C1270.41 220.655 1271.52 219.886 1272.09 218.726C1272.32 218.263 1272.96 217.847 1273.37 217.322C1273.66 217.029 1274.07 217.078 1274.48 217.127C1274.89 217.175 1274.66 217.639 1274.72 217.81C1274.9 218.896 1275.02 219.811 1275.38 220.836C1275.5 221.178 1275.27 221.642 1275.73 221.861C1276.2 222.08 1276.15 222.483 1276.44 222.764ZM1266.8 211.956C1265.58 212.957 1264.12 212.702 1262.83 212.959C1262.66 213.02 1262.48 213.081 1262.19 212.8C1261.95 212.117 1261.31 211.959 1260.66 211.8C1260.2 211.581 1259.55 211.423 1260.07 210.666C1260.36 210.373 1260.19 209.86 1259.95 209.751C1259.6 209.299 1259.95 209.177 1260.24 208.884C1261.58 208.224 1263.56 208.296 1264.68 209.248C1265.5 209.919 1266.61 210.296 1266.5 211.675C1266.5 211.675 1266.74 211.785 1266.8 211.956ZM1276.56 223.679C1276.8 224.362 1277.15 224.814 1277.33 225.326C1277.51 225.838 1277.57 226.583 1277.75 227.095C1277.99 227.779 1277.58 227.73 1277.17 227.681C1276.53 227.523 1276.18 227.645 1275.77 228.17C1275.66 228.402 1275.54 228.634 1275.43 228.866C1275.2 229.33 1274.73 229.684 1274.27 230.038C1273.74 230.222 1273.74 229.648 1273.45 229.367C1273.21 229.258 1272.92 228.977 1272.68 228.867C1272.16 228.477 1272.04 228.136 1272.21 227.501C1272.61 226.402 1272.78 225.194 1272.42 223.596C1273.88 224.425 1275.29 225.083 1276.56 223.679ZM1262.86 207.967C1264.43 207.417 1266.06 207.038 1267.52 206.72C1267.87 206.598 1268.11 206.708 1268.34 206.817C1269.28 207.256 1269.4 208.172 1270.05 208.903C1270.4 209.355 1270.87 210.148 1269.88 210.685C1269.71 210.746 1269.65 211.149 1269.48 211.21C1269.07 211.735 1269.31 212.418 1268.9 212.943C1268.79 212.602 1268.44 212.724 1268.2 212.614C1267.67 212.224 1266.8 211.956 1266.91 211.15C1266.79 210.235 1266.61 209.723 1265.55 209.516C1265.38 209.577 1265.32 209.406 1265.26 209.235C1264.61 208.503 1263.85 208.003 1262.86 207.967ZM1271.91 236.227C1271.39 236.41 1270.98 236.361 1270.57 236.313C1269.58 236.277 1268.65 236.411 1268.13 237.168C1267.49 238.157 1267.32 239.365 1266.45 240.244C1266.45 240.244 1266.34 240.476 1266.4 240.647C1266.52 240.989 1266.57 241.16 1266.05 241.343C1265.7 241.465 1265.41 241.185 1265.35 241.014C1264.99 240.562 1264.82 240.05 1264.4 239.428C1263.99 238.806 1263.58 238.183 1264.57 237.646C1264.74 237.585 1264.86 237.353 1264.97 237.121C1265.55 236.535 1265.6 235.559 1266.65 235.192C1267.53 234.886 1268.28 234.239 1269.33 234.446C1269.57 234.556 1269.68 234.324 1269.86 234.263C1270.26 233.738 1270.56 234.018 1270.68 234.36C1270.91 235.043 1271.15 235.727 1271.91 236.227ZM1281.25 235.453C1281.19 234.709 1280.48 234.38 1280.31 233.867C1279.95 232.842 1278.25 231.903 1277.02 231.758C1276.26 231.831 1275.74 231.441 1275.5 230.758C1275.26 230.074 1275.6 228.805 1276.18 228.219C1276.47 227.926 1278.22 227.888 1278.52 228.169C1279.22 229.072 1280.16 230.084 1280.87 230.987C1281.93 232.341 1282.23 233.769 1281.25 235.453ZM1267.16 241.147C1267.04 240.806 1266.92 240.464 1267.27 240.342C1267.85 239.756 1268.14 238.889 1268.42 238.022C1268.59 237.388 1269.06 237.034 1269.76 236.789C1270.63 236.484 1271.39 236.984 1272.27 236.678C1272.27 236.678 1272.5 236.788 1272.56 236.959C1272.51 237.361 1272.8 237.642 1272.92 237.984C1273.22 238.838 1272.75 239.765 1271.88 240.071C1270.31 240.621 1268.67 240.426 1267.16 241.147ZM1262.63 227.018C1262.1 226.627 1261.75 226.176 1261.28 225.956C1260.4 225.115 1259.57 223.87 1257.82 223.908C1257.65 223.969 1257.41 223.859 1257.01 223.811C1258.05 222.871 1258.86 221.821 1259.67 220.771C1259.96 220.478 1260.02 220.075 1260.49 220.294C1260.95 220.514 1261.54 220.501 1261.43 221.307C1261.31 222.112 1261.14 222.747 1261.79 223.479C1262.2 224.101 1262.85 224.833 1262.56 225.7C1262.62 225.87 1262.57 226.273 1262.63 227.018ZM1268.92 233.824C1268.22 234.068 1267.58 234.484 1266.88 234.728C1266.18 234.973 1265.55 235.388 1265.2 236.084C1264.97 236.547 1264.56 237.072 1264.27 237.365C1264.16 237.597 1263.87 237.89 1263.63 237.781C1263.4 237.671 1263.11 237.39 1263.22 237.159C1263.1 236.817 1263.57 236.463 1262.75 236.366C1262.17 236.378 1262.15 234.084 1262.79 233.668C1263.72 232.96 1264.89 232.935 1265.88 232.398C1266.23 232.276 1266.34 232.617 1266.75 232.666C1267.52 233.166 1267.93 233.788 1268.92 233.824ZM1266.62 212.591C1267.26 212.175 1267.44 212.688 1267.91 212.907C1268.85 213.346 1268.91 213.517 1268.21 214.335C1268.1 214.567 1267.92 214.628 1267.81 214.86C1267.35 215.788 1267 216.483 1265.66 216.57C1264.9 216.643 1264.43 216.424 1264.08 215.972C1263.72 215.521 1263.72 214.947 1263.08 214.789C1262.61 214.57 1262.38 214.46 1262.61 213.996C1262.6 213.423 1263.01 213.471 1263.42 213.52C1264.47 213.153 1265.7 213.299 1266.62 212.591ZM1269.15 232.787C1268.91 231.53 1268.66 230.273 1269.24 229.113C1269.36 228.881 1269.41 228.479 1269.82 228.527C1270.99 228.502 1272.1 228.306 1273.04 229.319C1273.68 230.051 1273.86 230.563 1273.16 230.808C1272 231.406 1271.01 231.944 1270.2 232.994C1269.91 233.287 1269.27 233.128 1269.15 232.787ZM1255.73 216.208C1256.2 216.428 1256.61 216.476 1257.08 216.696C1257.31 216.806 1257.72 216.854 1257.66 217.257C1257.56 218.636 1258.49 219.075 1259.49 219.685C1259.72 219.794 1259.96 219.904 1259.67 220.197C1259.03 221.186 1258.22 222.236 1257.29 222.944C1256.52 220.723 1255.98 218.612 1255.73 216.208ZM1257.71 224.14C1258.59 224.408 1259.52 224.273 1259.93 224.895C1260.4 225.688 1261.4 226.298 1261.99 226.859C1262.28 227.14 1262.52 227.249 1262.63 227.591C1262.93 227.872 1262.87 228.274 1262.29 228.287C1261.76 228.47 1261.01 228.544 1260.6 229.069C1260.2 229.594 1259.9 229.313 1259.78 228.972C1259.49 228.117 1259.13 227.092 1258.83 226.238C1258.42 225.616 1257.83 225.055 1257.71 224.14ZM1269.8 207.647C1271.33 208.646 1272.27 210.232 1272.81 211.77C1272.87 211.941 1273.16 212.221 1272.64 212.405C1271.76 212.71 1271.18 213.296 1270.6 213.882C1270.31 214.175 1269.96 214.298 1269.5 214.078C1269.03 213.859 1268.91 213.517 1269.14 213.053C1269.25 212.821 1269.31 212.418 1269.42 212.187C1269.66 211.723 1269.59 210.978 1270.29 210.734C1270.93 210.319 1270.81 209.977 1270.63 209.464C1270.57 208.72 1270.22 208.269 1269.8 207.647ZM1258.32 209.556C1258.72 209.605 1259.13 209.08 1259.42 209.36C1259.72 209.641 1259.84 209.982 1259.78 210.385C1259.72 210.788 1259.61 211.02 1259.32 211.313C1258.21 212.082 1257.11 212.852 1256.01 213.621C1255.83 213.682 1255.72 213.914 1255.6 213.573C1255.42 213.06 1255.07 212.609 1255.12 212.206C1255.12 211.632 1255.4 210.766 1256.28 210.46C1256.8 210.277 1257.5 210.032 1258.32 209.556ZM1288.38 199.619C1288.6 198.582 1288.83 197.544 1288.47 196.52C1288.24 195.836 1288.23 195.263 1287.99 194.579C1287.93 194.409 1287.88 194.238 1288.05 194.177C1288.4 194.054 1289.16 194.554 1289.46 194.835C1289.99 195.799 1289.64 197.068 1289.65 198.215C1289.83 198.728 1289.72 199.533 1288.38 199.619ZM1213.47 235.585C1214.11 235.743 1214.35 235.853 1214.47 236.195C1214.77 238.196 1214.14 240.332 1214.1 242.455C1214.04 242.858 1213.63 242.809 1213.46 242.87C1213.11 242.993 1213.16 242.59 1213.28 242.358C1213.39 241.553 1213.5 240.747 1213.61 239.942C1213.72 238.562 1214.76 237.049 1213.47 235.585ZM1217.37 251.277C1216.02 250.216 1215.07 249.203 1214.31 248.13C1214.25 247.959 1213.72 247.569 1214.25 247.385C1214.77 247.202 1215.18 246.677 1215.65 247.47C1216.06 248.666 1216.66 249.801 1217.37 251.277ZM1211.6 244.861L1211.54 244.69C1212.18 244.275 1213.12 244.14 1213.76 243.725C1213.93 243.664 1213.93 243.664 1213.99 243.834C1214.17 244.347 1214.41 245.03 1214.35 245.433C1214.29 245.836 1213.65 245.677 1213.3 245.799C1212.95 245.922 1212.6 246.044 1212.02 246.056C1211.84 246.118 1211.38 246.472 1211.38 245.898C1211.26 245.556 1211.61 245.434 1211.9 245.141C1212.42 244.958 1212.94 244.775 1213.47 244.591C1213 244.372 1212.65 244.494 1212.48 244.555C1212.36 244.787 1212.01 244.909 1211.6 244.861ZM1322.29 208.072C1320.72 208.622 1319.27 209.513 1317.57 209.722C1319.2 208.769 1320.83 208.39 1322.29 208.072ZM1280.57 229.559C1278.57 227.766 1278.1 226.973 1278.15 225.423C1279.32 226.545 1279.57 228.376 1280.57 229.559ZM1214.76 246.055C1214.07 246.873 1213.37 247.117 1212.44 247.252C1212.26 247.313 1212.09 247.374 1212.03 247.204C1211.91 246.862 1212.32 246.911 1212.49 246.849C1213.07 246.263 1213.83 246.19 1214.76 246.055ZM1333.71 204.271C1334.64 203.562 1335.69 203.196 1336.8 203C1335.93 203.879 1334.7 203.733 1333.71 204.271ZM1255.37 214.61C1255.66 214.89 1256.13 215.11 1256.08 215.513C1256.08 215.513 1255.96 215.745 1255.73 215.635C1255.26 215.415 1255.49 214.952 1255.37 214.61ZM1210.57 265.534C1210.62 265.132 1210.8 265.07 1211.09 264.777C1210.97 265.009 1211.09 265.351 1210.57 265.534Z" fill="#040404"/>
<path d="M1210.89 265.736C1211.48 265.724 1211.36 265.38 1211.41 264.976C1211.24 265.037 1210.95 265.331 1210.89 265.736Z" fill="#040404"/>
<path d="M1302.51 197.681C1302.62 197.447 1302.56 197.275 1302.68 197.041C1302.68 197.041 1302.68 197.041 1302.44 196.93C1302.56 197.275 1302.45 197.509 1302.51 197.681Z" fill="#040404"/>
<path d="M1302.79 196.807L1302.68 197.04C1302.68 197.04 1302.68 197.04 1302.91 197.151C1302.68 197.04 1302.85 196.979 1302.79 196.807Z" fill="#040404"/>
<path d="M1272.11 207.337L1271.93 207.398C1271.93 207.398 1271.99 207.57 1272.11 207.337C1272.17 207.508 1271.99 207.57 1272.11 207.337Z" fill="#040404"/>
<path d="M1211.86 264.037C1211.86 264.037 1211.69 264.098 1211.86 264.037C1211.92 264.207 1211.86 264.037 1211.86 264.037Z" fill="#040404"/>
<path d="M1211.22 234.265C1211.22 234.265 1211.28 234.437 1211.22 234.265C1211.39 234.204 1211.22 234.265 1211.22 234.265C1211.22 234.265 1211.16 234.093 1211.22 234.265Z" fill="#040404"/>
<path d="M1236.76 232.869C1235.87 231.448 1235.45 229.671 1234.74 228.188C1234.5 227.502 1233.79 227.171 1233.26 226.779C1231.43 224.917 1229.14 224.562 1226.45 225.887C1224.93 226.611 1223.41 227.335 1222.07 228.574C1221.49 229.162 1221.55 229.91 1221.15 230.437C1221.03 230.67 1221.27 230.781 1221.44 230.719C1222.26 230.241 1223.2 230.106 1223.48 229.235C1223.72 228.769 1224.07 228.646 1224.42 228.524C1225.88 227.628 1227.34 226.733 1229.04 227.1C1230.51 227.356 1232.33 227.49 1233.45 228.446C1234.57 229.402 1234.99 230.603 1235.47 231.975C1235.7 232.085 1236.06 232.539 1236.76 232.869Z" fill="#040404"/>
<path d="M1231.49 234.225C1232.03 235.781 1232.75 237.275 1233.47 238.769C1234.19 240.264 1235.2 241.461 1236.68 242.301C1237.46 242.807 1237.82 243.844 1237.94 244.77C1238.18 245.462 1238.6 246.092 1238.08 246.857C1237.96 247.092 1238.14 247.03 1238.2 247.203C1238.37 247.141 1238.55 247.079 1238.49 246.907C1238.72 245.857 1238.95 244.807 1238.76 243.708C1238.4 242.091 1237.33 241.301 1236.02 240.399C1234.77 239.671 1234.47 238.226 1233.69 237.14C1233.21 236.337 1232.91 235.473 1232.43 234.67C1232.37 234.497 1232.08 234.213 1231.49 234.225Z" fill="#040404"/>
<path d="M1232.33 249.824C1232.27 249.653 1232.03 249.542 1231.86 249.604C1230.8 249.972 1229.92 249.703 1228.93 249.666C1227.7 249.52 1226.58 249.717 1225.52 248.933C1225.29 248.823 1224.88 248.774 1224.53 248.897C1223.18 248.983 1222.24 248.543 1221.06 247.992C1220.36 247.662 1219.65 247.331 1219.12 246.94C1218.89 246.829 1218.71 246.891 1218.54 246.952C1218.42 247.185 1218.48 247.356 1218.72 247.467C1219.78 248.25 1220.54 249.327 1221.72 249.878C1222.49 250.38 1223.48 250.416 1224.42 250.281C1226.41 249.778 1228.52 250.193 1230.51 250.266C1230.92 250.315 1231.51 250.302 1231.92 250.351C1232.27 250.228 1232.39 249.995 1232.33 249.824Z" fill="#040404"/>
<path d="M1226.56 242.3C1226.56 241.722 1226.15 241.673 1225.67 241.452C1224.49 240.899 1223.84 240.161 1223.66 239.066C1223.18 237.689 1222 237.135 1220.46 236.705C1220.23 236.595 1219.81 236.546 1219.64 236.607C1218.81 236.509 1218.28 236.116 1217.86 235.489C1217.8 235.316 1217.57 235.206 1217.45 235.44C1217.28 235.501 1217.34 235.673 1217.57 235.784C1218.4 237.038 1219.47 237.825 1220.83 238.317C1222.18 238.808 1222.78 239.952 1223.67 240.8C1224.61 241.243 1225.15 242.215 1226.56 242.3Z" fill="#040404"/>
<path d="M1219.26 227.588C1218.8 227.944 1218.04 228.594 1217.63 229.122C1216.58 230.643 1215.95 232.213 1215.37 233.955C1215.43 234.126 1215.08 234.249 1215.32 234.359C1215.55 234.47 1215.67 234.237 1215.78 234.004C1216.72 233.292 1216.95 232.249 1217.41 231.317C1218.11 229.919 1218.86 228.692 1219.85 227.576C1220.03 227.514 1219.97 227.343 1219.91 227.171C1219.79 227.404 1219.56 227.294 1219.26 227.588Z" fill="#040404"/>
<path d="M1228.31 238.401C1228.25 238.228 1228.19 238.056 1227.89 237.773C1226.94 236.75 1226.28 235.431 1225.69 234.285C1225.09 233.14 1224.85 233.029 1223.55 233.288C1223.38 233.349 1223.14 233.239 1223.2 233.411L1223.32 233.756C1224.92 234.36 1225.4 235.74 1226.23 236.997C1226.65 237.625 1227.25 238.192 1227.9 238.931C1227.96 239.103 1228.14 239.042 1228.14 239.042C1228.37 238.573 1228.31 238.401 1228.31 238.401Z" fill="#040404"/>
<path d="M1240.78 243.409C1240.91 244.336 1241.56 245.077 1241.51 246.065C1241.46 246.473 1241.46 247.053 1240.99 247.412C1240.81 247.473 1240.69 247.708 1240.93 247.819C1241.17 247.93 1241.29 247.696 1241.29 247.696C1241.81 246.93 1241.99 246.287 1241.68 245.423C1241.38 243.397 1240.36 241.618 1239.99 239.419C1239.93 239.246 1240.04 239.011 1239.63 238.962C1239.27 239.085 1239.4 239.431 1239.46 239.604C1240.12 240.926 1240.36 242.198 1240.78 243.409Z" fill="#040404"/>
<path d="M1230.83 252.312C1230.24 251.75 1229.78 252.105 1229.25 252.289C1226.51 252.865 1223.82 253.037 1221.24 251.828C1221.18 252.232 1221.42 252.342 1221.65 252.452C1223.53 253.331 1225.81 253.11 1227.91 252.95C1229.02 252.754 1229.9 252.447 1230.83 252.312Z" fill="#040404"/>
<path d="M1234.71 246.103C1233.87 244.845 1233.21 243.525 1231.85 242.453C1231.38 242.231 1231.02 241.775 1230.66 241.318C1230.6 241.146 1230.54 240.973 1230.42 241.207C1230.25 241.269 1230.31 241.442 1230.37 241.614C1230.66 241.898 1230.96 242.182 1231.26 242.465C1232.56 243.365 1233.4 244.623 1234.23 245.881C1234.35 246.226 1234.47 246.572 1234.36 246.806C1234.24 247.04 1234.06 247.102 1234.3 247.213C1234.54 247.324 1234.66 247.09 1234.77 246.855C1234.95 246.794 1234.83 246.448 1234.71 246.103Z" fill="#040404"/>
<path d="M1225.95 229.534C1225.77 229.596 1225.83 229.767 1225.83 229.767C1225.89 229.939 1225.89 229.939 1226.07 229.877C1226.24 229.816 1226.3 229.988 1226.48 229.926C1228.47 229.423 1230.06 230.598 1231.64 231.198C1231.88 231.308 1231.88 231.308 1232.11 231.418C1232.35 231.529 1232.41 231.7 1232.7 231.406C1232.82 231.173 1232.58 231.063 1232.4 231.124C1231.23 230.573 1230.05 230.023 1228.7 229.533C1227.88 229.435 1226.83 229.804 1225.95 229.534Z" fill="#040404"/>
<path d="M1217.47 239.313C1216.77 240.716 1217.13 241.75 1218.43 242.648C1219.26 243.325 1220.56 243.645 1221.5 244.087C1221.74 244.198 1221.92 244.137 1221.86 243.964C1221.97 243.73 1221.8 243.792 1221.56 243.681C1220.85 243.349 1220.14 243.017 1219.43 242.685C1218.19 241.959 1217.3 241.11 1217.59 239.658C1217.76 239.596 1217.53 239.485 1217.47 239.313Z" fill="#040404"/>
<path d="M1239.14 238.126C1238.95 237.03 1237.95 236.414 1237.29 235.675C1237 235.392 1236.7 235.109 1236.4 234.825C1236.34 234.653 1236.17 234.715 1235.99 234.776C1235.81 234.838 1235.87 235.01 1236.05 234.949C1237.29 235.675 1238.07 236.759 1238.84 237.843C1238.79 238.25 1238.96 238.188 1239.14 238.126Z" fill="#040404"/>
<path d="M1238.68 251.343C1238.62 251.172 1238.62 251.172 1238.44 251.233C1237.33 251.429 1236.16 250.879 1235.11 251.247C1234.94 251.308 1234.7 251.198 1234.76 251.369C1234.65 251.602 1235.06 251.65 1235.23 251.589C1236.34 251.393 1237.39 251.6 1238.39 251.636C1238.56 251.575 1238.8 251.685 1238.68 251.343Z" fill="#040404"/>
<path d="M1285.76 216.933C1286.11 216.81 1286.05 216.638 1285.99 216.465C1286.27 213.856 1286.61 211.42 1287.89 208.847C1288.12 208.379 1288.11 207.801 1288.11 207.223C1288.17 206.817 1287.81 206.361 1288.4 205.77C1288.69 205.475 1288.28 205.426 1288.04 205.315C1287.8 205.205 1287.63 205.266 1287.51 205.5C1287.34 206.14 1286.99 206.841 1286.88 207.654C1286.59 209.106 1285.95 210.681 1285.91 212.244C1285.97 213.573 1285.45 214.915 1285.52 216.244C1285.58 216.416 1285.46 216.65 1285.76 216.933Z" fill="#040404"/>
<path d="M1291.46 233.083C1289.19 229.409 1287.62 225.487 1286.64 221.552C1285.76 223.024 1289.56 232.192 1291.46 233.083Z" fill="#040404"/>
<path d="M1280.95 218.668C1280.96 219.831 1281.5 220.808 1281.69 221.909C1281.87 223.01 1282.41 223.987 1282.42 225.149C1282.48 225.323 1282.54 225.496 1282.6 225.669C1282.9 225.953 1282.9 226.535 1283.26 226.411C1283.79 226.226 1283.25 225.83 1283.13 225.483C1283 223.393 1282.1 221.377 1281.43 219.472C1281.49 219.064 1281.54 218.656 1280.95 218.668Z" fill="#040404"/>
<path d="M1292.28 233.798C1292.05 234.267 1292.17 234.613 1292.41 234.724C1293.06 235.465 1293.6 236.441 1294.08 237.243C1294.44 237.7 1294.62 238.219 1294.45 238.861C1294.33 239.096 1294.57 239.207 1294.74 239.145C1294.92 239.084 1295.1 239.022 1295.21 238.787C1295.15 238.614 1295.09 238.441 1295.03 238.268C1294.55 236.885 1293.95 235.737 1292.82 234.773C1292.7 234.427 1292.58 234.082 1292.28 233.798Z" fill="#040404"/>
<path d="M1281.56 206.39C1280.97 206.402 1280.74 206.87 1280.51 207.338C1279.87 208.913 1280 210.415 1280.12 211.916C1280.18 212.088 1280.25 212.26 1280.42 212.199C1280.6 212.137 1280.71 211.903 1280.65 211.731C1280.71 211.325 1280.65 211.153 1280.53 210.808C1280.64 209.418 1280.69 207.855 1281.56 206.39Z" fill="#040404"/>
<path d="M1286.94 235.255C1286.93 233.512 1286.38 231.955 1285.48 230.521C1285.42 230.347 1285.19 230.236 1284.89 230.533C1284.78 230.768 1284.95 230.706 1285.01 230.879C1285.67 231.621 1286.03 232.659 1286.22 233.759C1286.4 234.279 1286.58 234.798 1286.94 235.255Z" fill="#040404"/>
<path d="M1255.3 239.135C1254.59 239.381 1253.84 240.608 1254.25 241.234C1254.55 242.093 1255.85 242.412 1256.9 242.043C1257.78 241.736 1258.01 241.269 1257.41 239.551C1257.11 238.693 1256.53 238.705 1255.3 239.135Z" fill="#040404"/>
<path d="M1209.57 234.983C1209.57 234.983 1209.33 234.872 1209.27 234.7C1206.39 233.204 1203.38 231.364 1200.61 229.634C1199.9 229.303 1199.02 229.033 1198.43 228.469C1198.37 228.297 1198.01 228.42 1197.9 228.653C1197.55 229.353 1197.03 230.114 1197.15 231.035C1197.09 231.44 1197.57 231.661 1197.98 231.71C1201.39 233.022 1204.81 234.334 1208.33 234.836C1208.57 234.946 1208.98 234.995 1209.22 235.106C1209.51 235.388 1209.69 235.326 1209.57 234.983Z" fill="#040404"/>
<path d="M1205.93 247.024C1203.19 247.599 1200.45 248.747 1197.48 248.639C1197.07 248.59 1196.95 248.822 1196.9 249.225C1196.96 249.969 1197.37 250.591 1197.78 251.213C1197.9 251.555 1198.31 251.604 1198.6 251.311C1199.77 250.712 1200.99 250.284 1201.98 249.747C1203.67 248.965 1205.24 248.415 1206.87 247.463C1207.22 247.34 1207.68 246.986 1208.03 246.864C1208.21 246.803 1208.5 246.51 1208.44 246.339C1208.38 246.168 1208.2 246.229 1207.85 246.352C1207.33 246.535 1206.63 246.779 1205.93 247.024Z" fill="#040404"/>
<path d="M1196.36 237.138C1196.54 237.652 1196.89 237.53 1197.3 237.578C1199.3 237.651 1201.35 237.895 1203.35 237.968C1204.58 238.114 1205.87 237.856 1206.93 238.64C1207.16 238.75 1207.28 238.518 1207.39 238.285C1207.51 238.052 1207.39 237.709 1206.98 237.66C1205.69 237.342 1204.57 236.962 1203.34 236.816C1201.22 236.4 1199.11 235.984 1197.46 234.637C1197.17 234.355 1196.75 234.306 1196.7 234.711C1196.59 235.52 1196.47 236.329 1196.13 237.027C1196.48 236.905 1196.54 237.076 1196.36 237.138Z" fill="#040404"/>
<path d="M1195.91 241.964C1196.03 242.307 1196.15 242.649 1196.5 242.527C1196.91 242.576 1197.14 242.686 1197.49 242.563C1200.47 242.097 1203.34 241.863 1206.44 241.739C1206.61 241.678 1206.79 241.616 1206.96 241.555C1207.31 241.433 1207.49 241.371 1207.55 240.968C1207.43 240.625 1207.08 240.748 1206.9 240.809C1205.38 240.957 1203.98 240.872 1202.51 240.616C1201.05 240.359 1199.76 240.042 1198.29 239.786C1196.36 239.31 1196.18 239.371 1196.02 241.157C1196.02 241.732 1195.91 241.964 1195.91 241.964Z" fill="#040404"/>
<path d="M1211.18 253.598C1210.54 254.014 1209.72 254.492 1209.14 255.079C1207.28 256.498 1205.18 257.808 1203.02 258.947C1202.67 259.069 1202.15 259.253 1202.15 259.828C1202.39 260.512 1202.74 260.965 1203.45 261.294C1203.92 261.514 1204.21 261.221 1204.5 260.927C1205.37 260.046 1206.36 258.933 1207.23 258.052C1208.51 256.645 1209.9 255.58 1211.42 254.283C1211.53 254.05 1211.88 253.928 1211.76 253.586C1211.47 253.304 1211.35 253.537 1211.18 253.598Z" fill="#040404"/>
<path d="M1206.58 251.685C1204.66 252.357 1203.03 253.31 1201.05 253.812C1199.24 254.252 1199.3 254.423 1199.84 255.961C1200.19 256.986 1200.43 257.096 1201.3 256.217C1203.1 254.629 1205.31 253.663 1207.4 252.356C1207.87 252.002 1208.39 251.818 1208.86 251.464C1209.03 251.403 1209.38 251.28 1209.09 251C1208.97 250.658 1208.62 250.78 1208.45 250.841C1207.98 251.196 1207.28 251.44 1206.58 251.685Z" fill="#040404"/>
<path d="M1208.84 242.489C1208.25 242.501 1207.5 242.575 1206.74 242.648C1205.04 242.857 1203.18 243.126 1201.49 243.335C1201.31 243.396 1201.08 243.286 1201.02 243.689C1201.08 243.86 1201.26 243.798 1201.49 243.908C1203.88 243.455 1206.33 243.173 1208.67 243.123C1208.84 243.062 1209.02 243.001 1209.19 242.94C1209.37 242.879 1209.66 242.586 1209.42 242.476C1209.24 241.964 1209.19 242.367 1208.84 242.489Z" fill="#040404"/>
<path d="M1203.41 257.235C1204.81 256.171 1206.27 255.278 1207.49 254.275C1207.66 254.214 1207.78 253.981 1207.54 253.872C1207.48 253.701 1207.31 253.762 1207.19 253.994C1205.91 254.826 1204.81 255.596 1203.59 256.599C1203.47 256.831 1203.3 256.893 1203.41 257.235Z" fill="#040404"/>
<path d="M1217.71 255.001C1217.12 255.013 1217.07 255.418 1216.95 255.651C1216.43 256.989 1215.79 257.983 1215.21 259.149C1215.1 259.383 1214.92 259.444 1215.16 259.554C1215.39 259.665 1215.33 259.493 1215.51 259.431C1216.38 257.971 1217.07 256.572 1217.71 255.001Z" fill="#040404"/>
<path d="M1205.44 250.698C1206.48 250.332 1207.59 250.136 1208.46 249.831C1208.64 249.77 1208.99 249.648 1208.87 249.307C1208.81 249.136 1208.46 249.258 1208.28 249.319C1207.24 249.685 1206.13 249.881 1205.38 250.527C1205.38 250.527 1205.38 250.527 1205.44 250.698Z" fill="#040404"/>
<path d="M1211.12 251.259C1210.13 251.797 1209.2 252.506 1208.27 253.215C1208.15 253.448 1207.8 253.57 1207.92 253.912C1208.21 254.193 1208.27 253.79 1208.38 253.558C1209.14 252.909 1210.31 252.31 1211.06 251.662C1211.24 251.601 1211.65 251.65 1211.53 251.307C1211.64 251.075 1211.29 251.198 1211.12 251.259Z" fill="#040404"/>
<path d="M1202.18 230.24C1203.71 231.246 1205.48 231.785 1206.89 232.447C1207.13 232.557 1207.13 232.557 1207.3 232.496C1207.42 232.263 1207.18 232.152 1207.01 232.214C1206.06 231.772 1205.12 231.331 1204.24 231.061C1203.77 230.841 1203.12 230.681 1202.76 230.227C1202.7 230.056 1202.47 229.945 1202.18 230.24Z" fill="#040404"/>
<path d="M1200.94 245.658C1200.77 245.719 1200.59 245.78 1200.48 246.012L1200.36 246.244C1200.42 246.415 1200.6 246.354 1200.6 246.354C1201.64 245.987 1202.93 245.73 1204.1 245.705C1204.27 245.644 1204.44 245.583 1204.39 245.412C1204.33 245.241 1204.15 245.303 1204.15 245.303C1202.98 245.328 1202.05 245.462 1200.94 245.658Z" fill="#040404"/>
<path d="M1210.14 259.166C1210.96 258.112 1211.77 257.057 1212.76 255.942C1212.76 255.942 1212.88 255.709 1212.64 255.599C1212.58 255.427 1212.41 255.488 1212.29 255.721C1211.48 256.776 1210.43 257.72 1209.85 258.885C1210.08 258.995 1210.14 259.166 1210.14 259.166Z" fill="#040404"/>
<path d="M1210.08 239.911C1208.91 239.362 1207.45 239.68 1206.28 239.705C1207.45 240.255 1208.73 239.997 1210.08 239.911Z" fill="#040404"/>
<path d="M1199.9 233.755C1199.84 234.16 1200.25 234.209 1200.25 234.209C1201.14 234.478 1201.96 234.576 1202.84 234.845C1203.07 234.955 1203.25 234.894 1203.19 234.722C1203.31 234.489 1203.25 234.318 1203.01 234.207C1202.01 234.171 1200.96 233.963 1199.9 233.755Z" fill="#040404"/>
<path d="M1208.59 257.986C1207.89 258.807 1206.9 259.347 1206.43 260.278C1206.43 260.278 1206.49 260.45 1206.55 260.621C1206.55 260.621 1206.79 260.731 1206.73 260.56C1207.43 259.738 1208.36 259.027 1208.59 257.986Z" fill="#040404"/>
<path d="M1212.83 263.491C1213.59 262.84 1213.88 261.969 1214.4 261.208C1214.4 261.208 1214.52 260.975 1214.28 260.865C1214.04 260.755 1214.1 260.926 1213.93 260.988C1213.47 261.92 1213.12 262.62 1212.83 263.491Z" fill="#040404"/>
<path d="M1206.13 263.308C1206.43 263.589 1206.6 263.528 1206.72 263.295C1206.95 262.83 1207.24 262.535 1207.53 262.241C1207.71 262.18 1207.65 262.008 1207.59 261.837C1207.35 261.727 1207.41 261.898 1207.24 261.96C1206.95 262.254 1206.71 262.719 1206.42 263.014C1206.25 263.075 1206.31 263.246 1206.13 263.308Z" fill="#040404"/>
<path d="M1200.19 259.153C1200.25 259.324 1200.48 259.434 1200.6 259.201C1201.24 258.785 1201.71 258.43 1202.05 257.733C1201.41 258.149 1200.77 258.565 1200.19 259.153Z" fill="#040404"/>
<path d="M1184.3 256.137C1185.69 255.65 1186.91 255.224 1188.13 254.797C1189.29 254.201 1190.8 254.054 1191.96 253.458C1192.14 253.397 1192.48 253.275 1192.42 253.105C1192.37 252.934 1192.02 253.056 1191.84 253.117C1189.34 253.799 1186.97 254.822 1184.35 255.736C1184.35 255.736 1184.18 255.797 1184.3 256.137Z" fill="#040404"/>
<path d="M1181.32 255.431C1179.93 255.918 1178.25 256.698 1176.68 257.246C1176.5 257.307 1176.15 257.429 1176.21 257.6C1176.33 257.94 1176.45 257.709 1176.8 257.587C1178.83 256.685 1180.92 255.954 1183.01 255.223C1183.19 255.162 1183.36 255.101 1183.53 255.04C1183.71 254.979 1184.06 254.857 1184 254.687C1183.88 254.346 1183.59 254.638 1183.36 254.529C1182.72 254.943 1182.2 255.126 1181.32 255.431Z" fill="#040404"/>
<path d="M1180.18 257.191C1178.38 257.63 1176.87 258.349 1175.13 258.958C1174.96 259.019 1174.78 259.08 1175.01 259.189C1175.07 259.36 1175.25 259.299 1175.42 259.238C1176.64 258.811 1177.86 258.385 1179.08 257.958C1179.61 257.776 1179.95 257.654 1180.18 257.191Z" fill="#040404"/>
<path d="M1166.25 262.059C1167.07 262.156 1167.94 261.852 1168.64 261.608C1169.86 261.182 1171.08 260.755 1172.3 260.329C1172.47 260.268 1172.65 260.207 1172.82 260.146C1172.99 260.085 1173.17 260.024 1173.11 259.854C1173.05 259.683 1172.88 259.744 1172.7 259.805C1171.48 260.232 1170.26 260.658 1169.1 261.255C1168.58 261.438 1167.88 261.681 1167.3 261.694C1166.89 261.645 1166.48 261.597 1166.25 262.059Z" fill="#040404"/>
<path d="M1173.09 258.697C1173.73 258.855 1174.37 258.44 1175.13 258.367C1175.3 258.306 1175.48 258.245 1175.42 258.074C1175.36 257.903 1175.18 257.964 1175.12 257.793C1174.36 257.867 1173.72 258.282 1173.09 258.697Z" fill="#040404"/>
<path d="M1213.83 251.264C1214.01 251.202 1214.42 251.251 1214.3 250.907C1214.12 250.391 1214.35 249.923 1214.35 249.345C1213.77 249.936 1213.65 250.169 1213.83 251.264Z" fill="#040404"/>
<path d="M1211.2 241.485C1211.03 241.547 1211.09 241.718 1211.09 241.718C1211.2 242.062 1211.44 242.173 1211.68 242.283C1211.91 242.393 1212.21 242.676 1212.44 242.209C1212.56 241.976 1212.14 241.927 1211.91 241.816C1211.67 241.706 1211.44 241.596 1211.38 241.424C1211.44 241.596 1211.38 241.424 1211.2 241.485Z" fill="#040404"/>
<path d="M1213.23 248.372C1212.76 248.729 1212.59 249.368 1212.77 249.885C1213.24 249.528 1213.23 248.95 1213.23 248.372Z" fill="#040404"/>
</g>
<g opacity="0.1">
<path d="M27.7612 269.358C21.2091 270.113 14.657 268.352 7.8529 267.346C5.83686 267.094 4.32484 265.333 2.56081 264.075C-0.71524 261.56 -0.715241 261.057 1.8048 257.535C3.31682 255.774 4.07284 253.762 5.08085 251.498C5.83687 249.485 7.34889 247.976 8.60891 246.466C10.3729 243.951 11.885 241.435 13.649 238.92C16.925 234.14 20.2011 229.612 23.2251 224.581C24.9892 221.562 27.2572 218.543 30.0293 216.028C30.5333 215.525 31.0373 214.77 31.2893 214.267C32.2973 212.506 33.5573 210.745 35.0693 209.487C36.8334 207.978 37.5894 205.714 38.8494 203.953C42.1255 199.677 43.3855 194.394 46.1575 189.866C47.1655 188.356 47.9215 186.847 48.9296 185.086C49.6856 183.577 50.4416 182.319 50.1896 180.558C49.9376 179.552 51.1976 178.797 52.4576 179.049C53.7176 179.3 54.7257 180.307 55.7337 181.061C59.2617 183.325 63.0418 185.086 65.5618 188.608C67.8299 191.878 70.0979 195.148 72.3659 198.419C75.894 203.953 78.666 209.99 79.9261 216.783C81.4381 223.323 80.9341 230.115 79.4221 236.404C78.666 238.92 77.91 241.687 76.146 243.699C75.894 244.454 75.642 244.705 75.642 245.209C72.3659 252.252 67.0739 257.535 60.7738 262.063C54.7257 266.591 47.9215 268.352 40.6134 269.107C36.3294 269.358 32.2973 269.61 27.7612 269.358ZM60.0177 187.853C60.0177 188.105 60.2697 188.608 60.5217 188.356C61.0258 188.105 60.5217 187.853 60.0177 187.853C60.0177 187.35 59.7657 187.099 59.5137 187.35C59.7657 187.602 60.0177 187.853 60.0177 187.853ZM40.6134 207.726C43.3855 205.211 45.6535 202.444 46.9135 198.922C47.6695 196.909 49.1816 195.148 50.4416 193.388C50.9456 192.381 52.2056 191.878 53.2136 191.124C53.9696 190.62 54.4736 190.62 55.4817 191.124C58.0017 192.381 59.5137 194.645 60.0177 197.413C60.5217 200.431 61.5298 202.695 63.0418 205.211C64.0498 206.972 63.2938 208.733 62.2858 210.494C61.2778 211.751 60.0177 211.751 58.7577 211.248C55.7337 210.242 52.4576 210.997 49.4336 211.5C46.9135 212.003 44.6455 212.506 42.1255 212.254C40.6134 212.003 39.6054 211.751 39.6054 210.242C36.8334 212.506 34.5653 215.022 33.0533 218.04C33.0533 218.292 32.8013 218.292 32.5493 218.543C29.7773 220.807 27.7612 223.575 26.2492 226.593C23.2251 231.876 19.6971 236.404 16.421 241.435C15.161 243.196 14.405 245.209 12.893 246.97C9.86893 250.743 7.34889 254.516 5.58486 258.793C11.633 261.057 17.6811 260.805 23.9812 261.057C27.0052 261.057 30.2813 261.057 33.3053 260.554C37.0854 260.051 40.6134 259.296 43.8895 257.787C48.9296 255.774 53.2136 253.007 57.2457 249.234C57.7497 248.73 58.0017 248.479 58.5057 247.976C61.0258 245.209 62.5378 241.687 64.8058 238.92C67.0739 236.153 67.8299 232.631 68.8379 229.36C69.8459 225.587 68.8379 221.562 68.8379 217.537C69.0899 214.267 68.0819 211.5 66.8218 208.481C65.5618 205.462 64.0498 202.192 63.0418 198.922C61.0258 193.388 57.7497 188.86 53.2136 184.583C51.7016 188.105 49.6856 190.872 48.1735 193.891C45.6535 198.419 43.6375 203.198 40.6134 207.726C40.3614 207.726 40.6134 207.475 40.6134 207.726C40.6134 207.726 40.6134 207.978 40.6134 207.726ZM3.31682 260.554C3.31682 261.308 4.07284 261.56 4.32484 261.811C6.34087 263.824 8.86091 264.579 11.885 264.83C16.169 265.333 20.2011 266.088 24.4852 266.088C31.0373 266.34 37.8414 266.339 44.3935 265.082C49.4336 264.075 54.4736 262.566 58.7577 259.296C61.7818 257.032 64.3018 254.516 66.8218 252.001C70.6019 248.227 72.6179 243.699 75.138 239.171C76.902 236.152 76.902 232.379 77.658 229.109C78.162 226.845 78.414 224.329 77.91 222.065C77.658 220.807 77.406 219.298 77.154 217.789C76.902 214.77 75.894 212.003 74.886 209.236C73.122 205.211 70.8539 201.186 68.3339 197.413C66.5698 195.148 65.0578 192.633 63.5458 190.369C62.7898 189.363 62.0338 188.356 60.7738 187.853C60.7738 188.608 61.0258 188.86 61.2778 189.111C63.2938 192.381 65.3098 195.652 66.3178 199.425C66.8218 201.186 67.8299 202.947 68.5859 204.708C70.0979 208.23 71.8619 211.751 71.6099 215.525C71.6099 217.034 71.3579 218.543 71.6099 220.053C72.6179 225.084 71.3579 229.864 69.5939 234.643C68.5859 237.662 66.0658 239.674 64.8058 242.441C62.5378 246.97 59.0097 250.491 55.2297 253.51C51.7016 256.277 47.1655 258.541 42.8815 260.051C34.5653 262.818 25.9972 263.321 17.177 262.566C12.389 263.069 7.8529 262.566 3.31682 260.554ZM44.1415 208.984C45.9055 208.984 47.6695 208.23 49.1816 207.978C52.2056 207.475 54.9777 207.223 58.0017 207.978C58.5057 208.23 59.5137 208.733 60.0177 207.726C60.7737 206.72 60.2697 206.217 59.7657 205.462C58.5057 203.45 57.2457 201.186 56.9937 198.67C56.9937 197.161 56.2377 195.903 55.4817 194.645C54.9777 193.891 54.2216 193.388 53.4656 194.394C51.9536 195.903 50.9456 197.664 49.9376 199.677C48.4255 202.695 47.1655 205.714 44.6455 207.978C44.1415 208.23 43.8895 208.481 44.1415 208.984Z" fill="#070707"/>
<path d="M60.0178 187.853C59.7658 187.602 59.7658 187.602 59.5138 187.35C60.0178 187.099 60.2698 187.35 60.0178 187.853C60.2698 187.853 60.2698 187.853 60.0178 187.853Z" fill="#FCFCFC"/>
<path d="M60.2697 187.602C60.5217 187.853 61.0257 187.853 60.5217 188.356C60.5217 188.608 60.2697 188.105 60.2697 187.602C60.2697 187.853 60.2697 187.853 60.2697 187.602Z" fill="#FCFCFC"/>
<path d="M40.6135 207.726C40.6135 207.726 40.6135 207.978 40.6135 207.726C40.3615 207.726 40.6135 207.475 40.6135 207.726C40.6135 207.475 40.6135 207.475 40.6135 207.726Z" fill="#FCFCFC"/>
<path d="M50.1897 214.015C52.2057 213.764 54.4737 214.267 56.7418 213.261C56.9938 213.009 57.4978 213.009 57.7498 213.261C60.0178 215.022 63.0419 215.273 64.3019 218.292C65.5619 220.807 66.0659 223.323 65.3099 226.342C64.8059 228.857 64.0499 231.121 62.0338 232.882C58.5058 235.901 56.2377 239.674 54.2217 243.699C53.2137 245.712 50.6937 246.215 48.6776 246.466C45.6536 246.718 43.3855 245.46 41.8735 242.693C40.8655 240.681 38.8495 239.423 36.8334 238.668C34.0614 237.41 31.7934 235.649 30.0293 233.134C29.5253 232.379 29.0213 231.624 27.7613 231.624C26.5013 231.624 26.2493 230.115 27.0053 229.36C28.0133 228.354 28.5173 227.096 29.7773 226.593C30.2813 226.342 30.5333 225.839 30.5333 225.335C31.0373 223.323 32.5494 221.814 33.0534 219.801C33.3054 219.298 33.5574 218.795 34.0614 218.543C35.8254 217.789 37.3374 216.279 39.3535 216.279C41.6215 216.279 43.3855 214.77 45.6536 214.518C47.1656 214.267 48.4256 214.015 50.1897 214.015ZM63.0419 223.575C62.7899 221.311 62.0338 219.047 59.5138 217.537C58.0018 216.783 56.4898 216.279 54.9777 216.783C53.9697 217.034 52.9617 216.783 51.9537 216.783C50.1897 216.783 48.6776 216.783 46.9136 217.034C44.6456 217.286 42.8815 218.795 40.6135 218.795C37.8415 218.795 35.8254 220.304 34.8174 223.071C34.3134 224.581 33.5574 226.342 32.8014 227.851C31.5413 230.115 31.5413 230.115 32.8014 232.128C33.8094 233.637 35.0694 234.895 36.8334 235.649C40.1095 237.159 43.1335 238.92 44.8976 242.441C45.6536 243.699 47.1656 243.951 48.4256 243.699C49.9376 243.448 51.4497 243.196 52.2057 241.687C53.7177 238.165 55.7337 234.643 58.7578 232.379C61.5298 229.864 62.2858 226.845 63.0419 223.575Z" fill="#070707"/>
<path d="M27.5091 256.529C27.0051 256.529 26.7531 256.529 26.2491 256.529C24.2331 256.277 22.2171 256.026 20.453 257.535C19.697 258.29 18.437 258.038 17.429 257.535C15.917 256.78 14.4049 256.78 13.1449 255.522C12.6409 255.019 12.1369 254.516 12.1369 254.013C11.8849 250.743 11.6329 247.473 14.4049 244.957C17.429 242.441 19.445 239.171 21.209 235.649C22.9731 232.631 25.2411 233.134 27.5091 234.643C30.2812 236.656 33.3052 238.416 36.5813 239.926C39.8573 241.687 41.8734 245.963 40.8654 249.485C40.3614 251.246 38.3453 252.755 36.5813 252.755C35.0693 252.755 33.5572 252.755 32.8012 254.516C32.2972 255.271 31.5412 255.774 30.5332 255.774C29.7772 256.529 28.5172 256.529 27.5091 256.529ZM27.7611 253.761C28.5172 253.51 30.0292 254.516 30.7852 253.258C32.0452 250.994 34.0612 250.743 36.3293 250.743C37.5893 250.743 38.0933 249.988 38.3453 248.982C38.8493 246.215 37.3373 243.699 34.5653 242.441C33.3052 241.938 32.2972 241.435 31.0372 240.68C29.2732 239.423 27.5091 238.668 25.7451 237.41C24.9891 236.907 24.4851 236.907 23.7291 237.662C22.9731 238.668 22.7211 239.926 21.965 240.932C20.453 243.699 17.933 245.46 16.169 247.976C15.4129 248.982 14.6569 250.24 14.1529 251.497C13.9009 252.504 13.9009 253.761 15.1609 254.013C16.925 254.516 18.437 256.277 20.201 254.516C21.209 253.51 22.2171 253.007 23.4771 253.51C24.9891 253.761 26.2491 253.761 27.7611 253.761Z" fill="#070707"/>
</g>
</svg>
