<svg width="1582" height="1306" viewBox="0 0 1582 1306" fill="none" xmlns="http://www.w3.org/2000/svg">
<g opacity="0.1">
<path d="M164.932 91.5223C167.248 94.2636 165.46 96.6906 163.387 98.3265C161.44 99.6944 159.459 99.7349 157.461 99.1118L157.193 98.9845C154.694 99.434 153.448 97.202 152.219 95.6335C151.257 94.1924 149.777 93.1603 148.422 91.8601C148.422 91.8601 148.155 91.7328 147.887 91.6054C147.102 91.8871 145.906 91.646 145.263 92.3231C145.689 93.5096 146.509 94.5552 147.454 95.3326C148.399 96.1101 148.825 97.2965 149.645 98.3422C150.197 99.2604 149.195 101.406 148.033 102.492C146.103 104.523 143.854 104.437 141.338 104.222C140.41 104.109 138.964 104.404 138.161 104.022C137.894 103.895 137.359 103.64 137.091 103.513C135.594 101.817 133.705 100.262 132.458 98.0299C132.174 97.2389 131.639 96.9842 131.087 96.066C130.393 94.7522 129.59 94.3702 128.554 95.1882C127.517 96.0062 126.464 96.1606 125.269 95.9194C126.623 97.2197 127.727 99.0563 129.082 100.357C130.437 101.657 131.006 103.239 131.449 105.089C131.876 106.275 131.107 107.221 129.803 107.911C126.928 109.165 123.894 109.36 120.734 109.823C119.288 110.118 118.201 108.945 116.989 108.041C116.721 107.913 116.044 107.263 115.241 106.881C114.439 106.499 114.029 105.976 113.745 105.185C112.356 102.558 110.057 100.48 109.186 97.4437C108.167 98.9253 107.114 99.0797 105.776 98.4431C105.241 98.1884 104.438 97.8064 104.063 98.6109C103.812 99.1472 104.615 99.5292 104.757 99.9247C106.663 102.143 108.445 104.63 110.351 106.849C110.761 107.371 111.029 107.499 111.438 108.021C112.793 109.322 112.844 111.313 111.557 112.667C108.59 115.516 104.787 116.657 100.541 115.947C99.6128 115.833 99.3283 115.042 98.7933 114.787C97.1711 113.36 95.2814 111.805 93.6593 110.377C91.2345 108.568 90.2389 105.799 88.4575 103.313C87.9055 102.394 87.7464 101.335 87.1943 100.417C87.0521 100.021 87.0521 100.021 86.517 99.7668C83.7164 98.7617 81.952 96.9386 80.4382 94.5792C78.6569 92.0925 76.3574 90.0148 74.1833 87.6689C72.2936 86.114 70.922 84.1501 69.6758 81.9181C67.8945 79.4313 65.8625 77.481 64.474 74.8534C63.2278 72.6213 62.2491 70.5166 61.3957 68.1437C60.9689 66.9573 60.5422 65.7708 59.9902 64.8525C58.3511 62.7613 57.3724 60.6566 57.3047 58.002C57.1116 55.6156 55.7401 53.6517 54.2432 51.9559C52.6041 49.8647 50.5722 47.9143 48.9331 45.8231C48.3811 44.9048 47.4532 44.791 46.9012 43.8727C44.4426 40.7359 44.4832 37.1495 45.577 33.4088C45.9529 32.6043 46.3288 31.7998 46.4371 30.868C46.5455 29.9362 47.1889 29.259 48.0999 28.7092C49.8135 28.5413 51.3679 27.3143 53.2067 26.8783C55.8313 26.1606 58.3644 27.0384 61.0228 27.648C63.6812 28.2576 66.4819 29.2626 68.9066 31.0722C70.119 31.977 71.8495 32.4727 73.5631 32.3049C75.937 32.1235 78.1687 31.5466 80.4174 31.6334C83.0589 31.5794 85.575 31.7935 88.2334 32.4031C90.3568 32.758 91.8536 34.4538 93.4758 35.8813C94.8304 37.1816 96.4187 37.2819 98.1492 37.7777C98.6843 38.0323 99.0771 37.8915 99.1855 36.9597C99.1685 36.296 99.6866 35.887 100.364 36.5372C100.631 36.6645 100.631 36.6645 100.899 36.7918C102.863 36.0876 104.987 36.4426 106.825 36.0066C108.004 35.584 109.074 36.0933 110.144 36.6026C111.482 37.2393 112.82 37.8759 114.157 38.5125C115.102 39.2899 116.03 39.4037 116.816 39.1221C118.136 39.095 119.457 39.068 120.636 38.6455C123.653 37.787 126.294 37.7329 129.112 39.4016C130.985 40.2929 133.108 40.6479 135.072 39.9437C138.09 39.0851 140.623 39.9629 142.512 41.5178C145.205 43.4547 147.772 45.6597 149.821 48.2737C151.192 50.2376 152.957 52.0607 154.972 53.3475C157.129 55.0297 158.768 57.1209 160.407 59.2121C162.866 62.349 165.324 65.4858 168.176 68.4818C168.585 69.0046 168.853 69.132 168.87 69.7956C169.74 72.8321 172.04 74.9099 174.214 77.2557C175.711 78.9515 176.547 80.6607 177.651 82.4973C177.793 82.8928 177.936 83.2883 178.203 83.4156C179.131 83.5294 178.881 84.0657 178.362 84.4747C178.237 84.7429 178.112 85.011 178.112 85.011C178.647 85.2657 178.898 84.7294 179.165 84.8567C179.558 84.7159 179.951 84.575 179.968 85.2387C180.11 85.6341 179.592 86.0431 179.324 85.9158C178.522 85.5338 178.539 86.1975 178.413 86.4657C176.859 87.6926 177.929 88.2019 178.749 89.2475C180.245 90.9433 181.742 92.639 183.114 94.6029C184.076 96.044 183.842 97.244 182.145 98.0755C180.181 98.7797 178.217 99.4839 176.236 99.5244C174.522 99.6923 172.917 98.9283 172.081 97.2191C171.244 95.5098 169.764 94.4777 168.535 92.9093C167.431 91.0727 166.361 90.5634 164.932 91.5223ZM116.623 88.5269C115.837 88.8085 115.461 89.613 114.943 90.022C115.729 89.7403 116.372 89.0632 116.623 88.5269C116.891 88.6542 117.016 88.386 117.141 88.1179C116.874 87.9905 116.748 88.2587 116.623 88.5269ZM155.825 81.616C154.772 81.7703 154.271 82.8429 153.36 83.3928C154.162 83.7747 154.43 83.9021 154.806 83.0976C155.056 82.5613 155.575 82.1523 155.825 81.616C156.218 81.4751 156.093 81.7433 155.825 81.616C155.95 81.3478 155.95 81.3478 155.825 81.616ZM174.007 84.6966C174.935 84.8104 175.22 85.6014 175.897 86.2515C176.039 86.647 176.574 86.9017 176.825 86.3654C177.343 85.9564 177.201 85.5609 176.541 85.5744C176.273 85.4471 176.005 85.3197 176.398 85.1789C177.292 83.9654 176.222 83.4561 176.205 82.7925C175.294 83.3423 174.509 83.624 174.007 84.6966C173.865 84.3012 173.865 84.3012 174.007 84.6966C173.74 84.5693 173.74 84.5693 174.007 84.6966ZM98.3327 112.274L98.6002 112.401C98.3327 112.274 98.458 112.005 98.3327 112.274C99.9785 109.451 102.193 108.211 105.228 108.016C106.548 107.989 107.727 107.566 109.19 107.935C107.551 105.843 106.037 103.484 104.005 101.534C103.185 100.488 102.366 99.4424 101.797 97.8605C101.245 96.9422 98.5527 95.0053 97.767 95.287C95.8028 95.9912 93.6795 95.6362 91.8406 96.0723C91.4478 96.2131 91.0549 96.3539 90.5368 96.7629C88.3559 99.3307 88.3559 99.3307 89.8866 102.354L90.0289 102.749C91.2582 104.318 91.7018 106.168 92.9311 107.736C94.8208 109.291 96.3177 110.987 98.3327 112.274ZM136.688 46.2849C136.955 46.4122 136.955 46.4122 136.688 46.2849C136.938 45.7486 137.189 45.2123 137.172 44.5486C137.155 43.885 137.406 43.3487 137.941 43.6033C138.476 43.858 138.35 44.1261 138.1 44.6624C137.866 45.8624 137.758 46.7942 137.524 47.9942C137.274 48.5305 137.809 48.7851 138.202 48.6443C138.469 48.7716 138.594 48.5035 138.452 48.108C138.577 47.8398 138.577 47.8398 138.703 47.5717C138.953 47.0353 138.527 45.8489 139.597 46.3582C140.399 46.7402 139.631 47.6855 139.505 47.9536C138.879 49.2944 139.163 50.0854 140.376 50.9902C140.626 50.4539 140.484 50.0584 140.735 49.5221C140.592 49.1266 140.575 48.4629 141.503 48.5767C142.164 48.5632 141.788 49.3677 141.93 49.7632C141.571 51.2313 141.087 52.9676 142.96 53.8589C143.21 53.3225 143.319 52.3907 143.302 51.7271C143.427 51.4589 143.41 50.7953 143.945 51.0499C144.338 50.9091 144.355 51.5727 144.23 51.8409C144.104 52.1091 144.246 52.5045 143.996 53.0409C143.119 54.918 143.295 56.6408 144.524 58.2092C144.758 57.0092 145.134 56.2047 145.367 55.0048C145.618 54.4684 145.618 54.4684 146.011 54.3276C146.671 54.3141 146.813 54.7096 146.563 55.2459C146.062 56.3185 146.363 57.7731 145.202 58.8593C145.076 59.1275 145.076 59.1275 145.076 59.1275C145.486 59.6503 145.645 60.7094 146.448 61.0914C146.607 62.1505 147.41 62.5325 148.354 63.3099C148.588 62.11 149.089 61.0373 149.323 59.8373C149.574 59.301 149.699 59.0329 149.966 59.1602C150.627 59.1467 150.376 59.683 150.251 59.9512C150.142 60.883 150.034 61.8148 149.533 62.8874C149.032 63.96 149.191 65.0192 150.136 65.7966C150.136 65.7966 150.01 66.0648 150.403 65.9239L150.529 65.6558C150.904 64.8513 151.138 63.6513 151.514 62.8469C151.639 62.5787 151.622 61.9151 152.157 62.1697C152.693 62.4244 152.567 62.6925 152.317 63.2288C151.941 64.0333 151.958 64.697 151.582 65.5014C151.331 66.0378 151.081 66.5741 151.098 67.2377C151.934 68.947 153.163 70.5154 154.267 72.352C154.359 70.7565 154.718 69.2884 155.344 67.9476C155.47 67.6794 155.453 67.0158 155.988 67.2704C156.523 67.5251 156.397 67.7933 156.147 68.3296C155.788 69.7977 155.554 70.9977 154.928 72.3385C154.552 73.1429 154.569 73.8066 154.995 74.993C155.605 72.9886 156.482 71.1115 157.234 69.5025C157.359 69.2344 157.075 68.4434 157.61 68.698C158.145 68.9527 158.287 69.3482 158.036 69.8845C157.285 71.4934 156.8 73.2297 156.049 74.8387C155.155 76.0522 155.832 76.7023 156.384 77.6206C156.526 78.0161 156.794 78.1434 157.187 78.0026L157.437 77.4662C157.921 75.7299 158.263 73.5982 158.748 71.8619C158.998 71.3256 159.374 70.5211 159.625 69.9848C159.75 69.7166 160.143 69.5758 160.41 69.7031C160.946 69.9578 160.553 70.0986 160.302 70.6349C160.051 71.1712 159.926 71.4394 159.676 71.9757C159.066 73.9802 158.724 76.1119 158.24 77.8482C157.989 78.3845 157.739 78.9208 157.881 79.3163C158.558 79.9665 158.717 81.0256 159.52 81.4076C160.322 81.7895 160.465 82.185 160.482 82.8487C160.874 82.7078 161 82.4397 161.125 82.1715C161.752 80.8307 162.111 79.3626 162.737 78.0218C162.988 77.4855 163.238 76.9491 164.041 77.3311C164.576 77.5857 164.058 77.9947 163.807 78.5311L163.682 78.7992C162.93 80.4082 162.856 82.6673 161.301 83.8943C161.301 83.8943 160.908 84.0351 161.176 84.1624C161.853 84.8125 161.352 85.8852 162.029 86.5353C162.707 87.1855 162.456 87.7218 161.545 88.2716C162.49 89.0491 163.401 88.4992 164.329 88.613C165.257 88.7268 165.775 88.3178 165.348 87.1314C165.223 87.3996 165.223 87.3996 165.223 87.3996C165.098 87.6677 164.579 88.0767 164.312 87.9494C164.044 87.8221 164.295 87.2857 164.42 87.0176C164.796 86.2131 165.565 85.2678 165.941 84.4633C166.066 84.1952 166.317 83.6588 166.852 83.9135C167.387 84.1681 167.404 84.8318 167.011 84.9726C166.886 85.2408 166.493 85.3816 166.903 85.9044C168.064 84.8183 169.226 83.7321 170.387 82.646C170.905 82.237 171.423 81.828 171.833 82.3508C172.653 83.3964 173.029 82.5919 173.279 82.0556C173.797 81.6466 174.316 81.2376 174.976 81.2241C173.337 79.1328 171.572 77.3098 169.933 75.2186C168.579 73.9183 168.528 71.9274 167.173 70.6271C164.447 67.3629 161.721 64.0988 159.12 60.5665C157.481 58.4752 155.574 56.2567 153.292 54.8426C151.812 53.8105 150.457 52.5102 149.353 50.6737C148.659 49.3599 147.572 48.187 146.234 47.5503C145.432 47.1684 144.612 46.1228 143.935 45.4726C141.351 42.6039 137.748 41.2169 134.229 43.1481C135.157 43.2619 135.049 44.1937 135.726 44.8438L135.851 44.5757C136.102 44.0393 136.352 43.503 136.888 43.7577C137.423 44.0123 136.904 44.4213 137.047 44.8168C136.654 44.9576 136.671 45.6213 136.688 46.2849ZM144.006 84.5138C144.165 85.5729 144.057 86.5047 144.216 87.5638L144.484 87.6911C145.486 85.5459 146.489 83.4006 147.491 81.2553C149.096 82.0192 147.132 82.7234 147.684 83.6417C148.47 83.36 148.846 82.5556 149.381 82.8102C149.916 83.0649 150.041 82.7967 150.434 82.6559C151.203 81.7105 152.239 80.8926 152.882 80.2154C153.275 80.0746 153.258 79.4109 153.793 79.6656C154.203 80.1884 153.685 80.5974 153.56 80.8655C152.916 81.5427 152.005 82.0925 151.236 83.0378L151.111 83.306L151.379 83.4333C151.914 83.688 152.164 83.1516 152.29 82.8835C153.058 81.9382 153.969 81.3883 154.613 80.7112C155.131 80.3022 155.917 80.0205 156.076 81.0796C155.95 81.3478 156.218 81.4751 156.343 81.207C156.469 80.9388 156.861 80.798 156.594 80.6706C156.326 80.5433 156.184 80.1478 156.184 80.1478C154.972 79.2431 154.152 78.1974 153.583 76.6155C152.605 74.5108 152.019 72.2652 150.647 70.3013C149.276 68.3374 148.297 66.2326 146.8 64.5369C144.626 62.191 143.112 59.8316 141.849 56.9359C141.28 55.354 140.318 53.9129 139.231 52.74C137.057 50.3941 135.15 48.1755 133.887 45.2798C133.443 43.4297 132.214 41.8613 129.965 41.7745C129.305 41.7881 128.895 41.2653 128.36 41.0106C127.29 40.5013 126.095 40.2602 125.041 40.4145C122.793 40.3277 120.703 41.3001 118.472 41.8769C121.289 43.5457 122.945 46.3005 124.601 49.0554C124.818 47.1918 125.445 45.851 126.339 44.6375C126.464 44.3694 126.714 43.833 127.25 44.0877C127.785 44.3423 127.534 44.8787 127.283 45.415C126.782 46.4876 126.281 47.5603 125.78 48.6329C124.886 49.8464 125.187 51.301 126.007 52.3466C126.559 53.2649 127.253 54.5787 128.073 55.6243C128.215 56.0198 128.767 56.938 129.285 56.529C129.678 56.3882 129.928 55.8519 129.911 55.1882C130.287 54.3838 130.788 53.3111 131.164 52.5066C131.29 52.2385 131.54 51.7022 132.075 51.9568C132.61 52.2115 132.092 52.6205 131.967 52.8886C131.716 53.4249 131.608 54.3567 131.357 54.8931C130.856 55.9657 130.355 57.0383 129.444 57.5882C129.854 58.111 130.264 58.6338 130.548 59.4247C130.924 58.6203 130.907 57.9566 131.158 57.4203C131.534 56.6158 131.767 55.4159 132.411 54.7387C132.536 54.4705 132.929 54.3297 133.196 54.457C133.464 54.5844 133.339 54.8525 133.213 55.1207C132.587 56.4615 131.96 57.8023 131.334 59.1431C131.083 59.6794 130.816 59.5521 130.155 59.5656C130.833 60.2157 130.992 61.2748 131.794 61.6568C132.688 60.4433 132.655 59.1161 133.281 57.7753C133.406 57.5071 133.389 56.8434 133.924 57.0981C134.46 57.3527 134.334 57.6209 134.351 58.2845C134.243 59.2163 134.009 60.4163 133.24 61.3616C132.472 62.3069 132.756 63.0979 133.701 63.8754C134.327 62.5346 134.686 61.0664 135.313 59.7256C135.438 59.4575 135.421 58.7938 135.956 59.0485C136.491 59.3031 136.366 59.5713 136.241 59.8395C135.865 60.6439 135.757 61.5757 135.381 62.3802C133.969 64.0027 134.537 65.5846 135.625 66.7576C135.892 66.8849 135.767 67.153 135.767 67.153C136.319 68.0713 136.603 68.8623 137.673 69.3716C138.385 71.349 139.363 73.4537 140.985 74.8813C141.805 75.9269 142.198 75.7861 143.092 74.5726C143.468 73.7682 143.844 72.9637 144.22 72.1592C144.345 71.891 144.863 71.482 145.131 71.6094C145.666 71.864 145.415 72.4003 145.29 72.6685C144.788 73.7411 144.287 74.8138 143.376 75.3636C141.947 76.3224 142.374 77.5089 142.926 78.4272C143.353 79.6136 143.512 80.6727 143.796 81.4637C143.83 82.791 143.722 83.7228 144.006 84.5138ZM100.584 45.1645C100.459 45.4327 100.459 45.4327 100.726 45.56C102.491 47.3831 103.344 49.756 104.59 51.988C105.837 54.2201 106.69 56.593 107.669 58.6977C108.096 59.8842 109.308 60.789 109.735 61.9754C110.713 64.0802 111.55 65.7894 112.921 67.7533C113.331 68.2761 113.741 68.7989 114.151 69.3217C115.807 72.0766 117.588 74.5633 119.637 77.1774C122.096 80.3142 125.215 83.4375 125.458 87.8149C125.601 88.2104 125.618 88.874 126.278 88.8605C126.938 88.847 126.688 89.3833 126.17 89.7923C125.259 90.3421 124.365 91.5556 123.454 92.1054C122.543 92.6553 123.488 93.4327 123.237 93.969C123.112 94.2372 123.789 94.8873 124.182 94.7465C125.77 94.8468 127.358 94.9471 128.645 93.5928C127.023 92.1652 127.023 92.1652 125.469 93.3922C125.343 93.6603 125.076 93.533 124.95 93.8012C124.558 93.942 124.432 94.2102 123.897 93.9555C123.488 93.4327 123.88 93.2919 124.273 93.151C125.452 92.7285 125.401 90.7376 126.847 90.4424C126.955 89.5106 127.331 88.7061 127.975 88.029C128.1 87.7608 128.225 87.4927 127.958 87.3653C127.423 87.1107 127.548 86.8425 127.673 86.5744C128.174 85.5017 128.676 84.4291 129.177 83.3564C129.302 83.0883 129.285 82.4246 129.82 82.6793C130.355 82.9339 130.105 83.4703 129.979 83.7384C129.603 84.5429 129.228 85.3474 128.994 86.5473C129.905 85.9975 130.423 85.5885 131.066 84.9114C131.459 84.7705 131.585 84.5024 132.12 84.757C132.529 85.2798 132.655 85.0116 133.048 84.8708C133.566 84.4618 134.209 83.7847 134.995 83.503C135.388 83.3622 135.906 82.9532 136.048 83.3486C136.725 83.9988 137.243 83.5898 137.762 83.1808C138.154 83.0399 138.547 82.8991 138.689 83.2946C138.832 83.6901 138.439 83.8309 138.314 84.0991C137.403 84.6489 136.492 85.1987 135.848 85.8759C136.383 86.1305 136.901 85.7215 137.027 85.4534C137.938 84.9035 138.581 84.2264 139.617 83.4084C140.01 83.2676 140.261 82.7312 140.796 82.9859C141.331 83.2405 140.545 83.5222 140.688 83.9177C141.08 83.7769 141.598 83.3679 141.991 83.227C142.384 83.0862 142.509 82.818 142.367 82.4225C142.066 80.9679 141.622 79.1178 141.321 77.6632C140.552 78.6085 139.892 78.6221 140.142 78.0857C140.501 76.6176 139.289 75.7128 138.737 74.7945C136.512 70.4577 134.036 66.6573 131.293 62.7295C129.905 60.1019 128.123 57.6152 126.342 55.1285C124.828 52.7691 123.565 49.8734 122.051 47.514C119.576 43.7135 116.599 40.9857 112.586 39.0758C110.178 37.9299 107.804 38.1113 105.163 38.1654C104.109 38.3197 103.324 38.6014 102.396 38.4876C101.075 38.5146 100.005 38.0053 98.8434 39.0914C98.7181 39.3596 98.1831 39.105 97.5227 39.1185C97.1299 39.2593 96.3273 38.8773 95.5247 38.4954C96.3442 39.541 96.6287 40.332 97.306 40.9821C98.2678 42.4232 99.2295 43.8643 100.584 45.1645ZM76.6245 38.3509C76.4992 38.6191 76.4992 38.6191 76.6245 38.3509C76.7668 38.7464 76.8921 38.4783 76.6245 38.3509C77.0004 37.5465 77.3763 36.742 77.7522 35.9375C77.8775 35.6693 78.2534 34.8649 78.7885 35.1195C79.3236 35.3742 79.073 35.9105 78.8224 36.4468C78.3212 37.5194 77.9622 38.9876 77.7286 40.1875C78.1045 39.383 78.3551 38.8467 78.7309 38.0422C78.8562 37.7741 79.2491 37.6332 79.5166 37.7606C79.7841 37.8879 79.6589 38.156 79.5336 38.4242C79.1577 39.2287 79.1746 39.8923 78.7987 40.6968C78.1722 42.0376 78.1722 42.0376 79.5099 42.6742C79.6013 41.0788 79.9603 39.6107 80.8543 38.3972C80.9796 38.129 81.1049 37.8609 81.3724 37.9882C81.64 38.1155 81.7822 38.511 81.6569 38.7792C81.4063 39.3155 81.0304 40.12 81.0473 40.7836C80.939 41.7154 80.4378 42.788 80.597 43.8472C80.7223 43.579 80.8476 43.3108 80.9729 43.0427C81.2235 42.5064 80.922 41.0518 81.8499 41.1656C82.6526 41.5475 81.8838 42.4929 81.7755 43.4247C81.6671 44.3565 81.3996 44.2291 82.3444 45.0066C82.3105 43.6793 83.3468 42.8613 83.5805 41.6613C83.8311 41.125 83.6888 40.7295 84.2239 40.9842C84.759 41.2388 84.9012 41.6343 84.6506 42.1706C84.1494 43.2433 83.7735 44.0478 83.5398 45.2477C83.164 46.0522 82.7881 46.8567 83.7329 47.6341C83.7329 47.6341 83.7329 47.6341 83.8751 48.0296L84.0004 47.7615C84.3763 46.957 84.3594 46.2933 84.7353 45.4889C84.8606 45.2207 84.9859 44.9525 85.521 45.2072C86.056 45.4618 85.6632 45.6027 85.8054 45.9981C85.4295 46.8026 85.4465 47.4663 85.0706 48.2707C84.6947 49.0752 84.8369 49.4707 85.2467 49.9935C85.6226 49.189 85.4634 48.1299 86.2321 47.1846C86.3574 46.9164 86.608 46.3801 87.1431 46.6348C87.6782 46.8894 87.4276 47.4257 87.3023 47.6939C86.8011 48.7665 86.835 50.0938 86.3338 51.1665C86.0832 51.7028 86.1001 52.3664 86.9027 52.7484C87.2786 51.9439 87.387 51.0121 87.7629 50.2076C87.8882 49.9395 88.0135 49.6713 88.4063 49.5305C89.0667 49.517 88.8161 50.0533 88.9583 50.4488C88.5824 51.2532 88.5994 51.9169 88.2235 52.7214C87.7223 53.794 87.4886 54.994 88.701 55.8987C89.2022 54.8261 89.3105 53.8943 89.8117 52.8217C89.937 52.5535 90.0623 52.2853 90.5974 52.54C90.8649 52.6673 91.0072 53.0628 90.8819 53.3309C90.6313 53.8673 90.2554 54.6717 90.2723 55.3354C89.9134 56.8035 89.6797 58.0035 90.3739 59.3173L90.6415 59.4446L90.7668 59.1764C91.0004 57.9765 91.1088 57.0446 91.61 55.972C91.7353 55.7038 91.593 55.3084 91.9859 55.1675C92.6463 55.154 92.7885 55.5495 92.5379 56.0858C92.4295 57.0176 92.0536 57.8221 92.0706 58.4857C92.2297 59.5449 91.0682 60.631 92.1553 61.804C92.03 62.0721 92.2975 62.1994 92.565 62.3268C92.9579 62.1859 92.6903 62.0586 92.5481 61.6631C92.5142 60.3358 92.6056 58.7404 93.2321 57.3996C93.4827 56.8633 93.7333 56.327 94.5359 56.7089C95.071 56.9636 94.5529 57.3726 94.3023 57.9089C93.5505 59.5178 93.3338 61.3815 93.7774 63.2315C94.1533 62.4271 94.4039 61.8907 94.5123 60.9589C94.6376 60.6908 94.8882 60.1545 95.4232 60.4091C95.9583 60.6638 95.5655 60.8046 95.7077 61.2001C95.4571 61.7364 95.5993 62.1319 95.3488 62.6682C94.9898 64.1363 93.9705 65.618 94.9322 67.0591C94.9322 67.0591 94.8069 67.3272 95.0745 67.4545L95.1998 67.1864C95.4334 65.9864 95.6671 64.7865 95.9008 63.5865C96.0261 63.3183 96.2767 62.782 96.937 62.7685C97.5974 62.755 96.954 63.4321 97.2215 63.5595C97.506 64.3504 97.1301 65.1549 96.7542 65.9594C96.6458 66.8912 96.1446 67.9638 96.6966 68.8821C96.8219 68.614 97.0725 68.0776 97.1978 67.8095C97.0556 67.414 97.1809 67.1458 97.4484 67.2732C97.716 67.4005 97.9835 67.5278 98.1257 67.9233C98.268 68.3188 98.1427 68.5869 98.0174 68.8551C97.7837 70.0551 97.1572 71.3959 97.7262 72.9778C97.7262 72.9778 97.7262 72.9778 97.6009 73.2459C97.6009 73.2459 97.6009 73.2459 97.7262 72.9778C97.7262 72.9778 97.7262 72.9778 97.4586 72.8505C97.9768 72.4415 97.8345 72.046 97.9598 71.7778C98.0682 70.846 98.1765 69.9142 98.82 69.2371C98.9453 68.9689 98.9283 68.3053 99.4634 68.5599C99.9985 68.8146 99.8732 69.0827 99.8901 69.7464C99.6565 70.9463 99.565 72.5418 99.3314 73.7417C99.223 74.6735 99.24 75.3372 99.6497 75.86C100.168 75.451 99.7581 74.9282 99.8834 74.66C100.009 74.3919 100.134 74.1237 100.402 74.251C100.669 74.3783 100.544 74.6465 100.686 75.042C100.578 75.9738 100.344 77.1738 100.236 78.1056C100.002 79.3055 100.286 80.0965 101.231 80.8739C101.323 79.2785 100.219 77.4419 101.898 75.9468C102.024 75.6786 102.007 75.015 102.809 75.3969C103.344 75.6516 103.094 76.1879 102.969 76.4561C102.074 77.6695 102.234 78.7287 102.268 80.0559C102.427 81.1151 102.586 82.1742 102.085 83.2468C101.959 83.515 102.102 83.9105 102.369 84.0378C102.87 82.9652 102.979 82.0334 103.212 80.8334C103.338 80.5652 103.195 80.1698 103.588 80.0289C103.856 80.1562 104.123 80.2836 104.266 80.6791C104.157 81.6109 104.442 82.4018 104.333 83.3336C103.707 84.6744 103.741 86.0017 104.435 87.3155C104.577 87.711 103.666 88.2608 104.736 88.7701C105.363 87.4293 105.989 86.0885 106.348 84.6204C106.599 84.084 106.85 83.5477 107.385 83.8024C108.045 83.7889 107.402 84.466 107.544 84.8615C107.469 87.1206 105.807 89.2794 106.927 91.7796C106.927 91.7796 106.802 92.0478 106.677 92.3159C106.552 92.5841 106.284 92.4568 106.016 92.3294C105.607 91.8066 104.804 91.4247 104.394 90.9019C103.324 90.3926 102.505 89.347 102.203 87.8923C101.475 85.2513 100.354 82.7511 99.1079 80.519C97.3097 77.3686 96.0295 73.8093 94.3566 70.3908C93.1103 68.1587 92.5075 65.2495 90.8684 63.1583C89.7813 61.9853 89.2124 60.4034 88.5181 59.0896C86.3101 55.4165 84.6202 51.3343 82.0193 47.802C81.6096 47.2792 81.1998 46.7564 80.9322 46.6291C79.7199 45.7243 78.5075 44.8195 77.8132 43.5057C76.4248 40.8782 74.3759 38.2642 72.5946 35.7774C71.3483 33.5454 70.2782 33.0361 69.208 32.5268C66.2482 30.4626 63.18 29.3302 59.5937 28.6068C57.2028 28.1245 54.8119 27.6423 52.2043 29.0236C51.2934 29.5734 50.5077 29.8551 49.5967 30.4049C47.6326 31.1091 47.2567 31.9136 47.1822 34.1727C47.7003 33.7637 47.6834 33.1001 48.2015 32.6911C48.0593 32.2956 48.5774 31.8866 48.7197 32.2821C48.8619 32.6775 48.7366 32.9457 48.6113 33.2139C47.7173 34.4273 47.0908 35.7681 46.4643 37.1089C45.8378 38.4497 46.1392 39.9043 46.4406 41.359C46.9418 40.2863 46.9249 39.6227 47.0332 38.6909C47.233 36.1636 48.5199 34.8093 50.4671 33.4415C50.8599 33.3006 50.9852 33.0325 51.395 33.5553C51.8048 34.0781 51.4119 34.2189 51.0191 34.3598C49.9828 35.1778 50.0167 36.5051 49.3902 37.8459C49.2649 38.114 49.2819 38.7777 49.1566 39.0458C48.4217 41.3184 48.3472 43.5775 50.1116 45.4006C50.1116 45.4006 50.2539 45.7961 50.3792 45.5279C50.3792 45.5279 50.3791 45.5279 50.2369 45.1324C49.9355 43.6778 50.0269 42.0824 50.3859 40.6142C50.7448 39.1461 50.9616 37.2825 52.3907 36.3237C52.7835 36.1828 53.0341 35.6465 53.4439 36.1693C53.5861 36.5648 53.4608 36.833 53.068 36.9738C51.1546 39.6689 50.8295 42.4643 51.6999 45.5009C51.8591 46.56 51.5915 46.4327 50.6636 46.3189C51.4662 46.7008 51.4832 47.3645 52.2858 47.7464C52.2688 47.0828 52.1266 46.6873 52.3772 46.151C52.4686 44.5556 52.56 42.9601 53.7216 41.874C53.8469 41.6058 54.2228 40.8013 54.6326 41.3241C55.1676 41.5788 54.6495 41.9878 54.3989 42.5241C53.5218 44.4012 53.3051 46.2648 53.6234 48.3831C54.3752 46.7741 54.8595 45.0378 55.3438 43.3015C55.4691 43.0334 55.7197 42.4971 55.9872 42.6244C56.5223 42.879 56.2717 43.4153 56.1464 43.6835C55.6621 45.4198 55.1778 47.1561 54.6936 48.8924C54.4599 50.0923 54.3516 51.0241 55.6892 51.6607C55.2287 49.147 55.9635 46.8744 56.4308 44.4745C56.6645 43.2745 57.4502 42.9928 58.3611 42.443C58.754 42.3022 59.1468 42.1613 59.289 42.5568C59.4313 42.9523 59.306 43.2205 58.9131 43.3613C58.395 43.7703 58.0022 43.9111 58.0191 44.5748C56.6578 48.1882 56.0821 51.5199 57.8973 55.3339C58.1479 54.7976 58.2732 54.5294 58.3985 54.2613C58.9911 51.5932 60.5286 49.7025 62.6011 48.0666C62.9939 47.9257 63.1192 47.6576 63.6543 47.9122C63.7965 48.3077 63.6712 48.5758 63.2784 48.7167C63.0278 49.253 62.635 49.3938 62.1168 49.8028C60.4371 51.298 59.56 53.1751 59.218 55.3069C59.1097 56.2387 58.8591 56.775 58.7507 57.7068C58.3748 58.5113 58.517 58.9068 59.1944 59.5569C59.3196 59.2887 59.3197 59.2887 59.4449 59.0206C59.8039 57.5524 60.5557 55.9435 61.1822 54.6027C61.4328 54.0664 61.8256 53.9255 62.0932 54.0529C62.6282 54.3075 62.3776 54.8438 62.2523 55.112C62.0017 55.6483 61.7511 56.1846 61.5005 56.7209C60.7487 58.3299 60.1223 59.6707 60.1731 61.6616C60.2984 61.3935 60.2984 61.3935 60.4237 61.1253C60.874 58.0617 63.3394 56.2849 65.0022 54.1261C65.1275 53.858 65.6456 53.449 65.7878 53.8445C66.3229 54.0991 65.8048 54.5081 65.6795 54.7763C65.1783 55.8489 64.4096 56.7942 63.3733 57.6122C61.0502 59.7845 61.2602 62.8346 61.2026 65.7573C61.5785 64.9528 61.6869 64.021 61.9375 63.4847C62.4217 61.7484 63.441 60.2668 64.1928 58.6578C64.4434 58.1215 64.9616 57.7125 65.4966 57.9671C66.2992 58.3491 65.3883 58.899 65.263 59.1671C63.4749 61.5941 62.757 64.5303 62.0391 67.4666C61.9138 67.7347 61.6632 68.271 62.073 68.7938C62.4489 67.9894 62.5572 67.0576 62.6656 66.1258C62.9907 63.3303 64.3859 61.0442 65.9233 59.1536C66.4415 58.7446 66.8174 57.9401 67.2271 58.4629C67.9044 59.1131 66.9935 59.6629 66.7429 60.1992C65.2054 62.0898 64.203 64.2351 63.7357 66.635C63.5021 67.835 64.071 69.4169 62.3744 70.2485L62.5166 70.6439C62.8011 71.4349 63.0856 72.2259 63.6376 73.1442C63.7629 72.876 63.7629 72.876 63.8882 72.6078C63.8204 69.9533 65.2156 67.6671 66.3433 65.2537C66.5939 64.7174 67.1121 64.3084 67.5049 64.1676C67.6302 63.8994 68.023 63.7586 68.1653 64.154C68.4328 64.2814 68.3075 64.5495 68.1822 64.8177C67.5388 65.4948 67.2882 66.0312 66.9123 66.8356C65.9099 68.9809 65.0328 70.858 64.6908 72.9898C64.7077 73.6534 64.4571 74.1898 64.7416 74.9807C66.1301 77.6083 68.5548 79.4178 69.9433 82.0454C70.3531 82.5682 70.37 83.2318 71.1726 83.6138C71.281 82.682 71.3894 81.7502 71.3724 81.0866C71.1963 79.3638 71.6806 77.6275 72.4324 76.0185C72.6829 75.4822 72.8082 75.2141 73.3433 75.4687C73.8784 75.7234 73.3603 76.1323 73.5025 76.5278C72.8929 78.5323 72.6762 80.3959 72.4595 82.2595C72.4764 82.9231 72.9031 84.1096 71.7246 84.5321C71.3318 84.6729 71.5993 84.8003 71.5993 84.8003C72.5611 86.2413 73.5229 87.6824 75.1281 88.4464C74.7928 85.6645 75.5277 83.3919 76.6554 80.9784C76.7807 80.7103 77.0313 80.174 77.5663 80.4286C77.8339 80.5559 77.9761 80.9514 77.7255 81.4877C77.4749 82.0241 77.2243 82.5604 76.9737 83.0967C76.0966 84.9738 76.0221 87.2329 76.3405 89.3512C76.4997 90.4103 77.9626 90.7787 78.5146 91.697C78.7822 91.8244 78.7822 91.8244 78.9244 92.2198C78.9244 92.2198 78.7991 92.488 79.192 92.3472L79.3173 92.079C78.8567 89.5653 79.1987 87.4335 80.3264 85.0201C80.577 84.4837 80.4178 83.4246 81.2204 83.8066C81.7555 84.0612 81.3796 84.8657 81.129 85.402C80.3941 87.6746 79.9268 90.0746 80.3874 92.5883C80.5296 92.9838 80.0115 93.3928 80.4213 93.9156C81.7928 95.8795 83.4319 97.9707 85.5722 98.9893C86.1073 99.2439 86.5001 99.1031 86.7507 98.5668C87.77 97.0852 89.0569 95.7308 90.3437 94.3765C91.1125 93.4312 92.0234 92.8814 93.0597 92.0634C93.4525 91.9226 93.8454 91.7817 93.9876 92.1772C94.3974 92.7 93.737 92.7135 93.6117 92.9817C92.826 93.2633 92.1826 93.9405 91.4139 94.8858C92.3418 94.9996 93.1275 94.718 93.6456 94.309C94.8072 93.2228 96.111 92.5321 97.1472 91.7141C97.5401 91.5733 98.0582 91.1643 98.2004 91.5598C98.3427 91.9553 98.3427 91.9553 98.7355 91.8144C99.1283 91.6736 99.3789 91.1373 99.914 91.3919C100.307 91.2511 100.574 91.3784 100.717 91.7739C100.859 92.1694 100.466 92.3102 100.073 92.4511C99.1453 92.3372 98.7694 93.1417 98.2512 93.5507C98.1259 93.8189 97.4656 93.8324 97.8753 94.3552C98.1429 94.4825 98.8202 95.1327 99.0708 94.5963C99.1961 94.3282 99.4467 93.7919 99.8395 93.651C100.483 92.9739 100.859 92.1694 101.645 91.8877C102.163 91.4787 102.43 91.606 102.84 92.1288C102.982 92.5243 103.124 92.9198 102.732 93.0607C101.143 92.9604 100.659 94.6966 99.6228 95.5146C100.693 96.0239 101.638 96.8014 102.315 97.4515C102.725 97.9743 103.118 97.8335 103.385 97.9608C104.974 98.0611 104.973 98.0611 106.386 96.4386C105.851 96.184 105.6 96.7203 105.082 97.1293C104.689 97.2701 104.438 97.8064 104.296 97.411C103.886 96.8882 104.279 96.7473 104.672 96.6065C105.19 96.1975 105.834 95.5203 105.549 94.7294C105.549 94.7294 105.674 94.4612 105.8 94.193C106.711 93.6432 106.819 92.7114 107.463 92.0343C108.231 91.0889 109 90.1436 110.036 89.3256C110.429 89.1848 110.947 88.7758 111.357 89.2986C111.767 89.8214 111.374 89.9622 110.856 90.3712C110.321 90.1166 109.552 91.0619 108.8 92.6709C109.586 92.3892 110.246 92.3757 110.622 91.5712C111.123 90.4986 111.892 89.5532 112.928 88.7353C113.446 88.3263 114.073 86.9855 115.16 88.1584C115.16 88.1584 115.553 88.0176 115.678 87.7494C116.071 87.6086 116.322 87.0722 116.714 86.9314C117.107 86.7906 117.358 86.2542 117.768 86.7771C118.303 87.0317 117.785 87.4407 117.659 87.7089C117.392 87.5815 117.266 87.8497 117.141 88.1179C117.283 88.5133 117.534 87.977 117.534 87.977C117.927 87.8362 118.445 87.4272 118.838 87.2863C119.231 87.1455 119.749 86.7365 119.891 87.132C120.301 87.6548 119.515 87.9365 119.122 88.0773C118.211 88.6272 117.175 89.4451 116.532 90.1223C117.869 90.7589 117.602 90.6316 118.638 89.8136C119.674 88.9956 120.836 87.9095 121.872 87.0915C122.265 86.9506 122.783 86.5416 122.925 86.9371C123.335 87.4599 122.549 87.7416 122.157 87.8824C120.853 88.5731 119.816 89.3911 119.048 90.3364C119.315 90.4637 119.583 90.5911 119.708 90.3229C121.012 89.6322 122.031 88.1506 123.21 87.7281L123.335 87.4599C122.908 86.2735 123.142 85.0735 122.322 84.0279C119.562 79.4364 115.766 75.663 113.006 71.0715C111.492 68.7122 109.46 66.7618 108.732 64.1207C108.448 63.3297 108.163 62.5388 107.486 61.8886C106.257 60.3202 105.42 58.611 104.584 56.9017C103.73 54.5288 102.626 52.6922 101.38 50.4602C99.5818 47.3098 97.6582 44.4276 95.4671 41.4181C93.276 38.4086 90.6921 35.5399 86.9635 34.421C83.8953 33.2886 80.4682 33.6244 77.2916 33.4238C75.8456 33.7189 75.3275 34.1279 75.5205 36.5144C75.4122 37.4462 76.2148 37.8281 76.6245 38.3509ZM129.986 104.72C129.434 103.802 129.275 102.743 128.598 102.093C126.833 100.27 125.194 98.1785 123.43 96.3554C121.933 94.6597 120.829 92.8231 118.171 92.2135C116.315 91.9859 114.852 91.6174 113.281 92.1808C111.709 92.7441 110.422 94.0985 108.709 94.2663C109.528 95.3119 110.348 96.3575 110.632 97.1485C111.628 99.9169 113.66 101.867 115.048 104.495C115.333 105.286 116.135 105.668 116.671 105.922C117.206 106.177 117.314 105.245 117.707 105.104C120.423 102.791 123.047 102.074 126.383 103.333C127.453 103.843 128.398 104.62 129.986 104.72ZM128.594 91.6018C129.397 91.9838 130.074 92.6339 130.877 93.0159C133.034 94.6981 134.155 97.1984 135.669 99.5577C135.811 99.9532 135.953 100.349 136.471 99.9397C139.597 98.1494 142.723 96.359 146.702 96.9416C146.292 96.4188 145.757 96.1642 145.615 95.7687C143.976 93.6774 143.122 91.3045 140.965 89.6223C138.398 87.4173 134.561 87.2302 131.561 88.7524C130.257 89.443 129.631 90.7838 128.594 91.6018ZM164.214 94.4585C163.929 93.6675 163.519 93.1447 163.11 92.6219C161.88 91.0535 160.793 89.8806 159.439 88.5803C158.352 87.4074 157.014 86.7708 155.676 86.1341C153.536 85.1155 151.287 85.0288 148.947 86.5374C147.518 87.4963 147.301 89.3599 148.656 90.6601C150.546 92.215 152.435 93.7699 153.807 95.7338C154.359 96.6521 155.019 96.6386 155.93 96.0888C158.646 93.7756 161.254 92.3943 164.214 94.4585ZM181.668 94.8981C181.258 94.3753 181.116 93.9798 180.581 93.7252C179.903 93.0751 179.226 92.4249 178.799 91.2385C178.373 90.052 177.804 88.4701 176.073 87.9743C175.806 87.847 175.538 87.7197 175.396 87.3242C173.364 85.3738 169.652 84.9186 167.312 86.4272C167.187 86.6954 166.919 86.568 167.062 86.9635C167.062 86.9635 167.079 87.6272 167.329 87.0909C167.455 86.8227 167.705 86.2864 167.597 87.2182C167.614 87.8818 167.631 88.5455 168.04 89.0683C168.735 90.382 169.947 91.2868 171.034 92.4598C171.711 93.1099 172.246 93.3645 173.157 92.8147C173.676 92.4057 174.603 92.5195 175.139 92.7742C177.279 93.7927 179.277 94.4159 181.668 94.8981ZM109.508 110.053C107.243 109.302 105.136 109.611 102.904 110.188C101.851 110.342 100.815 111.16 100.314 112.233C99.562 113.842 99.9718 114.365 101.435 114.733C104.754 115.329 107.236 114.216 109.826 112.171C111.381 110.944 111.113 110.817 109.508 110.053ZM137.433 101.381C137.86 102.567 138.663 102.949 139.716 102.795C141.304 102.895 142.625 102.868 143.945 102.841C145.659 102.673 146.821 101.587 147.84 100.105C148.216 99.301 147.948 99.1737 147.413 98.919C144.47 97.5185 141.737 99.168 139.255 100.281C138.469 100.563 138.361 101.495 137.433 101.381ZM129.109 106.597C127.772 105.961 126.969 105.579 126.166 105.197C123.759 104.051 121.385 104.232 119.187 106.137C118.794 106.277 118.276 106.686 118.686 107.209C118.828 107.605 119.238 108.127 119.898 108.114C122.807 108.187 125.699 107.597 129.109 106.597ZM157.143 96.9936C158.623 98.0257 161.389 97.7034 162.944 96.4765C163.462 96.0675 163.32 95.672 162.91 95.1492C161.037 94.2579 158.02 95.1164 157.143 96.9936ZM142.276 84.018C141.24 84.836 140.596 85.5131 139.56 86.3311C140.237 86.9813 141.04 87.3632 141.45 87.886C142.127 88.5362 142.52 88.3953 142.628 87.4635C142.736 86.5317 142.577 85.4726 142.276 84.018ZM178.525 96.0248C177.187 95.3882 175.724 95.0197 174.404 95.0468C174.011 95.1876 173.476 94.933 173.493 95.5966C173.367 95.8648 173.777 96.3876 174.045 96.5149C174.58 96.7695 175.115 97.0242 175.901 96.7425C176.419 96.3335 177.472 96.1792 178.525 96.0248ZM121.188 91.355C122.936 92.5144 123.42 90.7781 124.331 90.2283C124.724 90.0875 124.581 89.692 124.439 89.2965C124.297 88.901 123.904 89.0419 123.779 89.31C122.868 89.8598 122.099 90.8052 121.188 91.355ZM143.607 89.5683C144.46 91.9412 145.73 89.9232 146.658 90.037C145.838 88.9914 144.409 89.9502 143.607 89.5683ZM155.608 83.4796C156.269 83.466 156.428 84.5252 156.804 83.7207C157.055 83.1844 157.573 82.7754 157.698 82.5072C157.823 82.2391 158.216 82.0982 157.949 81.9709C157.806 81.5754 157.413 81.7163 157.288 81.9844C156.645 82.6616 156.127 83.0706 155.608 83.4796ZM157.088 84.5117C157.356 84.639 157.623 84.7663 157.891 84.8936C158.426 85.1483 158.677 84.612 158.927 84.0756C159.053 83.8075 158.91 83.412 158.643 83.2847C158.108 83.03 157.982 83.2982 157.857 83.5663C157.999 83.9618 157.607 84.1027 157.088 84.5117ZM140.169 84.3267C139.526 85.0038 138.615 85.5537 137.972 86.2308L138.239 86.3581C138.883 85.681 139.793 85.1312 140.169 84.3267ZM95.752 94.0003C97.0727 93.9732 97.4486 93.1688 97.8245 92.3643C97.1811 93.0414 96.663 93.4504 95.752 94.0003ZM98.3427 91.9553C98.3427 91.9553 98.2174 92.2234 98.3427 91.9553C98.2174 92.2234 98.2174 92.2234 98.2174 92.2234C98.2174 92.2234 98.2174 92.2234 98.3427 91.9553C98.2174 92.2234 98.4849 92.3508 98.3427 91.9553ZM138.737 48.8989C138.737 48.8989 138.611 49.1671 138.737 48.8989C138.611 49.1671 138.611 49.1671 138.737 48.8989C138.737 48.8989 138.611 49.1671 138.737 48.8989ZM54.1585 48.6377C54.1585 48.6377 53.7657 48.7785 54.1585 48.6377C53.7657 48.7785 54.0332 48.9059 54.1585 48.6377C54.0332 48.9059 54.0332 48.9059 54.1585 48.6377C54.0332 48.9059 54.0332 48.9059 54.1585 48.6377ZM72.3511 83.1913C72.3511 83.1913 72.2089 82.7958 72.3511 83.1913C72.2089 82.7958 72.0836 83.064 72.3511 83.1913C72.0836 83.064 72.0836 83.064 72.3511 83.1913Z" fill="#040404"/>
<path d="M142.082 84.2075C142.242 85.2629 142.671 86.4451 142.436 87.6406C142.326 88.5689 141.932 88.7091 141.251 88.0612C140.57 87.4132 140.033 87.1593 139.352 86.5113C140.268 85.9638 141.041 85.0222 142.082 84.2075Z" fill="#040404"/>
<path d="M173.651 84.7716C174.297 84.0965 175.085 83.8158 175.731 83.1406C176.016 83.9296 177.09 84.4378 176.05 85.2533C175.924 85.5207 176.192 85.6478 176.192 85.6478C176.855 85.6345 176.998 86.029 176.478 86.4367C175.958 86.8445 175.689 86.7174 175.547 86.3229C175.136 85.8014 174.725 85.2799 173.651 84.7716C173.651 84.7716 173.92 84.8987 173.651 84.7716Z" fill="#040404"/>
<path d="M120.937 91.3545C121.854 90.8073 122.627 89.8662 123.544 89.319C123.67 89.052 124.066 88.9119 124.209 89.3057C124.352 89.6996 124.621 89.8265 124.099 90.2336C123.183 90.7808 122.695 92.5095 120.937 91.3545Z" fill="#040404"/>
<path d="M143.351 89.7553C144.547 89.9964 145.709 88.9109 146.404 90.224C145.475 90.1102 144.205 92.127 143.351 89.7553Z" fill="#040404"/>
<path d="M155.429 83.8006C155.951 83.3939 156.6 82.7205 157.122 82.3138C157.248 82.0471 157.644 81.9072 157.788 82.3008C158.057 82.4276 157.931 82.6944 157.535 82.8343C157.283 83.3678 156.76 83.7745 156.634 84.0413C156.255 84.8415 155.699 83.9275 155.429 83.8006Z" fill="#040404"/>
<path d="M155.938 82.0586C155.686 82.5921 155.164 82.9987 155.037 83.2655C154.659 84.0657 154.119 83.812 153.58 83.5584C154.228 82.885 154.607 82.0847 155.938 82.0586C155.938 82.0586 155.669 81.9317 155.938 82.0586Z" fill="#040404"/>
<path d="M156.893 84.8373C157.288 84.6972 157.413 84.43 157.808 84.2899C158.202 84.1498 158.185 83.4884 158.597 84.0097C158.866 84.1368 159.009 84.531 158.883 84.7982C158.757 85.0653 158.505 85.5997 157.842 85.6127C157.699 85.2185 157.43 85.0914 156.893 84.8373Z" fill="#040404"/>
<path d="M139.995 84.4978C139.489 85.5637 138.695 85.8434 138.044 86.5163L137.774 86.3896C138.551 85.4503 139.074 85.044 139.995 84.4978Z" fill="#040404"/>
<path d="M95.4893 93.7679C96.4093 93.2216 96.9325 92.8152 97.5822 92.1422C97.2027 92.9419 96.8233 93.7416 95.4893 93.7679Z" fill="#040404"/>
<path d="M116.414 88.4828C116.035 89.2822 115.511 89.6885 114.716 89.9682C115.367 89.2954 115.747 88.496 116.414 88.4828Z" fill="#040404"/>
<path d="M92.4529 61.4537C92.3274 61.7208 92.8648 61.9754 92.4707 62.1151C92.4707 62.1151 92.2019 61.9878 92.0587 61.5934C92.3274 61.7208 92.3274 61.7208 92.4529 61.4537Z" fill="#040404"/>
<path d="M116.417 88.4903C116.272 88.0968 116.543 88.2239 116.669 87.9574C116.813 88.3509 116.813 88.3509 116.417 88.4903Z" fill="#040404"/>
<path d="M117.461 87.6827C117.461 87.6827 117.208 88.2159 117.065 87.8226C117.191 87.5561 117.191 87.556 117.461 87.6827C117.461 87.6827 117.587 87.4161 117.461 87.6827Z" fill="#040404"/>
<path d="M98.1025 91.748C97.9762 92.014 98.2489 92.1417 98.1025 91.748C97.9762 92.014 97.9761 92.014 97.9761 92.014C97.9761 92.014 97.9762 92.014 98.1025 91.748C98.1025 91.748 97.9762 92.014 98.1025 91.748Z" fill="#040404"/>
<path d="M77.3907 38.4039C77.3907 38.4039 77.2646 38.6717 77.3907 38.4039C76.997 38.5451 76.997 38.5451 77.3907 38.4039C77.123 38.2773 77.123 38.2773 77.3907 38.4039Z" fill="#040404"/>
<path d="M84.6353 47.8214L84.5089 48.0874C84.5089 48.0874 84.2361 47.9598 84.6353 47.8214C84.6353 47.8214 84.3625 47.6938 84.6353 47.8214Z" fill="#040404"/>
<path d="M95.0292 66.9659L94.9023 67.2335C94.508 67.3756 94.6349 67.108 95.0292 66.9659C95.0292 66.9659 94.6349 67.108 95.0292 66.9659Z" fill="#040404"/>
<path d="M155.672 81.9413C155.798 81.6735 155.798 81.6735 155.672 81.9413C156.066 81.8001 155.94 82.0679 155.672 81.9413C155.672 81.9413 155.94 82.0679 155.672 81.9413Z" fill="#040404"/>
<path d="M137.419 46.5178L137.292 46.786C137.025 46.6602 137.025 46.6602 137.419 46.5178C137.025 46.6602 137.025 46.6602 137.419 46.5178Z" fill="#040404"/>
<path d="M90.7079 58.9685C90.8495 59.363 90.8495 59.363 90.7079 58.9685C90.8495 59.363 90.5818 59.2364 90.7079 58.9685C90.5818 59.2364 90.5818 59.2364 90.7079 58.9685Z" fill="#040404"/>
<path d="M173.798 85.1514C173.53 85.0248 173.53 85.0248 173.798 85.1514C173.656 84.7569 173.656 84.7569 173.798 85.1514C173.924 84.8836 173.656 84.7569 173.798 85.1514Z" fill="#040404"/>
<path d="M54.5436 48.3193C54.4176 48.5854 54.4176 48.5854 54.5436 48.3193C54.4176 48.5854 54.4176 48.5854 54.5436 48.3193C54.1459 48.4577 54.4176 48.5854 54.5436 48.3193C54.5436 48.3193 54.1459 48.4577 54.5436 48.3193Z" fill="#040404"/>
<path d="M72.258 82.8219C71.9891 82.694 71.9891 82.694 72.258 82.8219C71.9891 82.694 72.1137 82.4274 72.258 82.8219C72.258 82.8219 72.1137 82.4274 72.258 82.8219Z" fill="#040404"/>
<path d="M150.456 65.6319L150.329 65.8995C149.935 66.0416 150.062 65.774 150.456 65.6319C150.062 65.774 150.062 65.774 150.456 65.6319Z" fill="#040404"/>
<path d="M79.8757 90.7802C79.8757 90.7802 79.7496 91.048 79.8757 90.7802C79.4819 90.9214 79.4819 90.9214 79.8757 90.7802C79.608 90.6536 79.608 90.6536 79.8757 90.7802Z" fill="#040404"/>
<path d="M151.335 83.4437C151.335 83.4437 151.211 83.7102 151.335 83.4437C151.066 83.3158 151.066 83.3158 151.335 83.4437Z" fill="#040404"/>
<path d="M82.6546 90.4925C83.0172 89.0325 84.0463 87.5593 84.4088 86.0993C84.5354 85.8327 84.5183 85.1727 85.0584 85.426C85.5986 85.6793 85.472 85.9459 85.3455 86.2126C84.966 87.0126 84.983 87.6725 84.6035 88.4725C83.8444 90.0724 83.7519 91.659 83.9295 93.3722C84.073 93.7655 84.3601 94.5521 83.6935 94.5654C82.9004 94.8455 83.2799 94.0455 83.1364 93.6522C82.9758 92.599 82.9417 91.2791 81.8615 90.7725C81.5914 90.6459 81.4479 90.2526 81.3043 89.8593C80.7302 88.2861 82.3749 84.8196 83.8176 83.8662C84.2142 83.7262 84.3407 83.4595 84.8808 83.7128C85.0244 84.1061 84.8979 84.3728 84.7714 84.6394C83.2191 86.5194 82.7301 88.246 82.6546 90.4925Z" fill="#040404"/>
<path d="M75.1567 75.4033C75.6651 74.3381 76.1734 73.273 77.0978 72.7266C77.4964 72.5866 78.0222 72.1803 78.1666 72.5729C78.5827 73.0917 78.184 73.2317 77.9298 73.7643C75.9887 76.4409 75.2609 79.3563 75.0762 82.5243C75.2207 82.9168 75.2381 83.5756 74.5679 83.5894C73.8977 83.6032 73.6087 82.8181 73.8629 82.2855C74.065 79.7764 74.14 77.5336 75.1567 75.4033Z" fill="#040404"/>
<path d="M70.5085 72.1632C71.5256 70.0331 72.9763 69.0805 73.8836 67.8755C74.0108 67.6092 74.2824 67.7354 74.5541 67.8617C74.8258 67.9879 74.9703 68.3804 74.8432 68.6467C74.4618 69.4454 73.9358 69.8517 73.5544 70.6505C71.8669 72.7944 70.9943 75.317 71.064 77.952C70.9368 78.2183 71.0814 78.6108 70.8097 78.4846C70.4109 78.6246 70.1392 78.4983 69.9947 78.1058C69.5785 77.5871 69.6882 76.6621 69.9425 76.1296C69.7631 74.4196 70.3988 73.0882 70.5085 72.1632Z" fill="#040404"/>
<path d="M72.131 62.7432C72.549 63.2611 72.4215 63.5272 71.8936 63.9334C70.4553 65.5439 69.5625 67.4063 68.5422 69.5349C68.0321 70.5991 67.7947 71.7893 67.5573 72.9795C67.4298 73.2456 67.575 73.6376 66.9019 73.6518C66.6291 73.5258 66.4839 73.1338 66.6114 72.8677C67.0508 69.1711 68.436 65.5863 71.3304 63.0234C71.4579 62.7573 71.8582 62.6172 72.131 62.7432Z" fill="#040404"/>
<path d="M69.6865 69.7891C70.0684 68.9905 70.0508 68.3321 70.977 67.7858C71.3765 67.6457 71.5038 67.3796 71.6486 67.7719C71.9207 67.898 71.7934 68.1642 71.6661 68.4303C70.1209 70.9659 69.2473 73.4876 68.918 76.2616C68.7907 76.5277 68.9355 76.92 68.264 76.934C67.9918 76.8078 67.7197 76.6817 67.847 76.4156C67.6846 75.3648 67.7944 74.4401 68.1763 73.6416C68.8128 72.3107 69.0499 71.1199 69.6865 69.7891Z" fill="#040404"/>
<path d="M90.4591 91.9588C89.8076 92.6317 89.5712 93.8238 88.6489 94.3703C88.1243 94.7767 87.7266 94.9167 87.7438 95.576C87.6169 95.8424 87.4901 96.1089 87.0923 96.2489C86.8215 96.1224 86.6774 95.7296 86.8042 95.4631C87.0407 94.271 87.4213 93.4717 87.6577 92.2795C87.9114 91.7466 88.0383 91.4802 88.2919 90.9473C88.4188 90.6809 88.4188 90.6809 88.5456 90.4145C88.9434 90.2745 89.0874 90.6673 88.9606 90.9338C88.9778 91.5931 89.3755 91.4531 89.6292 90.9202C89.756 90.6538 89.7388 89.9945 90.2806 90.2473C90.9664 90.8931 90.9836 91.5524 90.4591 91.9588Z" fill="#040404"/>
<path d="M79.4578 80.7587C79.8568 80.6186 79.9666 79.6938 80.4928 79.2875C80.8919 79.1475 81.0191 78.8812 81.1637 79.2736C81.4356 79.3998 81.3084 79.6661 81.1812 79.9323C79.8917 81.9359 78.8741 84.0657 79.0711 86.4341C78.9439 86.7003 78.8167 86.9666 78.8167 86.9666C78.4177 87.1066 78.273 86.7142 78.4002 86.448C77.9663 85.2707 78.3305 83.8134 78.5674 82.6223C78.8218 82.0898 79.0762 81.5573 79.4578 80.7587Z" fill="#040404"/>
<path d="M88.2937 88.2925C87.5311 89.8902 86.2252 91.2354 86.2773 93.2118C86.1502 93.478 86.1502 93.478 85.7515 93.6181C85.4799 93.4918 85.2083 93.3656 85.3354 93.0993C85.029 91.6554 85.393 90.1978 86.173 89.2589C86.4272 88.7264 87.0802 88.0538 87.606 87.6475C87.7331 87.3812 88.259 86.9749 88.8022 87.2274C89.3454 87.4799 88.8196 87.8862 88.6925 88.1525C88.4208 88.0263 88.2937 88.2925 88.2937 88.2925Z" fill="#040404"/>
<path d="M102.38 95.1394C102.109 95.0128 101.966 94.6196 102.092 94.353C102.869 93.4132 103.916 92.6 104.692 91.6602C104.819 91.3936 105.089 91.5202 105.359 91.6468C105.63 91.7733 105.503 92.0399 105.377 92.3065C104.6 93.2464 103.823 94.1862 102.903 94.7328C102.65 95.266 102.38 95.1394 102.38 95.1394Z" fill="#040404"/>
<path d="M122.815 63.0574C122.851 64.3736 122.341 65.4378 121.958 66.236C121.338 68.2244 120.445 70.0868 119.552 71.9492C119.425 72.2153 119.17 72.7474 118.624 72.4955C118.079 72.2435 118.607 71.8374 118.461 71.4454C119.209 69.1909 120.229 67.0625 120.977 64.808C121.359 64.0099 121.887 63.6037 122.815 63.0574Z" fill="#040404"/>
<path d="M120.877 75.2445C121.515 73.9142 121.88 72.4578 122.645 70.8614C123.027 70.0632 123.282 69.531 124.21 68.9848C124.338 68.7187 124.738 68.5786 125.011 68.7046C125.284 68.8306 125.156 69.0966 125.029 69.3627C123.591 70.9733 123.098 72.6957 122.478 74.6841C122.223 75.2163 121.968 75.7484 121.568 75.8885C121.168 76.0286 121.168 76.0286 120.895 75.9026C120.222 75.9168 120.35 75.6507 120.877 75.2445Z" fill="#040404"/>
<path d="M115.932 59.7131C115.567 61.1698 114.803 62.7665 114.438 64.2232C114.311 64.4893 114.329 65.1476 113.656 65.1617C113.111 64.9096 113.639 64.5034 113.494 64.1112C113.823 61.3379 114.842 59.2089 115.989 56.8138C116.116 56.5477 116.371 56.0155 116.789 56.5337C117.334 56.7858 117.206 57.0519 116.951 57.5841C116.696 58.1164 116.314 58.9148 115.932 59.7131Z" fill="#040404"/>
<path d="M127.132 78.5847C126.621 79.6488 126.111 80.7129 125.6 81.777C125.473 82.043 125.217 82.5751 124.671 82.3233C124.125 82.0715 124.654 81.6653 124.781 81.3993C125.402 79.4112 126.15 77.1571 127.589 75.5467C127.716 75.2807 128.099 74.4826 128.518 75.0005C129.064 75.2523 128.535 75.6584 128.28 76.1905C127.897 76.9886 127.515 77.7866 127.132 78.5847Z" fill="#040404"/>
<path d="M124.787 78.7495C124.66 79.0158 124.405 79.5483 123.862 79.2958C123.591 79.1695 123.845 78.6369 123.701 78.2444C124.319 76.254 125.064 73.9974 125.41 71.8808C125.664 71.3482 125.791 71.0819 126.334 71.3345C126.877 71.587 126.352 71.9933 126.496 72.3859C126.15 74.5025 125.405 76.7591 124.787 78.7495Z" fill="#040404"/>
<path d="M118.574 67.8688C118.319 68.4012 118.192 68.6674 117.92 68.5412C117.648 68.4151 117.376 68.2889 117.503 68.0228C117.85 65.9072 118.469 63.9177 119.487 61.7882C119.614 61.522 120.141 61.1158 120.413 61.2419C120.957 61.4942 120.431 61.9004 120.303 62.1666C119.684 64.1561 119.065 66.1455 118.574 67.8688Z" fill="#040404"/>
<path d="M107.325 47.0156C106.815 48.0801 106.178 49.4107 106.213 50.7273C106.086 50.9934 106.231 51.3856 105.831 51.5256C105.431 51.6657 105.414 51.0074 105.541 50.7413C105.616 48.5003 106.507 46.6375 107.672 44.9007C107.799 44.6345 108.199 44.4945 108.471 44.6205C108.744 44.7466 108.616 45.0127 108.489 45.2788C107.834 45.9511 107.58 46.4834 107.325 47.0156Z" fill="#040404"/>
<path d="M116.837 66.0413C116.71 66.3076 116.583 66.5739 116.184 66.7139C115.913 66.5876 115.768 66.195 115.768 66.195C116.115 64.0783 116.461 61.9616 117.351 60.0975C117.478 59.8312 117.605 59.5649 117.876 59.6912C118.419 59.9437 118.165 60.4764 118.038 60.7427C117.53 61.8079 117.293 62.9994 117.056 64.1909C117.074 64.8498 117.091 65.5087 116.837 66.0413Z" fill="#040404"/>
<path d="M111.397 54.8825C111.014 55.6809 110.632 56.4792 109.85 57.4176C109.722 57.6837 109.595 57.9498 109.322 57.8238C109.05 57.6977 109.177 57.4316 109.305 57.1655C109.797 55.4429 110.834 53.9723 111.199 52.5157C111.326 52.2496 111.599 52.3756 111.726 52.1095C111.999 52.2356 112.144 52.6277 112.016 52.8938C112.034 53.552 111.379 54.2243 111.397 54.8825Z" fill="#040404"/>
<path d="M108.911 49.1126C109.039 48.8465 109.438 48.7064 109.565 48.4402L109.965 48.3002C110.237 48.4263 110.11 48.6924 110.11 48.6924C109.491 50.6817 108.727 52.2786 108.108 54.2679C107.98 54.534 107.98 54.534 107.581 54.6741C107.309 54.548 107.036 54.4219 107.164 54.1557C107.273 53.2311 107.655 52.4326 107.638 51.7742C108.147 50.7096 108.801 50.0372 108.911 49.1126Z" fill="#040404"/>
<path d="M100.977 45.2571C101.341 43.7997 101.85 42.7348 102.486 41.4036C102.613 41.1374 102.867 40.6049 103.266 40.4649C103.665 40.3249 103.665 40.3248 103.937 40.451C104.209 40.5773 104.082 40.8435 103.954 41.1097C103.319 42.4409 102.555 44.0383 102.191 45.4957C101.538 46.1682 101.249 45.3833 100.977 45.2571Z" fill="#040404"/>
<path d="M129.538 81.7213C128.756 82.6598 128.247 83.7243 127.737 84.7889C127.61 85.055 127.355 85.5873 127.083 85.4612C126.538 85.2091 126.666 84.9429 126.92 84.4107C127.43 83.3461 128.067 82.0154 128.576 80.9508C128.831 80.4186 129.086 79.8863 129.63 80.1384C130.32 80.7828 129.793 81.189 129.538 81.7213Z" fill="#040404"/>
<path d="M103.844 44.0299C104.226 43.2312 104.48 42.6988 105.133 42.0263C105.533 41.8862 105.66 41.62 105.804 42.0124C106.076 42.1386 105.949 42.4048 105.822 42.6711C104.914 43.876 104.006 45.081 104.186 46.7907C104.058 47.057 103.931 47.3232 103.659 47.197C103.26 47.337 103.116 46.9446 103.243 46.6784C102.954 45.8935 103.462 44.8286 103.844 44.0299Z" fill="#040404"/>
<path d="M113.407 57.5011C113.024 58.2993 112.77 58.8315 112.515 59.3636C112.387 59.6297 112.26 59.8958 111.987 59.7697C111.714 59.6435 111.842 59.3774 111.969 59.1114C112.206 57.9209 112.843 56.5906 113.48 55.2602C113.608 54.9941 113.735 54.728 114.008 54.8542C114.281 54.9803 114.153 55.2464 114.299 55.6386C114.317 56.2969 113.662 56.9689 113.407 57.5011Z" fill="#040404"/>
<path d="M126.409 52.3394C127.174 50.7426 127.666 49.0198 128.557 47.1569C128.685 46.8908 128.94 46.3585 129.484 46.6106C130.029 46.8627 129.774 47.395 129.647 47.6611C129.01 48.9918 128.645 50.4484 127.609 51.9192C127.354 52.4514 126.954 52.5915 126.409 52.3394Z" fill="#040404"/>
<path d="M130.114 52.1475C129.86 52.6799 129.478 53.4786 129.224 54.0111C129.097 54.2773 128.97 54.5435 128.426 54.2911C128.154 54.165 128.281 53.8987 128.136 53.5063C128.772 52.1752 129.137 50.7179 129.773 49.3867C129.9 49.1205 130.154 48.5881 130.698 48.8404C130.97 48.9666 130.987 49.6253 130.86 49.8915C130.75 50.8164 130.496 51.3488 130.114 52.1475Z" fill="#040404"/>
<path d="M145.624 79.0226C145.497 79.2887 145.369 79.5549 145.242 79.821C145.115 80.0871 144.86 80.6194 144.443 80.1008C143.898 79.8484 144.425 79.4424 144.552 79.1763C145.061 78.1118 145.298 76.921 145.68 76.1227C145.935 75.5904 146.189 75.0582 146.462 75.1844C147.007 75.4368 146.752 75.969 146.497 76.5013C146.115 77.2997 145.733 78.098 145.624 79.0226Z" fill="#040404"/>
<path d="M126.187 44.6668C125.807 45.4662 125.426 46.2655 124.775 46.9384C124.648 47.2049 124.522 47.4713 123.98 47.2184C123.709 47.092 123.836 46.8255 123.692 46.4326C124.199 45.3668 124.309 44.441 124.816 43.3752C125.07 42.8423 125.467 42.7023 125.738 42.8288C126.28 43.0817 126.026 43.6146 125.773 44.1475C126.314 44.4004 126.187 44.6668 126.187 44.6668Z" fill="#040404"/>
<path d="M143.826 84.7319C144.463 83.4016 145.101 82.0714 145.739 80.7412C145.866 80.4752 145.994 80.2091 146.266 80.3352C146.539 80.4613 146.685 80.8534 146.557 81.1194C145.92 82.4497 145.41 83.5138 144.499 84.718C144.645 85.1101 144.226 84.5919 143.826 84.7319Z" fill="#040404"/>
<path d="M137.591 69.8887C137.955 68.4311 138.446 66.7072 138.81 65.2495C138.937 64.9832 139.064 64.717 139.463 64.5769C139.734 64.7032 139.879 65.0957 139.751 65.362C139.388 66.8197 139.024 68.2773 138.388 69.6087C138.405 70.2675 137.862 70.015 137.591 69.8887Z" fill="#040404"/>
<path d="M137.017 65.6632C136.889 65.9294 136.762 66.1957 136.364 66.3357C136.237 66.602 135.965 66.4758 135.965 66.4758C135.693 66.3495 135.693 66.3495 135.821 66.0832C136.184 64.6256 136.693 63.5605 137.057 62.1028C137.184 61.8366 137.71 61.4303 137.981 61.5565C138.524 61.809 137.999 62.2153 137.872 62.4816C137.635 63.673 137.525 64.5981 137.017 65.6632Z" fill="#040404"/>
<path d="M142.01 68.7726C142.551 69.0256 142.695 69.4185 142.839 69.8114C142.476 71.2702 141.969 72.336 141.876 73.9213C141.75 74.1877 141.893 74.5806 141.225 74.5942C140.954 74.4677 140.81 74.0748 140.937 73.8083C140.759 72.0966 141.52 70.4979 142.01 68.7726Z" fill="#040404"/>
<path d="M140.27 66.2859C140.811 66.5388 141.226 67.0581 140.973 67.591C140.736 68.7833 140.356 69.5826 140.119 70.7749C139.992 71.0414 139.866 71.3078 139.595 71.1813C139.053 70.9284 139.451 70.7884 139.307 70.3955C139.543 69.2033 139.907 67.7446 140.27 66.2859Z" fill="#040404"/>
<path d="M163.009 85.81C162.882 86.0761 162.899 86.7345 162.355 86.4824C161.81 86.2302 162.065 85.6979 162.192 85.4318C162.412 83.5827 163.176 81.9859 164.067 80.1228C164.195 79.8567 164.45 79.3244 164.994 79.5766C165.539 79.8287 165.012 80.2349 164.884 80.5011C164.393 82.224 163.901 83.947 163.009 85.81Z" fill="#040404"/>
<path d="M160.15 78.8455C159.624 79.2517 159.659 80.5691 158.844 80.1905C158.029 79.8119 158.809 78.8731 159.063 78.3406C159.572 77.2756 159.809 76.0844 160.046 74.8932C160.173 74.6269 160.3 74.3607 160.427 74.0944C160.554 73.8282 160.953 73.6882 161.225 73.8144C161.497 73.9406 161.37 74.2068 161.243 74.4731C161.006 75.6643 160.913 77.248 160.15 78.8455Z" fill="#040404"/>
<path d="M146.72 61.1979C146.812 59.6142 147.847 58.143 148.211 56.6856C148.338 56.4193 148.61 56.5455 148.61 56.5455C148.882 56.6717 149.154 56.7979 149.026 57.0642C148.662 58.5216 148.298 59.979 147.391 61.184C147.263 61.4503 146.992 61.3241 146.72 61.1979Z" fill="#040404"/>
</g>
<g opacity="0.1">
<path d="M94.2922 1145.4C100.608 1143.28 105.712 1145.06 109.02 1151.34C111.956 1148.85 115.006 1146.11 118.908 1147.92C123.297 1149.95 127.896 1150.9 132.608 1151.6C136.362 1152.46 136.335 1155.71 136.778 1158.59C139.931 1159.46 143.667 1159.71 146.594 1161.06C150.495 1162.87 149.17 1167.01 149.029 1170.5C149.63 1170.49 150.117 1170.71 150.962 1170.81C158.714 1172.63 160.871 1180.75 155.746 1186.68C155.162 1187.3 154.465 1188.17 153.638 1188.67C150.588 1191.41 150.622 1192.61 154.297 1194.91C159.565 1198.25 162.402 1204.91 161.128 1210.85C160.901 1211.34 161.162 1212.05 161.406 1212.16C164.497 1215.08 163.511 1218.48 162.883 1221.75C162.254 1225.02 159.919 1227.5 156.834 1229.04C156.364 1229.41 156.007 1229.54 155.292 1229.81C156.082 1236.41 154.087 1238.15 147.465 1242.2C142.969 1244.86 136.209 1244.1 132.631 1240.96C131.106 1242.33 129.224 1243.83 127.829 1245.55C125.624 1248.39 121.547 1248.87 118.116 1246.69C117.628 1246.46 117.237 1245.39 116.636 1245.4C110.886 1246.3 112.796 1241.54 111.865 1238.44C106.847 1239.67 102.571 1237.39 98.0687 1235.6C94.5414 1234.26 92.2677 1234.69 90.437 1237.99C87.5862 1243.5 85.5803 1249.1 82.7295 1254.6C79.992 1259.86 79.5455 1265.29 79.2294 1271.08C78.9133 1276.87 76.6911 1279.1 70.6634 1278.68C62.3449 1278.08 55.517 1274.92 49.4654 1269.44L49.2215 1269.32C47.9851 1268.15 45.3989 1266.06 45.6256 1265.58C46.759 1263.13 48.7374 1260.79 50.7329 1259.04C52.3712 1257.43 55.246 1256.98 56.3966 1255.14C58.3578 1252.19 59.5874 1248.9 60.3294 1245.39C61.5865 1238.85 62.2427 1232.33 63.2731 1226.28C61.209 1225.61 59.7459 1224.94 58.1694 1224.5C57.0806 1224.29 55.9919 1224.08 54.9203 1224.48C48.9613 1226.46 45.0768 1225.25 41.6732 1219.81C41.4294 1219.7 41.0722 1219.83 40.8283 1219.72C34.9826 1221.46 31.8125 1219.98 29.2539 1214.64C28.9929 1213.93 28.6013 1212.85 28.9414 1212.12C30.9988 1208.33 29.0926 1204.77 28.1447 1201.07C27.4922 1199.28 28.8695 1196.95 29.1752 1195.02C29.3848 1193.93 29.5943 1192.84 29.3333 1192.12C27.9149 1188.79 29.093 1183.7 32.0296 1181.2C34.3823 1179.33 36.4912 1177.34 38.2257 1174.88C41.5814 1170.2 46.0154 1169.59 50.9715 1170.4C48.7014 1162.52 50.5149 1158.62 57.7722 1155.75C57.6796 1148.29 64.0405 1143.52 71.3046 1145.12C72.1495 1145.21 73.4478 1144.33 74.0317 1143.71C78.9124 1137.66 85.1324 1136.4 91.0364 1140.92C92.3861 1141.84 93.0387 1143.63 94.2922 1145.4ZM135.038 1232.58C134.42 1231.99 134.176 1231.88 133.933 1231.77C133.184 1230.82 132.435 1229.88 131.686 1228.94C132.889 1228.91 134.334 1228.98 135.406 1228.59C136.835 1228.07 138.751 1227.77 139.205 1226.79C140.242 1225.2 140.304 1223.15 140.967 1221.08C141.08 1220.84 140.235 1220.74 140.105 1220.38C139.243 1219.69 138.381 1218.99 137.275 1218.18C138.216 1217.43 139.157 1216.68 140.228 1216.28C143.199 1214.99 143.488 1212.45 143.776 1209.92C144.065 1207.38 142.715 1206.46 140.407 1205.68C137.742 1205.04 137.577 1203.48 139.817 1201.85C140.287 1201.47 140.888 1201.45 141.115 1200.97C141.795 1199.5 143.189 1197.77 143.025 1196.21C142.877 1195.25 140.682 1194.23 139.332 1193.31C139.089 1193.2 138.374 1193.46 138.244 1193.1C137.512 1192.76 136.537 1192.31 136.52 1191.71C136.502 1191.11 137.2 1190.24 137.67 1189.87C138.141 1189.49 138.968 1188.99 139.683 1188.72C143.482 1186.93 143.561 1185.48 140.94 1182.18C139.443 1180.3 137.883 1180.47 136.097 1181.12C132.299 1182.92 132.299 1182.92 130.863 1178.99C130.21 1177.2 129.07 1175.19 127.72 1174.27C124.777 1172.31 120.848 1173.75 118.399 1176.47C116.534 1178.57 114.408 1179.96 112.169 1181.59C111.698 1181.97 110.853 1181.87 110.365 1181.65C109.991 1181.18 109.843 1180.22 109.826 1179.62C110.585 1176.7 111.588 1173.9 112.217 1170.63C113.185 1166.63 110.809 1163.45 106.941 1162.84C102.586 1162.01 102.082 1161.18 103.521 1156.8C103.844 1155.47 104.149 1153.53 103.514 1152.35C101.965 1148.66 98.2111 1147.81 94.9001 1149.83C94.0723 1150.34 92.6436 1150.86 91.7987 1150.77C91.3109 1150.54 90.5451 1149 90.6412 1148.15C91.0088 1144.17 88.0997 1143.41 85.304 1142.41C82.0206 1141.18 79.2935 1142.59 77.8029 1145.16C77.0094 1146.87 76.7209 1149.41 75.6493 1149.8C74.2205 1150.33 72.2525 1148.82 70.4322 1148.27C67.2793 1147.4 64.9266 1149.28 62.8177 1151.27C61.066 1153.13 62.0758 1154.78 63.4427 1156.31C63.8171 1156.78 63.8514 1157.98 63.5113 1158.71C63.0408 1159.09 61.9692 1159.48 61.2376 1159.14C58.9296 1158.37 57.518 1159.49 56.2369 1160.98C53.2041 1164.32 53.4204 1167.68 55.3265 1171.24C56.8583 1174.32 55.7077 1176.16 52.2147 1176.03C49.9238 1175.85 47.5025 1175.32 45.2116 1175.15C44.1229 1174.94 42.3369 1175.6 42.1102 1176.09C41.7426 1180.07 38.5278 1181.25 36.0618 1183.37C33.8224 1185 32.3317 1187.58 33.7158 1189.7C35.7181 1192.41 34.1932 1193.78 32.9292 1195.87C32.232 1196.73 31.7786 1197.71 31.5691 1198.8C31.7167 1199.76 32.1254 1201.43 32.857 1201.77C37.133 1204.05 37.133 1204.05 34.9623 1208.09C34.7356 1208.58 34.1517 1209.2 34.2822 1209.56C35.0652 1211.7 35.6216 1214.33 37.119 1216.21C38.8603 1218.21 40.2376 1215.88 41.7626 1214.51C43.1742 1213.39 45.0907 1213.09 46.6329 1212.32C46.7977 1213.88 46.9625 1215.44 47.2407 1216.76C47.6494 1218.43 48.3019 1220.22 49.0678 1221.76C50.9671 1220.86 52.997 1220.32 54.6525 1219.31C55.8374 1218.67 56.5175 1217.2 57.5719 1216.21C58.0425 1215.83 58.7569 1215.57 59.4713 1215.31C59.7323 1216.03 60.2371 1216.85 60.141 1217.7C60.1753 1218.9 59.9658 1219.99 60.0001 1221.2C63.0672 1219.06 64.314 1216.37 61.9545 1213.79C58.8463 1210.27 55.398 1207.48 52.0631 1204.45C50.9572 1203.64 49.6074 1202.72 47.7252 1204.22C47.1413 1204.84 44.9466 1203.82 43.8407 1203.01C43.353 1202.78 43.171 1200.62 43.171 1200.62C45.2971 1199.23 45.9256 1195.96 49.4186 1196.1C51.4656 1196.16 52.8772 1195.03 51.0054 1192.68C49.7518 1190.91 50.4491 1190.05 52.3827 1190.35C54.0726 1190.54 55.7624 1190.73 57.9399 1191.15C58.4723 1188.73 59.0047 1186.3 59.5371 1183.88C59.7809 1183.99 60.1381 1183.86 60.382 1183.97C60.6602 1185.29 60.6945 1186.49 61.086 1187.57C61.3642 1188.88 61.8862 1190.31 62.1644 1191.63C63.3322 1190.39 64.4999 1189.15 65.5372 1187.55C65.6506 1187.31 65.8773 1186.82 66.1039 1186.33C66.6707 1185.11 67.3679 1184.25 68.1785 1183.14C67.8041 1182.67 66.9421 1181.97 65.8361 1181.16C66.7772 1180.41 67.4745 1179.55 68.4156 1178.8C69.2776 1179.5 69.7825 1180.32 70.6446 1181.02C75.2881 1179.32 76.2635 1179.77 75.6693 1184.24C78.8222 1185.11 79.5641 1181.6 82.195 1181.04C81.7588 1182.62 81.1921 1183.84 80.7559 1185.42C80.1101 1188.08 79.351 1191 79.3063 1193.65C79.3235 1194.25 81.2915 1195.76 81.762 1195.38C84.6196 1194.33 87.2162 1192.57 90.3005 1191.03C89.1774 1189.62 88.6553 1188.19 87.5494 1187.38C85.4509 1185.52 86.6015 1183.68 87.7522 1181.84C87.9788 1181.35 88.9371 1181.2 89.5381 1181.18C89.782 1181.29 90.4002 1181.88 90.4174 1182.48C90.6784 1183.19 90.3384 1183.93 90.3555 1184.53C94.1542 1182.73 95.7478 1183.77 95.9985 1188.34C101.975 1186.95 101.058 1192.76 103.06 1195.47C103.156 1194.63 103.025 1194.27 102.895 1193.91C102.6 1191.99 103.019 1189.81 105.423 1189.74C107.583 1189.56 107.521 1191.61 107.686 1193.17C107.999 1195.69 108.912 1198.19 105.959 1200.08C105.601 1200.21 105.618 1200.81 105.749 1201.17C106.288 1203.2 106.47 1205.37 107.14 1207.75C108.211 1207.36 108.926 1207.1 109.884 1206.95C110.485 1206.93 111.217 1207.27 111.704 1207.5C110.475 1210.79 111.955 1212.07 114.977 1212.58C114.977 1212.58 115.221 1212.69 115.108 1212.94C116.101 1213.99 116.403 1220.36 115.836 1221.58C115.496 1222.32 114.912 1222.94 114.328 1223.56C115.417 1223.76 116.262 1223.86 117.351 1224.07C117.594 1224.18 118.082 1224.41 118.814 1224.75C117.873 1225.5 117.045 1226 116.705 1226.74C116.251 1227.71 116.172 1229.16 116.791 1229.75C119.655 1233.15 119.655 1233.15 116.979 1236.36C116.753 1236.85 116.526 1237.34 116.413 1237.58C117.536 1239 118.528 1240.05 119.651 1241.46C120.009 1241.33 120.61 1241.31 121.08 1240.94C123.32 1239.31 125.672 1237.43 128.842 1238.9C129.574 1239.24 131.003 1238.72 131.7 1237.85C132.267 1236.63 133.531 1234.55 135.038 1232.58ZM115.544 1232.43C112.879 1231.79 110.571 1231.01 108.524 1230.95C104.787 1230.7 101.634 1229.83 98.9171 1227.39C95.2079 1223.88 95.4964 1221.35 100.123 1219.04C102.493 1217.77 105.106 1216.6 107.59 1215.09C106.381 1210.67 103.688 1213.28 101.414 1213.7C96.9803 1214.32 92.5634 1215.53 88.2427 1215.9C84.2792 1216.14 82.8951 1214.01 83.7504 1210.25C84.7018 1205.65 87.1164 1201.73 90.6369 1198.61C92.5191 1197.11 94.4013 1195.61 96.2834 1194.11C96.1529 1193.75 96.2663 1193.51 96.1358 1193.15C94.5765 1193.32 92.8866 1193.12 91.7017 1193.76C88.9746 1195.17 86.3781 1196.93 83.651 1198.34C80.5667 1199.87 78.0148 1198.98 77.1975 1195.64C76.5278 1193.25 76.9297 1190.47 76.7305 1187.7C74.1786 1186.82 74.0034 1189.11 73.4539 1190.93C72.6157 1195.29 71.9081 1200.01 71.07 1204.37C70.9738 1205.21 70.0327 1205.97 69.5794 1206.94C68.604 1206.49 67.3847 1205.92 66.8798 1205.1C64.486 1201.31 62.336 1197.64 60.186 1193.97C58.6267 1194.14 57.0674 1194.31 55.5081 1194.47C54.488 1196.67 53.4679 1198.87 52.3345 1201.31C53.3099 1201.77 54.4158 1202.58 55.3912 1203.03C61.0341 1206.83 66.0932 1211.26 66.9002 1218.46C67.1165 1221.83 66.7318 1225.21 66.5909 1228.71C65.9863 1237.03 64.8939 1245.13 61.7546 1253.17C60.6383 1256.22 58.9038 1258.68 55.9328 1259.97C54.7479 1260.61 53.563 1261.25 52.1342 1261.77C52.8657 1262.11 53.5973 1262.45 54.0678 1262.07C56.9254 1261.03 59.4773 1261.91 62.0463 1263.4C64.6154 1264.89 67.4282 1266.49 70.3373 1267.25C73.2464 1268.01 75.5716 1269.38 76.8595 1272.36C77.069 1271.27 77.1652 1270.42 77.2614 1269.57C77.9862 1265.46 78.4671 1261.23 79.4357 1257.23C79.8547 1255.05 81.1187 1252.96 82.0255 1251.01C83.4818 1247.23 84.9381 1243.46 86.6383 1239.79C90.2654 1231.98 94.5346 1229.8 102.468 1233.78C104.175 1234.58 106.126 1235.48 107.929 1235.43C109.88 1236.33 113.016 1236.6 115.544 1232.43ZM145.065 1191.82C146.136 1191.42 147.452 1191.14 148.393 1190.39C149.805 1189.27 150.842 1187.67 151.879 1186.07C153.03 1184.23 154.537 1182.26 155.07 1179.84C155.812 1176.32 154.314 1174.44 150.935 1174.06C149.245 1173.87 147.328 1174.17 144.924 1174.24C144.759 1172.68 144.595 1171.12 144.43 1169.56C143.77 1163.32 140.714 1161.6 135.503 1164.52C133.961 1165.29 133.247 1165.55 132.708 1163.52C132.299 1161.85 131.986 1159.33 130.881 1158.52C128.051 1156.32 125.09 1153.75 120.35 1156.3C121.432 1152.06 118.784 1152.01 116.493 1151.84C114.202 1151.67 111.571 1152.23 110.812 1155.14C110.49 1156.48 110.768 1157.79 111.176 1159.47C110.575 1159.48 109.373 1159.52 107.927 1159.44C110.853 1160.8 114.477 1161.29 115.861 1163.42C117.245 1165.55 116.747 1169.17 116.963 1172.54C120.11 1168.95 123.977 1169.56 127.731 1170.41C129.307 1170.85 131.258 1171.75 132.137 1173.05C134.009 1175.41 135.393 1177.53 138.886 1177.67C140.088 1177.63 141.194 1178.44 142.3 1179.25C145.879 1182.4 146.243 1186.72 145.065 1191.82ZM135.114 1239.44C140.183 1240.01 143.886 1239.06 147.458 1237.75C151.387 1236.3 151.37 1235.7 149.107 1232.28C147.853 1230.51 148.856 1227.71 150.869 1226.57C152.768 1225.67 154.781 1224.52 156.419 1222.91C159.939 1219.79 159.792 1218.83 157.041 1215.18C155.657 1213.06 152.94 1210.61 156.721 1208.21C157.436 1207.95 157.611 1205.65 157.219 1204.58C156.175 1201.72 154.417 1199.13 150.793 1198.63C147.04 1197.78 146.394 1200.45 145.13 1202.53C149.44 1206.02 149.856 1212.15 145.638 1216.12C145.054 1216.74 144.13 1218.1 144.504 1218.57C145.792 1221.54 144.415 1223.87 143.151 1225.95C140.754 1230.48 138.226 1234.65 135.114 1239.44ZM85.7355 1212.36C92.3986 1213.97 97.8699 1211.76 103.585 1209.67C100.137 1206.88 101.967 1203.57 102.483 1200.55C101.377 1199.74 100.515 1199.04 99.4088 1198.23C98.059 1197.31 96.7264 1196.98 94.9576 1198.24C90.7227 1201.62 87.367 1206.29 85.7355 1212.36ZM50.4511 1266.03C56.9115 1273.19 64.5842 1276.45 73.7134 1275.94C73.0093 1272.35 70.7975 1270.73 67.2874 1269.99C65.1099 1269.57 62.9152 1268.55 61.1911 1267.16C57.8561 1264.13 54.4937 1264.35 50.4511 1266.03ZM99.1542 1223.04C102.166 1227.41 105.92 1228.26 110.241 1227.89C110.251 1224.04 110.262 1220.18 110.516 1216.44C106.961 1218.36 103.18 1220.76 99.1542 1223.04ZM67.5256 1202.43C67.8828 1202.3 68.1266 1202.41 68.4838 1202.28C69.0781 1197.8 69.9162 1193.44 70.5105 1188.97C70.0228 1188.75 69.7789 1188.63 69.2912 1188.41C67.4262 1190.51 65.4478 1192.86 63.5828 1194.96C64.9841 1197.69 66.2548 1200.06 67.5256 1202.43Z" fill="#020202"/>
</g>
<g opacity="0.1">
<path d="M1394.39 356.638C1392.46 356.638 1390.81 356.362 1389.15 356.086C1388.05 355.811 1387.22 355.259 1386.67 354.708C1385.84 353.88 1385.84 352.777 1386.4 351.398C1387.5 349.192 1388.6 347.262 1389.98 345.332C1388.33 345.056 1387.22 344.78 1385.84 344.504C1384.74 344.228 1384.19 343.401 1384.47 342.298C1385.02 340.092 1385.29 337.886 1386.4 335.955C1386.95 335.128 1387.22 334.301 1387.78 333.474C1388.33 332.371 1388.88 331.267 1389.98 330.716C1390.81 330.164 1390.81 329.889 1389.98 329.337C1388.88 328.786 1388.05 327.958 1386.95 327.407C1386.12 326.855 1386.12 326.304 1386.4 325.476C1386.95 324.373 1387.22 322.994 1388.33 321.616C1387.22 321.616 1386.4 321.616 1385.57 321.34C1384.19 320.788 1383.64 320.513 1383.64 319.134C1383.91 316.1 1383.91 312.791 1385.02 309.758C1385.84 307.827 1386.67 305.621 1387.5 303.691C1388.6 301.761 1390.26 300.657 1391.91 299.279C1394.67 296.521 1398.25 295.142 1402.11 294.591C1404.05 294.039 1406.25 294.039 1408.46 294.591C1411.49 295.142 1414.8 295.418 1417.83 296.245C1418.94 296.521 1420.04 296.797 1421.42 297.072C1421.97 297.348 1422.25 296.797 1422.52 296.521C1423.9 293.763 1426.66 291.557 1428.59 289.075C1429.14 288.248 1429.97 287.421 1430.24 286.593C1430.79 285.215 1431.9 284.387 1432.73 283.284C1433.28 282.733 1433.83 282.181 1434.38 281.354C1434.93 280.527 1435.48 279.975 1436.31 279.423C1437.69 278.045 1439.62 277.769 1441 276.114C1443.2 273.632 1446.51 272.529 1449 270.599C1453.13 267.841 1457.54 265.084 1461.68 262.05C1463.61 260.671 1465.82 259.017 1467.75 257.638C1470.78 255.432 1474.37 254.053 1477.95 252.95C1481.26 252.123 1484.29 251.295 1487.6 250.744C1494.77 249.917 1501.39 247.435 1508.28 246.332C1512.15 245.78 1516.01 245.228 1519.59 244.953C1521.8 244.677 1524 244.125 1526.49 243.574C1527.31 243.298 1526.76 242.471 1527.31 242.195C1527.86 241.919 1528.14 243.022 1528.69 242.471C1529.24 241.644 1530.07 241.092 1530.62 240.265C1531.73 239.162 1532.55 237.783 1533.93 236.956C1535.59 236.128 1536.96 234.749 1538.07 233.371C1538.62 232.543 1539.45 231.716 1540.27 231.164C1543.58 228.958 1545.51 225.649 1547.44 222.34C1548.82 220.134 1551.03 218.755 1552.96 216.825C1553.23 216.825 1553.51 216.825 1553.79 216.825C1557.1 218.203 1560.68 218.479 1563.99 219.858C1565.64 220.685 1566.75 221.513 1567.85 223.167C1568.95 224.822 1570.33 226.201 1571.71 227.579C1574.19 229.786 1576.12 232.267 1577.78 235.025C1578.33 236.128 1579.16 236.956 1579.98 238.059C1581.09 239.989 1581.36 242.195 1581.64 244.125C1581.64 244.953 1581.09 245.78 1580.81 246.332C1580.54 247.159 1579.71 247.71 1579.43 248.538C1579.43 248.813 1579.16 248.813 1578.88 248.813C1576.95 248.813 1575.85 249.917 1574.74 251.295C1574.47 251.571 1574.47 251.571 1574.19 251.847C1570.88 253.501 1568.4 256.259 1565.37 258.465C1560.4 262.05 1555.99 266.462 1551.03 270.323C1548.27 272.529 1545.79 274.735 1543.03 276.942C1541.93 277.769 1541.1 279.423 1540.27 280.527C1538.07 284.111 1535.59 287.421 1532.83 290.178C1530.9 292.109 1528.42 293.763 1526.21 295.418C1522.9 297.624 1519.32 299.003 1515.45 299.83C1513.52 300.382 1511.87 301.209 1510.22 302.036C1507.18 303.415 1503.87 303.691 1500.56 304.518C1495.05 305.897 1489.53 307.827 1483.74 309.482C1481.81 310.033 1479.88 311.137 1478.23 312.24C1477.67 312.515 1476.85 312.791 1476.3 313.067C1473.54 313.894 1471.33 315.825 1469.13 317.479C1467.2 318.858 1465.27 320.237 1463.34 321.616C1463.06 321.891 1462.78 322.167 1462.51 322.443C1461.68 322.994 1461.13 323.546 1460.03 323.822C1458.65 324.373 1456.99 324.925 1455.89 325.752C1454.79 326.304 1453.96 326.855 1452.86 327.407C1452.58 327.407 1452.3 327.407 1452.3 327.683C1448.72 330.44 1444.03 331.819 1440.45 334.577C1439.34 335.404 1437.96 335.68 1436.86 336.507C1436.31 337.059 1435.76 337.61 1435.76 338.437C1435.76 342.574 1434.66 346.159 1433 349.744C1431.9 352.226 1430.79 354.708 1428.86 356.638C1426.93 358.844 1425 360.774 1422.25 361.877C1420.32 362.705 1418.39 364.084 1416.18 364.635C1411.77 365.738 1407.35 366.29 1402.94 365.738C1400.74 365.462 1398.81 365.187 1396.88 364.359C1395.5 363.808 1394.67 362.981 1393.57 362.153C1393.01 361.602 1393.29 360.774 1393.29 360.223C1393.57 359.12 1394.12 358.017 1394.39 356.638ZM1488.71 306.449C1488.71 306.449 1488.43 306.449 1488.43 306.724L1488.71 306.449C1491.46 306.173 1493.95 304.794 1496.43 304.242C1500.01 303.415 1503.87 302.588 1507.46 301.761C1508.56 301.485 1509.39 301.209 1510.22 300.382C1507.73 300.657 1505.25 301.209 1502.77 301.761C1498.08 302.864 1493.39 304.518 1488.71 305.897C1488.71 305.897 1488.71 306.173 1488.71 306.449ZM1453.96 307C1453.96 307 1454.23 307 1453.96 307C1453.96 306.724 1453.96 306.724 1453.96 307C1450.65 308.379 1447.62 310.585 1444.58 312.24C1442.93 313.067 1441.27 314.17 1439.62 314.997C1436.31 316.652 1433.55 318.858 1430.24 320.513C1428.31 321.34 1426.93 322.994 1424.73 323.546C1424.18 323.822 1423.9 323.546 1423.35 323.27C1421.69 322.443 1420.04 321.34 1418.39 321.064C1416.18 320.788 1414.25 320.513 1412.04 320.788C1408.73 321.064 1405.7 321.616 1402.67 322.994C1398.53 324.925 1394.95 327.683 1391.64 330.992C1390.81 331.543 1389.98 332.095 1389.43 332.922C1387.78 335.68 1386.4 338.713 1385.84 342.022C1385.84 342.574 1385.84 342.85 1386.4 342.85C1387.78 343.401 1389.15 343.677 1390.81 343.677C1391.91 343.677 1392.46 344.504 1391.64 345.332C1390.26 347.538 1388.6 349.468 1387.78 351.95C1387.22 353.329 1387.22 353.88 1388.6 354.432C1389.15 354.708 1389.71 354.983 1390.26 354.983C1391.91 355.259 1393.57 355.259 1395.22 355.259C1396.32 355.259 1396.6 355.811 1396.05 356.638C1395.22 357.741 1395.22 359.12 1394.67 360.499C1394.39 360.774 1394.67 361.326 1394.95 361.602C1395.77 362.153 1396.6 362.705 1397.43 362.981C1398.53 363.532 1399.91 363.532 1401.01 363.808C1404.87 364.635 1408.46 364.359 1412.32 363.808C1416.18 363.256 1419.21 361.326 1422.52 359.671C1423.35 359.12 1424.18 358.844 1425 358.017C1427.49 355.535 1429.69 352.777 1431.07 349.468C1432.73 345.883 1434.1 342.022 1434.1 338.162C1434.1 337.61 1434.1 337.334 1433.55 337.059C1433.28 337.059 1433 336.783 1433 336.507C1433 335.955 1433.28 335.955 1433.55 335.68C1434.38 335.404 1435.21 335.128 1435.76 334.852C1438.52 333.198 1441 331.543 1444.03 330.164C1447.06 328.51 1450.1 326.855 1453.13 325.201C1455.89 323.822 1458.37 322.443 1460.85 320.788C1462.23 319.961 1463.61 318.582 1465.54 317.479C1464.99 317.479 1464.71 317.479 1464.71 317.479C1460.85 318.858 1456.99 318.582 1453.13 318.306C1451.2 318.031 1449.82 316.652 1449.82 314.722C1449.82 313.343 1450.37 311.964 1451.2 310.861C1452.3 309.482 1453.41 308.379 1453.96 307ZM1570.88 251.847V252.123C1570.88 252.123 1571.16 252.123 1570.88 251.847C1571.44 251.847 1571.99 251.847 1571.71 251.295C1571.16 250.192 1571.71 250.468 1572.26 250.468C1573.09 250.468 1573.64 250.468 1573.09 249.365V249.089C1573.92 247.986 1573.92 246.883 1573.92 245.78C1574.19 244.677 1574.19 243.85 1574.47 242.747C1574.47 242.195 1574.74 241.644 1575.3 241.919C1576.12 241.919 1575.85 242.471 1575.85 243.022C1575.85 243.574 1575.85 243.85 1575.57 244.401C1575.3 245.504 1575.02 246.883 1575.02 248.262C1575.85 247.435 1576.95 247.159 1576.95 246.056C1576.95 244.677 1577.5 243.574 1577.5 242.195C1577.5 241.644 1577.78 241.092 1578.61 241.368C1579.71 241.368 1579.43 241.919 1579.43 242.195C1579.16 243.298 1579.16 244.401 1578.88 245.504C1580.54 244.953 1580.54 244.125 1580.26 242.195C1579.71 239.162 1578.05 236.956 1576.4 234.749C1575.57 233.646 1575.02 232.267 1574.19 231.44C1571.99 229.234 1569.5 227.028 1567.57 224.546C1565.92 222.616 1564.27 221.237 1562.06 220.685C1559.85 219.858 1557.37 219.582 1555.17 218.755C1554.06 218.479 1553.51 218.755 1553.23 219.582C1552.96 220.41 1552.68 220.685 1552.13 220.961C1551.03 221.513 1550.48 222.34 1549.65 223.443C1547.72 226.476 1545.51 229.51 1543.31 232.267C1541.38 234.474 1539.17 236.404 1536.96 238.059C1535.31 239.162 1533.66 240.54 1532.28 241.919L1532 242.195C1531.45 243.574 1530.35 244.125 1529.24 244.953C1527.59 246.056 1525.66 246.056 1524 246.332C1520.14 247.159 1516.28 247.986 1512.42 248.262C1508.84 248.538 1505.53 249.089 1502.22 250.192C1500.01 251.02 1497.53 251.571 1495.32 251.571C1493.12 251.571 1491.19 252.123 1488.98 252.398C1487.6 252.674 1486.22 252.95 1484.84 253.226C1482.64 253.501 1480.16 253.777 1478.23 255.156C1476.02 256.535 1473.54 256.811 1471.33 258.741C1469.68 260.12 1467.75 261.499 1465.54 262.602C1464.99 262.878 1464.71 263.153 1464.16 263.429C1463.34 264.532 1462.23 265.084 1460.85 265.635C1459.2 266.187 1458.1 267.29 1456.99 268.393C1456.72 268.669 1456.72 268.944 1456.17 268.944C1453.13 270.599 1450.65 272.805 1447.62 274.184C1444.86 275.563 1442.93 277.769 1440.17 279.423C1438.52 280.251 1437.69 281.905 1436.31 283.008C1435.48 283.56 1434.93 284.111 1434.66 284.939C1433.55 287.421 1431.35 289.075 1429.42 291.006C1428.04 292.66 1426.11 294.315 1424.73 296.521C1432.73 294.315 1440.72 293.212 1447.06 287.972C1447.06 287.972 1446.79 287.696 1446.51 287.696C1446.24 287.421 1445.96 287.145 1446.24 286.593C1446.51 286.318 1446.79 286.318 1447.34 286.593C1447.62 286.593 1447.89 286.869 1447.89 286.869C1448.72 287.972 1450.1 287.696 1450.93 287.145C1454.79 285.215 1459.2 284.111 1463.06 281.905C1464.16 281.354 1464.44 281.078 1463.34 280.251C1462.78 279.975 1461.96 279.699 1462.51 278.872C1463.06 278.045 1463.61 278.872 1464.44 278.872C1464.71 278.872 1464.71 278.872 1464.99 279.148C1465.82 279.699 1466.64 279.699 1467.47 279.699C1469.68 279.699 1471.88 278.872 1473.81 277.769C1476.3 276.666 1478.78 275.287 1481.54 275.011C1480.71 274.735 1480.43 273.908 1479.61 273.632C1479.33 273.632 1478.78 273.357 1478.78 272.805C1479.05 272.254 1479.61 272.254 1480.16 272.529C1482.64 273.632 1484.57 275.287 1485.67 277.769C1485.95 278.596 1485.95 279.148 1485.95 279.975C1485.4 281.63 1484.84 283.56 1484.02 285.215C1483.74 285.766 1483.47 286.042 1483.19 286.318C1481.26 287.972 1478.78 288.8 1477.12 291.006C1477.12 291.281 1476.85 291.281 1476.57 291.281C1472.99 293.763 1469.95 296.797 1466.37 299.003C1464.44 300.106 1462.78 301.761 1460.85 302.864C1458.92 303.967 1457.54 305.345 1456.44 307C1456.44 307 1456.17 307.276 1456.44 307.276C1456.44 307.552 1456.72 307.276 1456.72 307.276C1458.1 305.897 1459.75 305.621 1461.68 305.07C1462.23 304.794 1462.78 304.794 1463.34 305.07C1465.82 306.449 1467.75 308.379 1468.3 311.412C1468.57 312.24 1468.3 312.791 1467.47 313.343C1466.92 313.618 1466.64 313.894 1466.09 314.17C1463.89 315.549 1461.68 316.652 1459.2 317.479C1461.68 317.479 1464.16 316.652 1466.64 316.1C1469.95 315.273 1472.99 313.067 1476.3 311.964C1477.4 311.412 1478.78 310.861 1479.88 310.033C1483.19 308.103 1485.95 305.621 1490.08 304.794C1493.12 304.242 1496.15 302.864 1499.18 302.036C1503.05 300.933 1506.91 299.83 1511.04 299.279C1514.08 299.003 1516.83 299.003 1519.87 297.9C1524.83 295.969 1528.97 293.212 1532.83 289.627C1536.69 286.042 1539.17 281.63 1542.2 277.217C1543.03 276.114 1543.31 274.184 1545.24 274.46L1545.51 274.184C1546.06 271.978 1546.34 269.772 1547.17 267.566C1547.17 267.29 1546.89 266.738 1547.44 266.738C1548 266.738 1548 267.29 1548 267.566C1548 269.22 1547.44 270.875 1547.17 272.529C1548.27 271.702 1549.1 271.15 1549.37 269.496C1549.37 267.29 1549.93 265.084 1549.93 262.878C1549.93 262.326 1550.2 262.05 1550.75 262.05C1551.3 262.05 1551.58 262.602 1551.58 263.153C1551.3 265.359 1551.3 267.566 1550.75 269.772V270.047H1551.03C1551.86 269.22 1553.23 268.669 1553.23 267.29C1553.51 265.084 1553.79 262.602 1554.34 260.396C1554.34 259.844 1554.61 259.568 1554.89 259.293C1555.17 259.293 1555.44 259.293 1555.72 259.568C1555.99 260.12 1555.99 260.396 1555.72 260.947C1555.17 262.878 1554.89 264.808 1554.61 266.738C1554.61 266.738 1554.89 266.738 1554.89 267.014C1555.72 266.462 1556.54 265.911 1556.82 264.532C1557.1 261.774 1557.65 259.017 1558.47 256.259C1558.47 255.708 1558.75 255.156 1559.3 255.432C1559.85 255.432 1559.85 255.983 1559.58 256.535C1559.3 256.811 1559.3 257.362 1559.3 257.638C1559.03 259.568 1558.47 261.774 1558.2 263.981C1559.3 263.429 1560.13 262.602 1560.68 261.774C1560.96 261.499 1561.51 261.223 1561.51 260.396C1561.78 259.293 1561.78 258.189 1562.06 257.086C1562.34 255.432 1562.61 253.501 1562.89 251.847C1562.89 251.295 1563.16 250.744 1563.71 251.02C1564.27 251.295 1564.27 251.847 1564.27 252.123C1563.44 254.329 1563.44 256.811 1562.89 259.293C1562.61 259.568 1562.61 259.568 1562.89 259.844C1562.89 260.12 1563.16 259.844 1563.16 259.568C1563.71 259.293 1564.27 258.741 1564.82 258.465C1565.92 257.914 1566.47 256.811 1566.47 255.708C1566.47 254.605 1566.75 253.226 1567.02 252.123C1567.3 251.295 1567.57 250.744 1567.3 249.917C1567.3 249.089 1567.3 248.538 1567.85 247.986C1568.13 247.71 1568.4 247.71 1568.4 247.986C1568.95 248.538 1568.95 249.365 1568.68 249.917C1568.4 251.847 1568.13 253.501 1567.57 255.432C1567.57 255.708 1567.3 255.708 1567.57 255.983H1567.85C1568.4 255.432 1568.95 255.156 1569.78 254.605C1570.06 254.329 1570.33 254.329 1570.33 253.777C1570.61 251.295 1570.88 248.538 1571.44 246.056C1571.44 245.504 1571.71 244.953 1572.26 244.953C1572.81 244.953 1572.81 245.78 1572.81 246.332C1571.99 247.71 1571.44 249.641 1570.88 251.847ZM1405.15 295.694C1402.11 295.418 1399.36 296.245 1396.88 297.624C1394.12 299.003 1391.91 301.209 1389.71 303.139L1389.43 303.415C1386.95 307.552 1385.29 311.964 1385.29 316.928C1385.29 319.961 1385.29 319.961 1388.05 319.961C1389.71 319.961 1390.26 321.064 1389.43 322.443C1388.88 323.27 1388.6 324.373 1388.05 325.201C1387.78 325.752 1388.05 325.752 1388.33 326.304C1389.15 327.407 1390.81 327.683 1391.91 328.51C1392.19 328.786 1392.46 328.51 1392.46 328.234C1394.95 325.201 1398.53 323.27 1402.11 321.616C1407.91 319.134 1413.7 318.582 1420.04 319.685C1421.14 319.961 1422.8 319.685 1423.62 320.513C1424.73 321.34 1424.73 320.788 1425.28 319.961C1425.56 319.685 1425.56 319.41 1425.56 318.858C1425.56 316.652 1427.21 315.549 1428.86 314.722C1432.17 313.067 1435.48 311.688 1438.79 310.309C1441.83 309.206 1445.13 308.379 1447.89 306.724C1449 305.897 1449.82 305.07 1451.2 304.518C1453.96 303.415 1456.44 302.312 1458.92 300.933C1463.06 298.727 1466.92 295.969 1470.78 293.212C1472.44 291.833 1473.54 289.903 1475.47 289.075C1477.12 288.248 1478.23 286.869 1479.88 286.042C1481.26 285.49 1482.64 284.387 1483.19 282.733C1483.47 281.905 1484.02 280.802 1484.29 279.975C1484.84 278.596 1484.29 276.39 1483.19 275.287C1483.19 275.287 1482.91 275.011 1482.64 275.011C1480.71 275.287 1478.78 275.839 1477.4 276.942C1475.47 278.32 1473.54 279.423 1471.33 280.527C1467.75 282.457 1463.89 283.836 1460.03 284.939C1456.72 286.042 1453.68 287.696 1450.37 288.524C1447.89 289.351 1445.41 290.454 1443.2 291.557C1441 292.66 1439.07 293.488 1436.86 294.039C1433.28 294.866 1429.97 295.969 1426.38 297.072C1425.56 297.348 1425 297.624 1424.18 297.9C1422.8 299.003 1421.69 299.003 1420.32 297.624L1420.04 297.348C1415.08 297.072 1410.11 296.245 1405.15 295.694ZM1454.51 317.203C1455.34 317.755 1455.34 316.652 1455.89 316.376C1459.47 315.549 1462.51 313.894 1465.54 311.964C1465.82 311.688 1466.09 311.412 1465.82 310.861C1465.54 308.93 1464.16 307.552 1462.78 306.449C1461.96 305.621 1460.58 305.345 1459.75 305.897C1458.37 307 1456.99 308.103 1455.34 309.206C1453.96 310.309 1453.13 311.964 1451.75 312.791C1451.2 313.343 1450.93 314.446 1451.2 315.273C1451.48 316.1 1452.03 316.652 1452.58 316.652C1453.13 316.928 1453.68 316.928 1454.51 317.203ZM1427.76 319.685C1429.97 317.479 1432.45 316.652 1434.66 315.273C1434.38 315.273 1434.38 315.273 1434.1 315.273C1431.9 315.825 1430.24 317.479 1428.04 318.031C1427.49 318.306 1427.76 318.858 1427.76 319.685ZM1439.62 312.515C1438.52 312.791 1437.69 313.067 1437.14 314.17C1437.96 313.618 1438.79 313.343 1439.62 312.515ZM1553.51 266.738C1553.51 266.462 1553.51 266.462 1553.51 266.738C1553.51 266.462 1553.51 266.738 1553.51 266.738ZM1435.21 315.273C1435.21 315.273 1435.21 314.997 1435.21 315.273C1434.93 314.997 1434.93 315.273 1435.21 315.273C1434.93 315.273 1434.93 315.273 1435.21 315.273Z" fill="#0A0A0A"/>
<path d="M1503.3 33.1561H1503.02C1502.75 32.8804 1503.02 32.8804 1503.02 32.6046C1503.02 32.8804 1503.3 33.1561 1503.3 33.1561Z" fill="#FDFDFD"/>
<path d="M1498.33 37.2925C1498.33 37.5683 1498.06 37.5683 1498.06 37.5683C1498.06 37.2925 1498.06 37.2925 1498.06 37.0167C1498.33 37.0167 1498.33 37.0167 1498.33 37.2925Z" fill="#FDFDFD"/>
<path d="M1507.16 30.1226C1507.16 30.1226 1506.88 30.1226 1507.16 30.1226C1506.88 30.1226 1506.88 30.1226 1507.16 30.1226C1507.16 30.1226 1507.16 29.8468 1507.16 30.1226Z" fill="#FDFDFD"/>
<path d="M1485.93 47.7716C1485.65 47.7716 1485.65 48.0474 1485.93 47.7716C1485.65 47.7716 1485.65 47.7716 1485.65 47.4958C1485.65 47.7716 1485.65 47.7716 1485.93 47.7716Z" fill="#FDFDFD"/>
<path d="M1392.16 84.7242C1392.16 84.7242 1391.89 85 1391.89 84.7242C1391.89 84.7242 1391.89 84.7242 1392.16 84.7242Z" fill="#FDFDFD"/>
<path d="M1389.68 84.7242H1389.96C1390.23 85 1389.96 85 1389.68 84.7242C1389.96 84.7242 1389.96 85 1389.68 84.7242Z" fill="#FDFDFD"/>
<path d="M1371.21 93.2732C1370.93 93.2732 1370.93 93.2732 1371.21 93.2732C1370.93 93.2732 1370.93 92.9974 1371.21 93.2732C1371.21 93.2732 1371.21 92.9974 1371.21 93.2732Z" fill="#FDFDFD"/>
</g>
</svg>
