<svg width="80" height="44" viewBox="0 0 80 44" fill="none" xmlns="http://www.w3.org/2000/svg">
<circle cx="40.5" cy="16.5" r="15.5" stroke="#ECEEF6" stroke-width="2"/>
<path d="M46.2653 11.8198C46.261 11.7628 46.2133 11.7188 46.1562 11.7188H44.7344C44.4323 11.7188 44.1875 11.4739 44.1875 11.1719C44.1875 9.42286 42.7645 8 41.0156 8C39.2667 8 37.8437 9.42286 37.8437 11.1719C37.8437 11.4739 37.5989 11.7188 37.2969 11.7188H35.875C35.8179 11.7188 35.7702 11.7628 35.7659 11.8198L35.0003 21.8823C34.998 21.9126 35.0084 21.9426 35.0292 21.9649C35.0499 21.9873 35.079 22 35.1094 22H46.9219C46.9523 22 46.9814 21.9873 47.002 21.965C47.0227 21.9427 47.0332 21.9127 47.0309 21.8824L46.2653 11.8198ZM38.7187 11.1719C38.7187 9.90542 39.749 8.875 41.0156 8.875C42.2822 8.875 43.3125 9.90542 43.3125 11.1719C43.3125 11.4739 43.0676 11.7188 42.7656 11.7188H39.2656C38.9636 11.7188 38.7187 11.4739 38.7187 11.1719ZM38.2812 14.7812C37.678 14.7812 37.1875 14.2906 37.1875 13.6875C37.1875 13.5941 37.1975 13.5028 37.2175 13.4151C37.3246 12.9459 37.8437 13.2063 37.8437 13.6875C37.8437 13.9288 38.0401 14.125 38.2812 14.125C38.5224 14.125 38.7187 13.9288 38.7187 13.6875C38.7187 13.2066 39.2369 12.9468 39.3447 13.4155C39.3649 13.5032 39.375 13.5945 39.375 13.6875C39.375 14.2906 38.8844 14.7812 38.2812 14.7812ZM43.75 14.7812C43.1468 14.7812 42.6562 14.2906 42.6562 13.6875C42.6562 13.5941 42.6662 13.5028 42.6863 13.4151C42.7933 12.9459 43.3125 13.2063 43.3125 13.6875C43.3125 13.9288 43.5088 14.125 43.75 14.125C43.9912 14.125 44.1875 13.9288 44.1875 13.6875C44.1875 13.2066 44.7056 12.9468 44.8135 13.4155C44.8336 13.5032 44.8437 13.5945 44.8437 13.6875C44.8437 14.2906 44.3532 14.7812 43.75 14.7812Z" fill="#59AAF1"/>
<path d="M46.2653 11.8198C46.261 11.7628 46.2133 11.7188 46.1562 11.7188H44.7344C44.4323 11.7188 44.1875 11.4739 44.1875 11.1719C44.1875 9.42286 42.7645 8 41.0156 8C39.2667 8 37.8437 9.42286 37.8437 11.1719C37.8437 11.4739 37.5989 11.7188 37.2969 11.7188H35.875C35.8179 11.7188 35.7702 11.7628 35.7659 11.8198L35.0003 21.8823C34.998 21.9126 35.0084 21.9426 35.0292 21.9649C35.0499 21.9873 35.079 22 35.1094 22H46.9219C46.9523 22 46.9814 21.9873 47.002 21.965C47.0227 21.9427 47.0332 21.9127 47.0309 21.8824L46.2653 11.8198ZM38.7187 11.1719C38.7187 9.90542 39.749 8.875 41.0156 8.875C42.2822 8.875 43.3125 9.90542 43.3125 11.1719C43.3125 11.4739 43.0676 11.7188 42.7656 11.7188H39.2656C38.9636 11.7188 38.7187 11.4739 38.7187 11.1719ZM38.2812 14.7812C37.678 14.7812 37.1875 14.2906 37.1875 13.6875C37.1875 13.5941 37.1975 13.5028 37.2175 13.4151C37.3246 12.9459 37.8437 13.2063 37.8437 13.6875C37.8437 13.9288 38.0401 14.125 38.2812 14.125C38.5224 14.125 38.7187 13.9288 38.7187 13.6875C38.7187 13.2066 39.2369 12.9468 39.3447 13.4155C39.3649 13.5032 39.375 13.5945 39.375 13.6875C39.375 14.2906 38.8844 14.7812 38.2812 14.7812ZM43.75 14.7812C43.1468 14.7812 42.6562 14.2906 42.6562 13.6875C42.6562 13.5941 42.6662 13.5028 42.6863 13.4151C42.7933 12.9459 43.3125 13.2063 43.3125 13.6875C43.3125 13.9288 43.5088 14.125 43.75 14.125C43.9912 14.125 44.1875 13.9288 44.1875 13.6875C44.1875 13.2066 44.7056 12.9468 44.8135 13.4155C44.8336 13.5032 44.8437 13.5945 44.8437 13.6875C44.8437 14.2906 44.3532 14.7812 43.75 14.7812Z" fill="url(#paint0_linear_1_183)"/>
<path d="M46.2653 11.8198C46.261 11.7628 46.2133 11.7188 46.1562 11.7188H44.7344C44.4323 11.7188 44.1875 11.4739 44.1875 11.1719C44.1875 9.42286 42.7645 8 41.0156 8C39.2667 8 37.8437 9.42286 37.8437 11.1719C37.8437 11.4739 37.5989 11.7188 37.2969 11.7188H35.875C35.8179 11.7188 35.7702 11.7628 35.7659 11.8198L35.0003 21.8823C34.998 21.9126 35.0084 21.9426 35.0292 21.9649C35.0499 21.9873 35.079 22 35.1094 22H46.9219C46.9523 22 46.9814 21.9873 47.002 21.965C47.0227 21.9427 47.0332 21.9127 47.0309 21.8824L46.2653 11.8198ZM38.7187 11.1719C38.7187 9.90542 39.749 8.875 41.0156 8.875C42.2822 8.875 43.3125 9.90542 43.3125 11.1719C43.3125 11.4739 43.0676 11.7188 42.7656 11.7188H39.2656C38.9636 11.7188 38.7187 11.4739 38.7187 11.1719ZM38.2812 14.7812C37.678 14.7812 37.1875 14.2906 37.1875 13.6875C37.1875 13.5941 37.1975 13.5028 37.2175 13.4151C37.3246 12.9459 37.8437 13.2063 37.8437 13.6875C37.8437 13.9288 38.0401 14.125 38.2812 14.125C38.5224 14.125 38.7187 13.9288 38.7187 13.6875C38.7187 13.2066 39.2369 12.9468 39.3447 13.4155C39.3649 13.5032 39.375 13.5945 39.375 13.6875C39.375 14.2906 38.8844 14.7812 38.2812 14.7812ZM43.75 14.7812C43.1468 14.7812 42.6562 14.2906 42.6562 13.6875C42.6562 13.5941 42.6662 13.5028 42.6863 13.4151C42.7933 12.9459 43.3125 13.2063 43.3125 13.6875C43.3125 13.9288 43.5088 14.125 43.75 14.125C43.9912 14.125 44.1875 13.9288 44.1875 13.6875C44.1875 13.2066 44.7056 12.9468 44.8135 13.4155C44.8336 13.5032 44.8437 13.5945 44.8437 13.6875C44.8437 14.2906 44.3532 14.7812 43.75 14.7812Z" fill="url(#paint1_linear_1_183)"/>
<path d="M-74 -373H156C163.732 -373 170 -366.732 170 -359V4.82654C170 12.5585 163.732 18.8265 156 18.8265H81.7913C77.816 18.8265 73.9831 20.3064 71.0393 22.9777L55.784 36.8209C47.3971 44.4314 34.6028 44.4314 26.216 36.8209L10.9607 22.9777C8.01686 20.3064 4.18397 18.8265 0.208717 18.8265H-74C-81.732 18.8265 -88 12.5585 -88 4.82654V-359C-88 -366.732 -81.732 -373 -74 -373Z" fill="white" stroke="#ECEEF7" stroke-width="2"/>
<defs>
<linearGradient id="paint0_linear_1_183" x1="41.0156" y1="8" x2="41.0156" y2="22" gradientUnits="userSpaceOnUse">
<stop stop-color="#FE5626"/>
<stop offset="1" stop-color="#F23F0E"/>
</linearGradient>
<linearGradient id="paint1_linear_1_183" x1="41.2228" y1="38.2055" x2="28.7906" y2="34.7869" gradientUnits="userSpaceOnUse">
<stop stop-color="#F58656"/>
<stop offset="1" stop-color="#FE5626"/>
</linearGradient>
</defs>
</svg>
